<?xml version="1.0" encoding="utf-8"?>
<!-- Generator: Adobe Illustrator 22.0.0, SVG Export Plug-In . SVG Version: 6.00 Build 0)  -->
<svg version="1.1" id="Слой_2" xmlns="http://www.w3.org/2000/svg" xmlns:xlink="http://www.w3.org/1999/xlink" x="0px" y="0px"
	 viewBox="0 0 3200 2000" style="enable-background:new 0 0 3200 2000;" xml:space="preserve">
<style type="text/css">
	.st0{fill:#EDF4FF;}
	.st1{fill:#FFB27D;}
	.st2{fill:#2C3A64;}
	.st3{fill:#35488B;}
	.st4{fill:#FFB93E;}
	.st5{fill:#EA9C68;}
	.st6{fill:#FFA412;}
	.st7{fill:#F99746;}
	.st8{fill:#ED7D2B;}
	.st9{fill:#CE641D;}
	.st10{fill:#F08D3E;}
	.st11{fill:#AA443E;}
	.st12{fill:#415BA3;}
	.st13{fill:#ED985F;}
	.st14{fill:#D35C2B;}
	.st15{fill:#FFFFFF;}
	.st16{fill:#D36820;}
	.st17{fill:#993533;}
	.st18{fill:#D3671E;}
	.st19{fill:#CAD9EF;}
	.st20{fill:#82B378;}
</style>
<g>
	<path class="st0" d="M341.9,1647.2c0.1,0.1,2522.8-0.3,2522.8-0.3s7.3-14.9,16.4-34.5c6.8-14.5,15.2-33.7,23.9-56.9v0
		c1.6-4.3,3.3-8.7,4.9-13.3c2.3-6.4,4.6-13.1,6.9-20c0.8-2.6,1.7-5.2,2.5-7.8c5-15.7,9.9-32.7,14.5-50.5c0.3-1.2,0.6-2.5,0.9-3.8
		c1.7-6.8,3.3-13.8,4.9-21c0.9-4,1.7-8,2.5-12l0.2-0.8c0.3-1.5,0.6-3,0.9-4.5c5.7-28.7,10.1-59.4,12.3-91.3c0.4-5.6,0.7-11.3,1-17
		c0.3-5.8,0.5-11.6,0.6-17.4c0.7-36.3-1.6-74-8-112.3c-2.5-15-5.6-30.1-9.5-45.2c-2.8-11.1-6-22.1-9.6-33.2c-0.7-2.1-1.3-4.1-2-6.2
		c-8.3-24.7-18.6-49.4-31.2-73.9c-1.1-2.2-2.3-4.4-3.5-6.6c-9.5-17.8-20.2-35.4-32.2-52.9c-1.2-1.8-2.5-3.6-3.7-5.4
		c-7-9.9-14.5-19.8-22.4-29.6c-11.5-14.3-24.1-28.4-37.7-42.3c-18.8-19.3-37.5-36.8-55.9-52.6c-7.6-6.5-15.2-12.8-22.7-18.8
		c-6.5-5.1-12.9-10.1-19.3-14.8c-0.4-0.3-0.7-0.5-1.1-0.8c-14.9-10.9-29.6-20.8-44.2-29.8c-3-1.8-5.9-3.6-8.9-5.4
		c-14.3-8.4-28.5-16-42.6-22.7c-3.1-1.5-6.1-2.9-9.2-4.3c-96.1-43.7-185.2-49.4-264-42.2c-60.9,5.6-115.7,19-162.9,28.5
		c-3.1,0.6-6.2,1.2-9.2,1.8c-30.7,6-57.9,9.9-81.3,8.4c-37.3-2.4-67.7-25.1-100.4-58.5c-2.4-2.4-4.8-4.9-7.2-7.5
		c-19.1-20.1-39.1-43.6-61.8-68.6c-4.1-4.6-8.4-9.2-12.7-13.8c-8.6-9.2-17.6-18.6-27.1-28c-1.5-1.5-2.9-2.9-4.4-4.4
		c-3.2-3.1-6.5-6.3-9.8-9.4c-1.5-1.4-2.9-2.8-4.4-4.2c-10.8-10.1-22.1-20.2-34.2-30.2c-52-43.3-117.2-84.9-203.3-116.8
		c0,0-0.1,0-0.1,0c-36.4-13.5-76.6-25.2-121.1-34.5c-48.9-10.3-101.4-17.9-155.3-22.4c-13-1.1-26.1-2-39.2-2.7
		c-14.1-0.7-28.2-1.3-42.4-1.6c-8.5-0.2-17-0.3-25.5-0.3c-21,0-42.1,0.5-63,1.5c-7.4,0.4-14.8,0.8-22.2,1.3
		c-90.5,6.3-177.7,23.5-251.3,54.1c-51.6,21.5-246.1,117.5-303.1,280c-18,51.3-22.3,109.2-4.2,173.4
		c64.3,227.4-33.6,255.7-156.1,364C263.4,1352,210.8,1547.1,341.9,1647.2z"/>
	<g>
		<g>
			<path class="st1" d="M1017,1049.7c0,0-64.2,108.2-71.1,135.7c-6.9,27.5,39,20.6,51.9,0c12.9-20.6,68.9-82.2,68.9-82.2
				L1017,1049.7z"/>
			<path class="st1" d="M1178.5,1081.2c-16.7-23.4,14.7-50.8,35.8-31.4c26.6,24.5,61.9,57.9,65.4,66.3c5.8,13.6-33.1,41.2-88.2-19
				C1186.3,1091.3,1182,1086,1178.5,1081.2z"/>
			<path class="st2" d="M1154.2,1646h-100.3c0,0-1.9-16.3,0.4-30.3c0.3-1.7,1.2-3.2,2.5-4.6c5.9,2,14.5,3.4,24.1-0.1
				c7.9-2.8,13.7-7.1,17.7-11c1,1,21.8,20.8,31.3,20.8C1139.7,1620.9,1154.7,1625.6,1154.2,1646z"/>
			<path class="st2" d="M1292.5,1646h-100.3c0,0-1.9-16.3,0.4-30.3c0.3-1.7,1.2-3.2,2.5-4.6c5.9,2,14.5,3.4,24.1-0.1
				c7.9-2.8,13.7-7.1,17.7-11c1,1,21.8,20.8,31.3,20.8C1278.1,1620.9,1293.1,1625.6,1292.5,1646z"/>
			<path class="st3" d="M1248.8,1605c0,0-39.9,19.2-63.5,6.3c0,0-9.3-32.6-20.5-80.1c-9.2-39.3-19.8-88.7-27.3-138.2
				c-0.4-2.6-0.8-5.4-1.2-8.5c-6.1-49.9-5.9-154.7,95.4-126.9L1248.8,1605z"/>
			<path class="st2" d="M1164.8,1531.2c-9.2-39.3-19.8-88.7-27.3-138.2c-0.4-2.6-0.8-5.4-1.2-8.5c6.1-35.1,15.7-63.1,27-66.5
				C1163.4,1318,1203.3,1487.4,1164.8,1531.2z"/>
			<path class="st2" d="M1156.5,1646h-100.3c0,0-1.9-16.3,0.4-30.3c0.3-1.7,1.2-3.2,2.5-4.6c5.9,2,14.5,3.4,24.1-0.1
				c7.9-2.8,13.7-7.1,17.7-11c1,1,21.8,20.8,31.3,20.8C1142.1,1620.9,1157.1,1625.6,1156.5,1646z"/>
			<path class="st3" d="M1049.8,1256.5c-4.4,0.6,12.1,191.8,3.3,227.7c-8.9,35.9,0,132.9,0,132.9s34,9.8,70.7-4.2
				c0,0,11.4-116.4,21.2-149.7c20.9-71.8,31.8-200.8,31.8-200.8L1049.8,1256.5z"/>
			<path class="st1" d="M1147.3,1022l-49.8,32.5l-14.4-35.4c0,0,5.4-13.3,6.2-34.4c0.3-8.8-0.1-19-2.1-30.2l45.2,17.4
				c0,0-0.6,4.1-0.7,10c-0.1,6.4,0.5,15,3.2,22.9C1137.3,1011.6,1141.1,1017.9,1147.3,1022z"/>
			<path class="st4" d="M1237.8,1245l-31.2-129.9c25-11.8,33.9-49,33.9-49l-49.3-38.2c-5.2-4-11.2-6.9-17.5-8.5
				c-7.4-1.8-19.3-3.8-33.7-4.6c1,7.6-0.3,14.7-13.4,17.8c-17.4,4.2-34.5-6.2-43.4-13.5c-16.9,4.3-34.8,11.3-53.9,22.2l0,0
				c0,0-3,1.4-7.7,4.6c-1.6,1-4.7,3.5-4.7,3.5c-10.8,8.4-26.4,24.3-38.1,51.1c0,0,6.6,34.6,59.7,43.6h0l0.2,0.7l1.5,6.3l8,35
				l-7.1,98.2c-0.1,0.9-0.1,1.7,0,2.5c0.7,6.4,5.7,11.8,12.3,12.6c0,0,1.5,0.1,4.3,0.2c6.6,0.2,22.9,0.6,43.8,0.1
				c20.1-0.5,44.4-1.8,68.3-5c22.2-2.9,44-7.5,61.8-14.4C1244.5,1275.4,1240.3,1258.5,1237.8,1245z"/>
			<path class="st5" d="M1135,1004.8c-24.5,1.9-45.6-20.1-45.6-20.1l42.5-2.8C1131.7,988.3,1132.3,996.9,1135,1004.8z"/>
			<path class="st1" d="M1142,975.9c0,0-41.9,28.3-70.7-2.8c-31-33.6-22.3-69.1-7.3-76.5c29.9-14.8,52.2-9.2,62.1,1.4
				C1136.1,908.7,1165.2,960.5,1142,975.9z"/>
			<path class="st6" d="M1169.9,1294.8c-23.9,3.2-48.2,4.5-68.3,5c-20.9,0.5-37.3,0.1-43.8-0.1c-2.8-0.1-4.3-0.2-4.3-0.2
				c-6.6-0.9-11.7-6.2-12.3-12.6c-0.1-0.8-0.1-1.7,0-2.5l7.1-98.2l-8-35l-1.5-6.3c0.1-0.5,0.2-0.7,0.2-0.7
				S1156.4,1236.5,1169.9,1294.8z"/>
			<g>
				<path class="st2" d="M1084,983.1c0,0-11-14-13.3-22.7c0,0-17.4-11.2-11.7-17.4c5.7-6.3,12.7,1.5,13.6-0.8
					c1-2.3-7.1-33.4,1.8-35.4c8.9-2,43.8-3.3,53.5-20c9.7-16.8-40.2-51.6-90.8-13.7C986.6,910.7,1020.3,969.9,1084,983.1z"/>
				<path class="st2" d="M1017.8,907.5c0,0-5.3-6.8-4.4-13.2c0,0,2.8,7.5,6.9,9.8C1024.5,906.4,1017.8,907.5,1017.8,907.5z"/>
				<path class="st2" d="M1017.1,901.7c0,0-7.3,1.7-8.7,8.2c0,0,3.8-5.1,10-3.3L1017.1,901.7z"/>
			</g>
			<path class="st1" d="M1245.4,1133.1c0,0,51.3,17.5,116.8,1.2l4.3-18.2c0,0-74.3-10.7-101.8-12.9
				C1237.2,1100.9,1245.4,1133.1,1245.4,1133.1z"/>
			<g>
				<path class="st7" d="M1154.4,1132.6c-4,1.9-7.7,4.1-11.1,6.6l0,0c-27.2,17.9-55.8,22.9-70.5,24.4c-12.9-0.1-26,2.7-38.5,8.7
					c-43.5,20.8-62.2,72.2-41.8,114.8s72.1,60.4,115.6,39.6c15-7.2,27.1-18,35.6-30.9c16.2-20.1,38-28.3,49.9-31.4
					c2.9-0.4,5.7-1,8.6-1.8c0.1,0,0.1,0,0.1,0l0,0c4.1-1.1,8.2-2.6,12.1-4.5c35.3-16.9,50.5-58.6,33.9-93.3
					C1231.8,1130.2,1189.7,1115.7,1154.4,1132.6z"/>
				<path class="st8" d="M1392.2,1107.3l-235.4,112.5c-5.5,2.6-12,0.3-14.7-5.2l0,0c-2.6-5.5-0.3-12,5.2-14.7l235.4-112.5
					c5.5-2.6,12-0.3,14.7,5.2l0,0C1400,1098.1,1397.7,1104.7,1392.2,1107.3z"/>
				<path class="st8" d="M1068.9,1276.2l-0.4,0.2c-2.8,1.3-6.2,0.1-7.5-2.6l-15.9-33.2c-1.3-2.8-0.1-6.2,2.6-7.5l0.4-0.2
					c2.8-1.3,6.2-0.1,7.5,2.6l15.9,33.2C1072.9,1271.5,1071.7,1274.9,1068.9,1276.2z"/>
				<path class="st8" d="M1074.2,1247.1c-5.1-10.7,0-23.9,11.6-29.4c11.5-5.5,25-1.3,30.2,9.5c5.1,10.7,0,23.9-11.6,29.4
					C1092.9,1262.1,1079.4,1257.8,1074.2,1247.1z"/>
				<path class="st8" d="M1391.5,1107.4l-9.8,4.7c-5.8,2.8-12.8,0.3-15.6-5.5l-3.7-7.7c-2.8-5.8-0.3-12.8,5.5-15.6l9.8-4.7
					c5.8-2.8,12.8-0.3,15.6,5.5l3.7,7.7C1399.8,1097.6,1397.3,1104.6,1391.5,1107.4z"/>
			</g>
			<path class="st1" d="M1077,1241c-1.2-2.5,8.9-0.9,10.3-4.3c1.4-3.4-31.3-1.4-31.3-1.4l-61-58.5c0,0-34.1,5.3-46.8,21.9
				c0,0,79.7,48.1,102.2,50.7c0,0,11.1,5.3,19.5,8.3c8.3,2.9,25.8,5.6,26.7-1.3C1097.5,1249.6,1078.2,1243.5,1077,1241z"/>
		</g>
		<path class="st1" d="M1362.2,1134.3c0,0,32.4-35.8,14.7-43.7c0,0-7.2,5.3-13.5,14.7s-8.6-2.2-10.3,2S1351.2,1134.5,1362.2,1134.3z
			"/>
	</g>
	<g>
		<polygon class="st7" points="2488.7,1642.1 2479.9,1642.1 2481.9,1523.1 2486.6,1523.1 		"/>
		<path class="st9" d="M2560.3,1525.1h-188.8c-6.5,0-11.8-5.3-11.8-11.8v-44.2c0-6.5,5.3-11.8,11.8-11.8h188.8
			c6.5,0,11.8,5.3,11.8,11.8v44.2C2572.1,1519.8,2566.8,1525.1,2560.3,1525.1z"/>
		<g>
			<g>
				<g>
					<g>
						<polygon class="st7" points="2000.7,1227.7 2000.2,1276.7 1997.1,1565.7 1997.1,1570.8 1986.3,1570.8 1986.2,1566.1 
							1981.6,1311.5 1981.6,1311.5 1980.1,1227.7 						"/>
					</g>
					<g>
						<path class="st7" d="M1917.2,1642.1h-0.5c-1.1,0-1.6-1.3-0.9-2l71.1-74.8l5.6,5.5l-74.5,70.9
							C1917.9,1642,1917.6,1642.1,1917.2,1642.1z"/>
					</g>
					<g>
						<path class="st7" d="M2066.5,1642.1h0.5c1.1,0,1.6-1.3,0.9-2l-71.1-74.8l-5.6,5.5l74.5,70.9
							C2065.8,1642,2066.1,1642.1,2066.5,1642.1z"/>
					</g>
				</g>
				<path class="st9" d="M2000.7,1227.7l-0.5,49c0,0-12.9,7.8-18.6,34.8l-1.5-83.9H2000.7z"/>
				<path class="st7" d="M2092.7,1136.3l-1.8,6.3l-20.3,69.8l-8.8,30.2l-1.6,5.4c-1.8,6.2-8.4,9.8-14.6,8l-146.6-42.7
					c-6.2-1.8-9.8-8.4-8-14.6l1.7-6l29.1-100.1l1.6-5.6c1.8-6.2,8.4-9.8,14.6-8l3.9,1.1l142.7,41.6
					C2090.9,1123.5,2094.5,1130.1,2092.7,1136.3z"/>
				<path class="st10" d="M2070.5,1212.5l-8.8,30.2l-1.6,5.4c-1.8,6.2-8.4,9.8-14.6,8l-146.6-42.7c-6.2-1.8-9.8-8.4-8-14.6l1.7-6
					l29.1-100.1l1.6-5.6c1.8-6.2,8.4-9.8,14.6-8l3.9,1.1C1942.8,1112.3,1955.9,1198.3,2070.5,1212.5z"/>
				<path class="st9" d="M2092.7,1136.3l-1.8,6.3l-165.3-48.1c-1.4-0.4-2.6-1-3.7-1.8l1.6-5.6c1.8-6.2,8.4-9.8,14.6-8l146.6,42.7
					C2090.9,1123.5,2094.5,1130.1,2092.7,1136.3z"/>
				<path class="st9" d="M2061.7,1242.6l-1.6,5.4c-1.8,6.2-8.4,9.8-14.6,8l-146.6-42.7c-6.2-1.8-9.8-8.4-8-14.6l1.7-6l165.4,48.2
					C2059.5,1241.3,2060.7,1241.9,2061.7,1242.6z"/>
				<g>
					<polygon class="st9" points="1928.9,1203.4 1925.2,1202.2 1958.3,1104 1959.3,1104.3 					"/>
				</g>
				<g>
					<polygon class="st9" points="2024.7,1233 2020.7,1231.9 2051.8,1130.6 2052.9,1130.9 					"/>
				</g>
			</g>
			<g>
				<path class="st2" d="M2321.5,1647.5h100.3c0,0,1.9-16.3-0.4-30.3c-0.3-1.7-1.2-3.2-2.5-4.6c-5.9,2-14.5,3.4-24.1-0.1
					c-7.9-2.8-13.7-7.1-17.7-11c-1,1-21.8,20.8-31.3,20.8C2335.9,1622.4,2320.9,1627.1,2321.5,1647.5z"/>
				<path class="st2" d="M2284.8,1647.5h100.3c0,0,1.9-16.3-0.4-30.3c-0.3-1.7-1.2-3.2-2.5-4.6c-5.9,2-14.5,3.4-24.1-0.1
					c-7.9-2.8-13.7-7.1-17.7-11c-1,1-21.8,20.8-31.3,20.8C2299.3,1622.4,2284.3,1627.1,2284.8,1647.5z"/>
				<path class="st2" d="M2514.6,1353.9c0,0,11.6,71.9-4.3,95.7c-15.9,23.8-218.7,10.4-218.7,10.4s-7.4-61.6,30.8-66.9
					C2360.6,1387.8,2514.6,1353.9,2514.6,1353.9z"/>
				<path class="st2" d="M2291.1,1455.9l21,158.2c0,0,33.7,12.8,53.8,1c0,0,33.5-166.8,13.9-184.6
					C2360.2,1412.6,2291.1,1455.9,2291.1,1455.9z"/>
				<path class="st3" d="M2569.2,1353.9c0,0,11.6,71.9-4.3,95.7c-15.9,23.8-218.7,10.4-218.7,10.4s-7.4-61.6,30.8-66.9
					C2415.2,1387.8,2569.2,1353.9,2569.2,1353.9z"/>
				<path class="st3" d="M2345.7,1455.9l9.2,158.5c0,0,45.4,12.4,65.6,0.6c0,0,33.5-166.8,13.9-184.6
					C2414.8,1412.6,2345.7,1455.9,2345.7,1455.9z"/>
				<path class="st1" d="M2414.7,1165.5l57.7,14.4l2-38.2c0,0-9.4-10.9-17.1-30.5c-3.2-8.2-6.1-18-7.9-29.2l-37,31.2
					c0,0,1.9,3.7,3.9,9.2c2.2,6,4.4,14.3,4.5,22.7C2420.9,1152.4,2419.3,1159.6,2414.7,1165.5z"/>
				<path class="st5" d="M2420.8,1145.2c23.7-6.2,36.5-33.9,36.5-33.9l-41,11.3C2418.5,1128.6,2420.7,1136.9,2420.8,1145.2z"/>
				<g>
					<path class="st1" d="M2406.1,1134.6c0,0,50.6,1.5,58.2-40.2c8.3-45-18.1-70.3-34.7-68.6c-33.2,3.5-49.1,20.1-51.8,34.4
						S2378.3,1134,2406.1,1134.6z"/>
					<g>
						<path class="st11" d="M2458.9,1109.7c0,0,1.8-17.7-0.9-26.3c0,0,8.8-18.7,0.6-21c-8.2-2.2-9.9,8-12,6.6
							c-2.1-1.5-11.9-32-20.5-29c-8.6,3-38.8,20.7-55.9,11.7c-17.1-9,6.4-65.1,69.3-60.1C2502.6,996.5,2505.7,1064.5,2458.9,1109.7z
							"/>
						<path class="st11" d="M2474.5,1010.4c0,0,0.8-8.5-3.3-13.5c0,0,1.7,7.8-0.6,12C2468.3,1013,2474.5,1010.4,2474.5,1010.4z"/>
						<path class="st11" d="M2472,1005.1c0,0,7.1-2.5,11.8,2.3c0,0-5.9-2.3-10.2,2.6L2472,1005.1z"/>
					</g>
				</g>
				<path class="st1" d="M2385.9,1158c0,0-97.2,38.8-109,55c-5.5,7.5-8.2,18.6-1.1,20.5c8.3,2.2,34.9,0.5,47.6-1.5
					c23.3-3.7,73.1-17.2,73.1-17.2L2385.9,1158z"/>
				<path class="st1" d="M2202.6,1126.9c0,0,35.4,86.6,66.9,104.8c10.2,5.9,34.3,0.4,34.3,0.4l-12.7-30.2l-67.9-80.1L2202.6,1126.9z
					"/>
				<path class="st1" d="M2223.4,1121.9c0,0-7.2-30.1-14.1-31.3c-6.9-1.1-16.7,12.4-17.7,19c-1,6.7,11,17.3,11,17.3L2223.4,1121.9z"
					/>
				<path class="st12" d="M2546.8,1211.6l-0.9-58.2c-33.7-18.8-55.5-18.6-76.7-18.8c-6.9,9.2-15.9,23.4-33.9,23.5
					c-13.5,0.1-13.8-5.3-14.6-12.9c0,0-51.1,12.7-78.6,31.3c0,0-1.6,38.3,37,59.3l0,0c2.6,62.2,7.4,141.6,15.4,143.8
					c33.3,9.2,69.1,14.1,107,5.8c20.5-4.5,69.7-20.1,69.4-20.9L2546.8,1211.6z"/>
				<path class="st1" d="M2533.6,1166.4c5.8-9.3,19-9.8,25.6-1.1c20.8,27.8,59.2,81.1,64,102.9c6.6,30.1-124.8,31.8-124.8,31.8
					l5-19.1c0,0,68.1-20,67.5-22.3c-0.7-2.4-49.5-49.7-52.3-58.8C2517.2,1194.7,2525.7,1179.2,2533.6,1166.4z"/>
				<path class="st12" d="M2501.7,1137.2c0,0,50.5,6,81.3,50.5c0,0,5.5,29.9-31.1,56C2515.3,1269.8,2501.7,1137.2,2501.7,1137.2z"/>
				<g>
					<path class="st7" d="M2493.8,1333.4l-88.6-163.1c-0.5-0.9-0.3-2,0.4-2.5l0,0c0.7-0.5,1.6-0.2,2.1,0.6l95.1,155.7
						c1.8,3,1.5,7-0.9,9l-2.2,1.9C2497.8,1336.6,2495.1,1335.9,2493.8,1333.4z"/>
				</g>
				<g>
					<path class="st7" d="M2172.5,1174l68.8-172.4c0.4-0.9,1.3-1.5,2.2-1.3l0,0c0.8,0.2,1.2,1.1,0.9,2l-59,172.7
						c-1.1,3.4-4.5,5.6-7.5,5.1l-2.9-0.5C2172.6,1179.2,2171.5,1176.6,2172.5,1174z"/>
				</g>
				<path class="st1" d="M2503.5,1280.9c0,0-25.5-9.8-31.4-4.9c-5.9,4.9-19.6,18.2-8.8,25.3c10.8,7.1,35.2-1.3,35.2-1.3
					L2503.5,1280.9z"/>
			</g>
			<g>
				<g>
					<path class="st7" d="M2168.2,1528.7l-83.8,65.4c-0.1,0.1-0.2,0.1-0.2,0.2l-60.3,47.1c-0.5,0.5-1.2,0.7-1.9,0.7l-2.4,0
						c-1.2,0-1.8-1.5-0.9-2.3l79.8-82.6l42.2-43.7L2168.2,1528.7z"/>
				</g>
				<path class="st9" d="M2168.2,1528.7l-83.8,65.4c16.4-12.8,14-37,14-37l42.2-43.7L2168.2,1528.7z"/>
				<g>
					<path class="st7" d="M2470.3,1642.1l-2.4,0c-0.7,0-1.4-0.3-1.9-0.7l-76.5-59.7c0,0,0,0,0,0l-67.9-53l27.7-15.2l33.1,34.3
						l88.9,92C2472,1640.6,2471.5,1642.1,2470.3,1642.1z"/>
				</g>
				<path class="st8" d="M2416,1412.1c0,38-15.5,72.5-40.6,97.5c-25,25-59.5,40.6-97.5,40.6h-70.4c-5.7,0-10.4-4.7-10.4-10.4v-262
					c0-5.7,4.7-10.4,10.4-10.4h63.7c78.4,0,142.8,63.3,144.6,141.3C2416,1409.9,2416,1411,2416,1412.1z"/>
				<g>
					<polygon class="st8" points="2218.3,1268.2 2206.8,1267.8 2206.9,1170.8 2207,1107.5 2207.1,1090.6 2211.4,1090.6 
						2212.1,1108.2 2214,1158 					"/>
				</g>
				<path class="st9" d="M2416,1412.1c0,38-15.5,72.5-40.6,97.5c-25,25-59.5,40.6-97.5,40.6h-70.4c-5.7,0-10.4-4.7-10.4-10.4v-74.2
					c45.4-38.9,87.6-76,87.6-76h11.8c0.6,0.6,48,55.4,119.3,19.1C2416,1409.9,2416,1411,2416,1412.1z"/>
				
					<ellipse transform="matrix(0.2594 -0.9658 0.9658 0.2594 266.658 3165.345)" class="st9" cx="2197.2" cy="1408.8" rx="141.4" ry="141.4"/>
				<path class="st7" d="M2334.1,1408.8c0,25.4-6.9,49.2-19,69.6c-23.8,40.3-67.7,67.3-117.9,67.3c-75.6,0-136.9-61.3-136.9-136.9
					c0-29.9,9.6-57.6,25.9-80.2c24.9-34.4,65.3-56.7,111-56.7C2272.8,1271.9,2334.1,1333.2,2334.1,1408.8z"/>
				<path class="st9" d="M2389.4,1581.7l-67.9-53l27.7-15.2l33.1,34.3C2382.1,1548.3,2377.6,1564.6,2389.4,1581.7z"/>
				<path class="st10" d="M2315.1,1478.4c-23.8,40.3-67.7,67.3-117.9,67.3c-75.6,0-136.9-61.3-136.9-136.9
					c0-29.9,9.6-57.6,25.9-80.2C2100,1382.8,2148.6,1493.5,2315.1,1478.4z"/>
				<path class="st9" d="M2214,1158C2214,1158,2214,1158,2214,1158c0,0-4.7,6-7.1,12.8l0.1-63.3c0.8-0.1,1.8-0.1,2.7,0
					c0.8,0.1,1.6,0.3,2.3,0.6L2214,1158z"/>
				<path class="st7" d="M2300.2,1131.8c-3,7.3-13.9,10.7-29.5,10.4c-19.8-0.4-47.3-6.7-76.1-18.4c-51.6-21-88-51.4-81.2-68
					c5.2-12.7,34.1-13.5,70.5-3.8c11.1,3,23,6.9,35.1,11.9C2270.6,1084.9,2306.9,1115.3,2300.2,1131.8z"/>
				<path class="st10" d="M2270.7,1142.2c-19.8-0.4-47.3-6.7-76.1-18.4c-51.6-21-88-51.4-81.2-68c5.2-12.7,34.1-13.5,70.5-3.8
					C2195.3,1073.5,2228.1,1128.4,2270.7,1142.2z"/>
			</g>
			<g>
				<path class="st7" d="M2730.3,1270.4v61.9c0,0.1,0,0.3,0,0.4c-0.2,6.3-5.4,11.4-11.8,11.4h-208.6c-6.3,0-11.6-5.1-11.8-11.4
					c0-0.1,0-0.3,0-0.4v-61.9c0-1,0.1-2,0.4-2.9c1.3-5.1,5.9-8.8,11.4-8.8h208.6c5.5,0,10.1,3.8,11.4,8.8
					C2730.2,1268.4,2730.3,1269.4,2730.3,1270.4z"/>
				<path class="st10" d="M2730.3,1298.2v34c0,0.1,0,0.3,0,0.4c-0.2,6.3-5.4,11.4-11.8,11.4h-208.6c-6.3,0-11.6-5.1-11.8-11.4
					c0-0.1,0-0.3,0-0.4v-61.9c0-1,0.1-2,0.4-2.9c1.3-5.1,5.9-8.8,11.4-8.8h54.8C2584,1271.5,2642.1,1303.9,2730.3,1298.2z"/>
				<path class="st9" d="M2730.3,1332.6c-0.2,6.3-5.4,11.4-11.8,11.4h-208.6c-6.3,0-11.6-5.1-11.8-11.4H2730.3z"/>
				<path class="st9" d="M2729.9,1267.4h-231.4c1.3-5.1,5.9-8.8,11.4-8.8h208.6C2724,1258.6,2728.6,1262.4,2729.9,1267.4z"/>
				<g>
					<polygon class="st9" points="2539.6,1332.6 2536.6,1332.6 2537.4,1267.4 2538.8,1267.4 					"/>
				</g>
				<g>
					<polygon class="st9" points="2694.2,1332.6 2691.3,1332.6 2692,1267.4 2693.4,1267.4 					"/>
				</g>
				<g>
					<polygon class="st9" points="2616.9,1332.6 2613.9,1332.6 2614.7,1267.4 2616.1,1267.4 					"/>
				</g>
				<g>
					<g>
						<polygon class="st7" points="2623.2,1344 2623,1360.8 2619.7,1565.7 2619.6,1570.8 2608.8,1570.8 2608.7,1566.2 
							2603.4,1373.4 2602.6,1344 						"/>
					</g>
					<g>
						<path class="st7" d="M2539.8,1642.1h-0.5c-1.1,0-1.6-1.3-0.9-2l71.1-74.8l5.6,5.5l-74.5,70.9
							C2540.4,1642,2540.1,1642.1,2539.8,1642.1z"/>
					</g>
					<g>
						<path class="st7" d="M2689,1642.1h0.5c1.1,0,1.6-1.3,0.9-2l-71.1-74.8l-5.6,5.5l74.5,70.9
							C2688.4,1642,2688.7,1642.1,2689,1642.1z"/>
					</g>
				</g>
				<path class="st9" d="M2623.2,1344l-0.3,16.7c-5.3,2.5-13.2,6.9-19.5,12.7l-0.8-29.4H2623.2z"/>
			</g>
		</g>
	</g>
	<g>
		<g>
			<path class="st11" d="M1545.4,946.1c0,0-17.8-37.4-60.8-15.2c-43,22.3-1.1,107.2-23.7,128.2c-22.6,21,8.2,34.7,3.6,49.8
				c-4.6,15,8.5,32.2,38.6,30.1c30.1-2,61.8-0.4,75.4-26.7c13.6-26.3,10.5-84.2,5.3-92.4C1578.4,1011.8,1545.4,946.1,1545.4,946.1z"
				/>
			<path class="st1" d="M1615.1,1145.8l-73.1-44.1c0.4-0.2,1.9-2.4,7.3-18.2c2.3-6.7,3.6-12.6,4.2-17.2c0.1-0.5,0.1-0.9,0.2-1.4
				c0.7-6.7,0.2-10.6,0.2-10.6l16,5.8l29.6,10.7c-0.3,7.5,0.7,12.8,2.3,16.4c3.9,8.8,11.1,8.9,11.3,8.9L1615.1,1145.8z"/>
			<path class="st13" d="M1601.8,1087.3c-28.6,2.4-44.7-16.2-48.3-21c-0.5-0.7-0.8-1.1-0.8-1.1s0.3-0.1,1-0.3
				c2.3-0.7,8.6-2.6,16.2-4.8l29.6,10.7C1599.1,1078.4,1600.2,1083.6,1601.8,1087.3z"/>
			<path class="st1" d="M1603.2,1077c0,0-63.6,7-64.9-36c-1.3-43-10.7-62.7,33.3-66.5c44-3.8,54.4,12,57,26.6
				C1636.7,1046.5,1621.1,1075.1,1603.2,1077z"/>
			<path class="st14" d="M1484.6,931c-0.9-2-1.5-3.3-1.5-3.3C1483.7,928.6,1484.2,929.7,1484.6,931z"/>
			<path class="st11" d="M1575,995.5c-22.5-5.7-13.9,34.2-19.6,31.4c-6.4-3.1-17.3-3-15.6,4.7c1.7,7.7,4.2,10.4,5.5,15.2
				c1.3,4.8,0,14.3-5.2,12.4c-5.2-1.9-53.9-57.5-19.5-100.8c34.4-43.3,136.8-16.6,104.6,28.7C1619.5,995,1591,999.5,1575,995.5z"/>
			<path class="st1" d="M1743.1,1105.5c0,0-0.8-18.7,4.9-25.1c5.7-6.4,13.3-7.5,15.5-1.9c7,17.4-5.7,32.2-5.7,32.2L1743.1,1105.5z"
				/>
			<path class="st1" d="M1599.3,1100.4c0,0,3.8,57.7,87.6,92.4c8.2,3.4,17.6,2.5,25-2.5c12.7-8.5,32.4-28.5,46-79.7
				c1.5-5.6-12.8-8.4-12.8-8.4c1.1,0.7-27.6,32.1-42.4,45.1c-2.7,2.3-7.5,1.5-10.2-0.8c-6.9-6.1-18.9-16.4-25.3-20.2
				C1657.9,1120.6,1606,1085.4,1599.3,1100.4z"/>
			<path class="st1" d="M1658.1,1613.9l-33.6,8.9c0,0-20.7-72-25.1-122c-0.7-7.6-1-14.7-0.8-20.9c1-28.6-59.9-148-18.3-175.1
				c28.6-18.7,70.2-3.1,70.2-3.1s5.8,151.7,5.8,180.2c0,3.9,0,9.1,0.1,15.3C1656.9,1536.6,1658.1,1613.9,1658.1,1613.9z"/>
			<path class="st1" d="M1594.2,1310.6c0,0-27.4,154.2-33.9,188.6c-0.5,2.8-0.9,4.8-1.2,5.9c-3.1,14.3-18.6,112.4-18.6,112.4
				l-33.5-1.8c0,0-10.1-72.1-8-123.8c0.5-12.7,1.8-24.1,4.1-33c11.8-45-15.4-156.4,27.6-182.5
				C1574,1250.3,1594.2,1310.6,1594.2,1310.6z"/>
			<path class="st15" d="M1599.3,1052c0-2.7,5.8-5,9.9-5s9.6,2.5,9.3,4.4c-0.6,4.4-5.2,8-9.3,8S1599.3,1056.1,1599.3,1052z"/>
			<path class="st1" d="M1508.4,1108c0,0-48.1,96-59.9,107.8c-11.8,11.8-53.3,49.7-67.7,60.4c0,0-44.2,12.6-43.2,17.8
				c1,5.2,30.8,4.2,34,5.5c3.3,1.3-6.5,9.5,1.6,9.2c5.4-0.2,10.7-9.7,13.8-16.3l0,0c0,0,75.2-36.8,86.3-42.7s44.5-47.8,50.4-65.5
				C1529.7,1166.7,1508.4,1108,1508.4,1108z"/>
			<path class="st7" d="M1682.5,1179.5c9-22.2,3.6-44.8,3.6-44.8c-31.1-35.1-50.7-38.4-57.3-38.3c-21.9-4.1-62.3-1.2-84.4,0.8
				c0-0.4,0-0.5,0-0.5s-35.5,2.8-45.6,14.5c0,0,0,0,0,0c-10.1,11.8-46,72.1-46,72.1s-1.7,14.7,14.6,30.7c5.8,5.7,14,11.6,25.3,17
				c3,1.5,5.9,2,8.6,1.8v0l-33.3,161.1c12.4,20.2,38.1,33.3,67.5,41.4c61.4,16.9,138.9,11.8,144.8,2.5
				c6.1-38.8-2.8-150.3-15.2-234.8C1673.7,1196.1,1679.1,1187.9,1682.5,1179.5z"/>
			<path class="st11" d="M1560.3,1499.2c-0.5,2.8-0.9,4.8-1.2,5.9c-3.1,14.3-18.6,112.4-18.6,112.4l-33.5-1.8c0,0-10.1-72.1-8-123.8
				C1507.9,1496.1,1525.7,1500.7,1560.3,1499.2z"/>
			<path class="st3" d="M1588.3,1642h-83.7c0,0-1.6-13.6,0.3-25.3c0.2-1.4,1-2.7,2.1-3.8c4.9,1.7,12.1,2.8,20.1,0
				c6.6-2.4,11.4-5.9,14.8-9.2c0.9,0.8,18.2,17.3,26.2,17.3C1576.3,1621,1588.8,1624.9,1588.3,1642z"/>
			<path class="st11" d="M1658.1,1613.9l-33.6,8.9c0,0-20.7-72-25.1-122c13.8,1,37.9,1.7,57-3.6
				C1656.9,1536.6,1658.1,1613.9,1658.1,1613.9z"/>
			<path class="st3" d="M1704.2,1642h-83.8c0,0-1.6-13.6,0.3-25.3c0.2-1.4,1-2.7,2.1-3.8c4.9,1.7,12.1,2.8,20.1,0
				c6.6-2.4,11.4-5.9,14.8-9.2c0.9,0.8,18.2,17.3,26.2,17.3C1692.1,1621,1704.6,1624.9,1704.2,1642z"/>
			<path class="st8" d="M1535.7,1435.4c-29.4-8.1-55.1-21.3-67.5-41.4l33.3-161.1C1501.4,1232.9,1574.6,1379.4,1535.7,1435.4z"/>
			<path class="st8" d="M1498.9,1111.2c0,0-6.6,83.8-31.4,102.8c-16.3-16-14.6-30.7-14.6-30.7S1488.7,1123.1,1498.9,1111.2
				C1498.8,1111.2,1498.9,1111.2,1498.9,1111.2z"/>
			<path class="st8" d="M1682.5,1179.5c-3.4,8.5-8.9,16.8-17.5,23.9c-2.1-7.4-6.2-24.4-0.9-27.4
				C1670.9,1172.1,1682.5,1179.5,1682.5,1179.5z"/>
		</g>
		<g>
			<g>
				<g>
					<path class="st7" d="M1842,1626.1c0.4,3.5-18.2,4.6-18.8,0.4l-61.9-487.8l-10.4-82.1h3.3l11.2,72.8L1842,1626.1z"/>
				</g>
				<path class="st9" d="M1765.4,1129.4c0,0-2.1,3.2-4.1,9.3l-10.4-82.1h3.3L1765.4,1129.4z"/>
				<g>
					<path class="st7" d="M1711.2,1034.1c-6.1-5.5-6.6-15-1.1-21.1c5.5-6.1,15-6.6,21.1-1.1c6.1,5.5,6.6,15,1.1,21.1
						C1726.7,1039.1,1717.3,1039.6,1711.2,1034.1z"/>
					<polygon class="st9" points="1805.7,1095.3 1803.1,1098.2 1788.7,1086.8 1792.9,1082.2 					"/>
					<polygon class="st8" points="1734.8,1014.8 1767.6,1047.6 1778.1,1058.1 1780.2,1060.1 1800.4,1080.4 1788.1,1094 
						1765.4,1076.5 1763,1074.7 1751.3,1065.7 1714.4,1037.4 					"/>
					<path class="st16" d="M1736,1014.9l-21.4,23.6c-0.6,0.7-1.6,0.7-2.3,0.1l0,0c-0.7-0.6-0.7-1.7-0.1-2.3l21.4-23.6
						c0.6-0.7,1.7-0.7,2.3-0.1l0,0C1736.5,1013.2,1736.6,1014.2,1736,1014.9z"/>
					<polygon class="st9" points="1780.2,1060.1 1800.4,1080.4 1788.1,1094 1765.4,1076.5 					"/>
				</g>
				<path class="st9" d="M1739.4,1056.6c0.4,0.3,5.5,19.7,29.5,22.6L1739.4,1056.6z"/>
			</g>
			<path class="st8" d="M1874.1,1642h-82c0.8-5.5,3.4-10.4,7.2-14.1c4.6-4.6,10.9-7.4,17.9-7.4h31.8
				C1861.7,1620.4,1872.3,1629.8,1874.1,1642z"/>
			<path class="st9" d="M1844.3,1642h-52.2c0.8-5.5,3.4-10.4,7.2-14.1c4.6-4.6,10.9-7.4,17.9-7.4h2
				C1831.9,1620.4,1842.5,1629.8,1844.3,1642z"/>
		</g>
	</g>
	<g>
		<path class="st2" d="M603.4,965.5c0,0-63.2-19.4-101.1,33c-37.9,52.4,23.7,111.3,31.9,127c8.2,15.7-14.4,45,12.5,63.8
			s14.1,33.3,33.9,41.1c19.8,7.8,29.3,5.5,56.3-17.9C664,1189.2,637.9,968.8,603.4,965.5z"/>
		<path class="st13" d="M764.8,1126.5c0,0,50.7,25.3,53.7,33.1c3,7.8-27.1,24.1-63.7,0.6C718.3,1136.7,764.8,1126.5,764.8,1126.5z"
			/>
		<path class="st1" d="M704.7,1150.1l-80.4-28.7c0.4-0.2,1.4-2.7,3.6-19.3c0.9-7.1,1-13,0.7-17.7c0-0.5-0.1-0.9-0.1-1.4
			c-0.6-6.8-1.9-10.5-1.9-10.5l16.8,2.5l31.2,4.6c1.2,7.4,3.2,12.4,5.5,15.6c5.5,7.9,12.6,6.5,12.8,6.5L704.7,1150.1z"/>
		<path class="st13" d="M680.1,1095.4c-27.6,8.1-47.1-7-51.5-10.9c-0.7-0.6-1-0.9-1-0.9s0.3-0.2,0.9-0.5c2.1-1.1,8-4.3,14.9-8
			l31.2,4.6C675.7,1087.2,677.8,1092.1,680.1,1095.4z"/>
		<path class="st1" d="M679.4,1085c0,0-60.9,19.5-70.8-22.4c-9.8-41.9-22.9-59.3,19.4-71.8c42.4-12.5,55.7,1,61.1,14.7
			C706.2,1048.5,696.6,1079.6,679.4,1085z"/>
		<path class="st14" d="M534.2,965.5c-1.3-1.8-2.1-2.9-2.1-2.9C532.9,963.3,533.6,964.3,534.2,965.5z"/>
		<path class="st2" d="M635.6,1010.7c-23.2-1.1-6.8,36.3-13,34.7c-6.8-1.7-17.5,0.5-14.3,7.7c3.2,7.2,6.2,9.4,8.4,13.8
			c2.2,4.4,2.8,14-2.7,13.2c-5.5-0.8-64.2-45.6-39.2-94.9c25.1-49.3,130.8-43.5,108.2,7.3C679.1,1001.5,652.1,1011.5,635.6,1010.7z"
			/>
		<path class="st1" d="M835,1608.1l-31.7,14.4c0,0-32.3-67.6-44.9-116.2c-1.9-7.4-3.4-14.3-4.2-20.5c-3.8-28.4-83.5-136-46.9-169.7
			c25.1-23.1,68.7-14.7,68.7-14.7s30.8,148.6,35.5,176.7c0.6,3.8,1.5,9,2.6,15.1C821,1532.1,835,1608.1,835,1608.1z"/>
		<path class="st1" d="M732.3,1311.4c0,0-27.4,154.2-33.9,188.6c-0.5,2.8-0.9,4.8-1.2,5.9c-3.1,14.3-18.6,112.4-18.6,112.4
			l-33.5-1.8c0,0-10.1-72.1-8-123.8c0.5-12.7,1.8-24.1,4.1-33c11.8-45-15.4-156.4,27.6-182.5C712,1251.1,732.3,1311.4,732.3,1311.4z
			"/>
		<path class="st11" d="M818.2,1390.1c-4,10.3-70.3,64-133.8,59.6c-18.8-1.3-36.6-4.8-51.2-11.3c-9.1-4.1-17-9.3-23.2-15.9
			l22.6-139.1c1.6-9.7-4.6-33.6-11-44.7c-0.8-1.4-1.6-2.6-2.4-3.5l-21.9-47.8l13.7-66.3c0,0,5.7-1.9,14.6-4.6
			c8.6,8.2,28.7,18,54.6,16c24.7-2,15.3-18.4,7.7-31.4c13.7-2.3,25.7-3.1,32.1-0.8c9.4,3.4,28.7,50.3,32.5,129.1
			C753.4,1249,816.6,1353.5,818.2,1390.1z"/>
		<path class="st7" d="M698.3,1500c-0.5,2.8-0.9,4.8-1.2,5.9c-3.1,14.3-18.6,112.4-18.6,112.4l-33.5-1.8c0,0-10.1-72.1-8-123.8
			C646,1496.8,663.7,1501.4,698.3,1500z"/>
		<path class="st17" d="M633.2,1438.5c-9.1-4.1-17-9.3-23.2-15.9l22.6-139.1c1.6-9.7-4.6-33.6-11-44.7c5.4-2.4,10.9-3.3,16.5-2.4
			C638.1,1236.3,740.8,1373.3,633.2,1438.5z"/>
		<path class="st3" d="M726.3,1642.8h-83.7c0,0-1.6-13.6,0.3-25.3c0.2-1.4,1-2.7,2.1-3.8c4.9,1.7,12.1,2.8,20.1,0
			c6.6-2.4,11.4-5.9,14.8-9.2c0.9,0.8,18.2,17.3,26.2,17.3C714.3,1621.7,726.8,1625.7,726.3,1642.8z"/>
		<path class="st7" d="M835,1608.1l-31.7,14.4c0,0-32.3-67.6-44.9-116.2c13.8-1.3,37.7-4.5,55.7-13
			C821,1532.1,835,1608.1,835,1608.1z"/>
		<path class="st3" d="M885.1,1628.3l-82.6,13.8c0,0-3.8-13.2-3.9-25c0-1.4,0.5-2.8,1.4-4.1c5.1,0.8,12.4,0.8,19.8-3.4
			c6.1-3.4,10.3-7.8,13.1-11.5c1,0.7,20.8,14.1,28.7,12.8C869.7,1609.5,882.7,1611.3,885.1,1628.3z"/>
		<path class="st1" d="M580.6,1194.5c0,0,38.9,69.8,92.9,77.3l9.2-22.2c0,0-50.5-60.4-58.2-64C616.7,1182,581.3,1186,580.6,1194.5z"
			/>
		<path class="st11" d="M611.1,1121.1c0,0-67.2,21.4-27.9,86.6c0,0,35.8,13.4,65.4-8.2C673.5,1181.4,611.1,1121.1,611.1,1121.1z"/>
		<path class="st11" d="M720,1100.4c0,0,40.3,23.8,44.8,26.2c0,0,0.2,53.6-27.3,59.9C710,1192.7,720,1100.4,720,1100.4z"/>
		<path class="st1" d="M673.5,1271.8c0,0,46.5-26.4,64.7-52.1l-7.4-7.1c0,0-65.3,15.1-71.7,25.1
			C652.6,1247.7,673.5,1271.8,673.5,1271.8z"/>
		<path class="st1" d="M750.1,1136.8c0,0,62.4,9.7,68.4,22.9c6,13.1-14.1,25.6-53.9-4.4L750.1,1136.8z"/>
		<g>
			<path class="st8" d="M689,1060.3c0.7,3.3-1.5,6.5-4.7,7.1c-3.3,0.7-6.5-1.5-7.1-4.7s1.5-6.5,4.7-7.1
				C685.1,1054.9,688.3,1057,689,1060.3z"/>
			<g>
				<path class="st7" d="M863.1,1169.7c3.3,16.5,5.3,54.1-7,77.5l0,0c-2.2,4.1-4.8,7.9-8,10.9c-29.1,28.3-70.2,11.2-89.8-22.8
					c0,0,0,0,0,0c-0.2-0.3-0.4-0.6-0.5-1c-2.6-4.7-4.9-9.8-6.6-15c-8.9-27-13.8-62.4-16.8-89.4c-2.6-23.1-7.6-40-9.5-46.4
					c-5.6-18.4-27.7-19.8-39.5-18.6c-0.1,0-0.2,0-0.2,0c-3.7,2-5-1.8-5-1.8c-0.4-2.1,1-4.2,3.1-4.5c4.4-0.7,12-1.5,20.2-1.1
					c23.2,1.1,32.4,11.4,36,19.8c3.1,7.2,10.4,22.5,16.7,46.4c6.9,26.1,9.7,40.6,24.3,67.7c7.3,13.6,13,16.5,16.2,13.3
					c2.8-2.7,3.8-9.9,2.7-18.8c-0.2-1.6-0.5-3.3-0.8-5C795,1165,860.8,1158.3,863.1,1169.7z"/>
			</g>
			<path class="st8" d="M856.9,1221.7c-20.7,7.4-60.4-17-60.4-17s0,0,0,0c2.8-2.7,3.8-9.9,2.7-18.8
				C809.1,1185.6,870.8,1216.8,856.9,1221.7z"/>
			<g>
				<path class="st7" d="M868.8,1148.4c19.2,21.7,21,51.4,4.1,66.4c-16.9,15-46.2,9.5-65.4-12.2c-19.2-21.7-21-51.4-4.1-66.4
					C820.3,1121.2,849.6,1126.7,868.8,1148.4z"/>
				<path class="st8" d="M867.2,1193.4c0,0.1,0,0.1-0.1,0.2c-1.3,2.6-3.1,5-5.3,7c-11.8,10.4-32.1,6.6-45.4-8.5
					c-2.3-2.6-4.2-5.4-5.8-8.2c-1.1-2-2-4.1-2.8-6.2c-4.4-12-2.5-24.4,5.8-31.8c11.8-10.4,32.1-6.6,45.4,8.5
					C869.7,1166.6,872.6,1182.4,867.2,1193.4z"/>
				<path class="st18" d="M867.2,1193.4c0,0.1,0,0.1-0.1,0.2c-1.3,2.6-3.1,5-5.3,7c-11.8,10.4-32.1,6.6-45.4-8.5
					c-2.3-2.6-4.2-5.4-5.8-8.2c-1.1-2-2-4.1-2.8-6.2c1.2-2,2.7-3.7,4.4-5.3c12.2-10.8,33.3-6.8,47.2,8.8
					C862.7,1185.1,865.4,1189.2,867.2,1193.4z"/>
			</g>
			<path class="st8" d="M757.7,1234.3c-2.6-4.7-4.9-9.8-6.6-15c-8.9-27-13.8-62.4-16.8-89.4c-2.6-23.1-7.6-40-9.5-46.4
				c-5.6-18.4-27.7-19.8-39.5-18.6c10.2-1.3,33.8-2.6,42.4,10.5C738.5,1091.8,749.7,1217.8,757.7,1234.3z"/>
			<path class="st8" d="M856.1,1247.1c-2.2,4.1-4.8,7.9-8,10.9c-29.1,28.3-70.2,11.2-89.8-22.8
				C766.4,1246.9,814.5,1280.6,856.1,1247.1z"/>
		</g>
		<path class="st1" d="M731.1,1209.7c0,0,13.2-34.4,21.8-24.6c6.5,7.4,7.5,25.6-12,33.9C721.3,1227.3,731.1,1209.7,731.1,1209.7z"/>
		<path class="st1" d="M765.4,1139.6c0,0-10.8-15.4-18-15.9c-7.1-0.6-11.1-0.3-13.1,6.2c-2,6.5,15.9,9.3,16.9,12.6
			c1,3.3-11.1,0.7-8.6,4.9c2.4,4.2,9.4,4.6,13.8,4.2c4.4-0.4,8.2,3.8,8.2,3.8L765.4,1139.6z"/>
		<path class="st1" d="M727.7,1213.2c0,0,4.6-5,2.9-7.3c-1.7-2.3,1.4-13.8,3-16.1c1.6-2.3,0.8,6.8,2.5,8
			C737.7,1198.9,738.9,1213.9,727.7,1213.2z"/>
	</g>
	<path class="st19" d="M1349.4,780.7l-2.4-0.1l-17.4,67.8c0,0-24.6-7.3-26.1,6.3c-1.5,13.7,19.1,12.7,26,10.3
		c6.9-2.4,7.5-14.8,7.5-14.8l9.7-54.5c2.1,5,7.3,9.7,19.8,12.7c1.4,0.3,3,0.6,4.6,0.9C1348,805.9,1349.3,781.5,1349.4,780.7z"/>
	<g>
		<path class="st7" d="M1127.3,668c0,0-32.2,2.5-27.8,19.2s28.1,6.3,35.2,0.4c7.1-6,2.1-20.8,2.1-20.8l-4.8,0.6L1127.3,668z"/>
		<path class="st7" d="M1120.1,579.5l-2.9,0.9l10.2,87.5l9.5-1.3l-13.2-68.5c4.7,5,13,8.1,29,6c1.8-0.2,3.8-0.6,5.7-1
			C1129.9,609.7,1120.4,580.4,1120.1,579.5z"/>
	</g>
	<g>
		<path class="st7" d="M1723.3,724.5c0,0-50.5-9.9-50.9,17.6c-0.3,27.6,40.5,21.7,53.9,15.6c13.4-6.1,12.1-31.1,12.1-31.1l-7.6-1.1
			L1723.3,724.5z"/>
		<path class="st7" d="M1749.8,585.5l-4.9,0.2l-21.7,138.8l15.1,2.1l8.9-110.9c5.1,9.6,16.5,18,42.1,21.6c2.9,0.4,6,0.7,9.3,0.8
			C1752,636.1,1749.9,587,1749.8,585.5z"/>
	</g>
	<path class="st7" d="M834,767.9c1.4,0.7,26.5,2,49.6-23l35.3,59.9c0,0,4.9,21.4-17.1,24.5c-12.2,1.7-13.4-8.5-8.4-16.3
		c4-6.3,13.4-10.4,13.4-10.4l-20.6-34.9c0,0-15.8,17.2-34.8,17l18.9,37.5c0,0,8.4,20.2-11.4,25.7c-19.9,5.5-13.6-20.6,2.8-22.2
		L834,767.9z"/>
	<path class="st20" d="M443.5,1637.2c-4.2-6.7-17-23.9-34-21.6c-18.5,2.5,20.4,14.7,32.3,21.7c-2.6,0-4.9-0.2-6.6-0.8
		c-8-2.8-21.6,2.6-26,4.5h75.9c-0.5-1.8-1.9-4.8-5.4-6.9c-1.2-0.8-3.7-0.9-7-0.6c4.5-5.3,7.6-22.3-4.9-17.9
		c-9.2,3.2-9.1,13.6-8.2,19.7c-2,0.3-3.9,0.6-5.9,0.9c-3.8-19.2-17.1-75.7-44.2-77.2c-27.4-1.5,23.3,58.5,40.2,77.7
		C447.5,1636.9,445.4,1637.1,443.5,1637.2z"/>
	<path class="st20" d="M2837.3,1641h-83.7c-4.5-3.8,3.1-12.4,11-13c3.4-0.3,7.8,0.5,12.8,1.5c1.2-15.3,7.7-84.1,32.5-81.3
		c27.9,3.1,0,30.3-7.9,46.4c-5.8,11.9-12,29-14.8,37.1c2.3,0.5,4.6,1,7,1.4c3.7-11.3,17.4-49.5,34.9-47.3c20.5,2.6,12.3,17.9-2.3,27
		c-10.7,6.7-23.8,16.2-30,20.8c5.3,0.9,10.8,1.4,16.4,1.3C2827.6,1634.5,2834.6,1638.7,2837.3,1641z"/>
</g>
</svg>
