<?xml version="1.0" encoding="utf-8"?>
<!-- Generator: Adobe Illustrator 22.0.0, SVG Export Plug-In . SVG Version: 6.00 Build 0)  -->
<svg version="1.1" id="_x3C_Layer_x3E_" xmlns="http://www.w3.org/2000/svg" xmlns:xlink="http://www.w3.org/1999/xlink" x="0px"
	 y="0px" viewBox="0 0 3006 1670" style="enable-background:new 0 0 3006 1670;" xml:space="preserve">
<style type="text/css">
	.st0{opacity:0.2;fill:#E6E6E6;}
	.st1{fill:url(#SVGID_1_);}
	.st2{fill:#64893D;}
	.st3{fill:#C6C881;}
	.st4{fill:#739C3F;}
	.st5{fill:#638139;}
	.st6{fill:#7C9D4C;}
	.st7{fill:#77A048;}
	.st8{fill:url(#SVGID_2_);}
	.st9{fill:url(#SVGID_3_);}
	.st10{fill:url(#SVGID_4_);}
	.st11{fill:url(#SVGID_5_);}
	.st12{fill:url(#SVGID_6_);}
	.st13{fill:#CFC2BC;}
	.st14{fill:#F8E9E2;}
	.st15{fill:#E6D8D1;}
	.st16{fill:#393D3F;}
	.st17{fill:#4B4F7B;}
	.st18{fill:#C7977B;}
	.st19{fill:#CFC4BD;}
	.st20{fill:#DBA686;}
	.st21{fill:#F4DDBE;}
	.st22{fill:#E9EBFD;}
	.st23{fill:#82A2F1;}
	.st24{fill:#C2B7B1;}
	.st25{fill:#DBA585;}
	.st26{fill:#263643;}
	.st27{fill:#363957;}
	.st28{fill:#88BB7F;}
	.st29{fill:#53739C;}
	.st30{fill:#2E3048;}
	.st31{fill:#DFD2CA;}
	.st32{fill:#222333;}
</style>
<path class="st0" d="M86.2,0c-3.5,13.9-6.7,27.8-9.9,41.7C50,66.6,24.6,92.1,0,118v2.4c24.9-26.3,50.7-52.1,77.5-77.5l0.4-0.3
	l0.1-0.5C81.1,28,84.5,14,87.9,0H86.2z"/>
<linearGradient id="SVGID_1_" gradientUnits="userSpaceOnUse" x1="2087.5" y1="1670" x2="2087.5" y2="167.0004">
	<stop  offset="0" style="stop-color:#E59148"/>
	<stop  offset="1" style="stop-color:#F1CC52"/>
</linearGradient>
<path class="st1" d="M1254.8,1670c-58.7-55.5-132.9-186.9-46.3-341.7c72.1-128.8,315-186.8,453.8-313.1
	c138.8-126.2,78.3-375.3,73-434.3c-5.3-58.9-46.3-274.4,190.4-377c236.7-102.7,414.7,33.7,601.5,106
	c186.9,72.4,368.4,21.9,478.7-67.3V1670H1254.8z"/>
<g>
	<g>
		<path class="st2" d="M1821.1,1025.5c0,0-144.3-176.4-202.1-256.6c-57.7-80.2,121.1,375.1,135.9,423.3
			C1769.8,1240.4,1830.7,1282.1,1821.1,1025.5z"/>
		<path class="st3" d="M1796.7,1136.8c-34-61.9-370.1-393.6-370.1-393.6c3.2,102.6,211.7,346.4,211.7,346.4
			S1830.7,1198.7,1796.7,1136.8z"/>
		<path class="st4" d="M1959,1291.1c-388.1-143-753.7-68.7-753.7-68.7c53.5,73.4,561.3,68.7,561.3,68.7H1959z"/>
		<path class="st5" d="M1877.5,1303.7c-197.2-214.8-662.2-318.3-662.2-318.3c137.4,140.3,334.6,263.3,334.6,263.3
			S2074.8,1518.5,1877.5,1303.7z"/>
		<path class="st6" d="M1917.3,1280.2c-115.5-213.6-555.1-424.7-555.1-424.7c0,67.4,356.2,380.7,356.2,380.7
			S2032.8,1493.8,1917.3,1280.2z"/>
		<path class="st7" d="M1905,1265c7.8-32.9,9-67,4.5-100.5c-15.3-114.3-68.4-468-146.2-521.6c0,0-35.2,458.4,38.5,612.5
			C1857.1,1371.1,1890.1,1328.3,1905,1265z"/>
	</g>
	<g>
		
			<linearGradient id="SVGID_2_" gradientUnits="userSpaceOnUse" x1="4057.262" y1="-438.3494" x2="4559.0503" y2="-438.3494" gradientTransform="matrix(0.8437 0.2989 -0.2323 0.6557 -1599.1637 -17.0682)">
			<stop  offset="0" style="stop-color:#4D759D"/>
			<stop  offset="1" style="stop-color:#769A42"/>
		</linearGradient>
		<path class="st8" d="M2057.8,1377.3c0,0,64.1-28.1,82.4-89.4c18.3-61.3,30.1-145.8,79.7-167.5c49.7-21.7,154.1-79.6,157.3-152.3
			c3.2-72.7-153.7-159.2-117.5-177.2c36.2-18,101.5-66.1,37.4-105.6C2233,646,2198.9,639,2182,585.8c-16.9-53.3-78.8-80.6-92.6,0.3
			c-13.8,81-52.2,99.4-43.9,167c8.2,67.6,47,131.2-61.4,146.1c-108.4,14.9-69.1,88.2-45,141.6c24,53.4,29.8,263.9,37,300.5
			C1983.2,1377.9,2013.5,1401.9,2057.8,1377.3z"/>
		
			<linearGradient id="SVGID_3_" gradientUnits="userSpaceOnUse" x1="4240.459" y1="-311.1377" x2="5035.6851" y2="-311.1377" gradientTransform="matrix(0.8437 0.2989 -0.2323 0.6557 -1599.1637 -17.0682)">
			<stop  offset="0" style="stop-color:#4D759D"/>
			<stop  offset="1" style="stop-color:#769A42"/>
		</linearGradient>
		<path class="st9" d="M2030.4,1414c0,0,147.2-55.3,193-45.2c45.8,10.1,130.8,34.4,164.5-3.9c33.6-38.3,60.9-167.6,168.7-153
			s147.5-11,141.4-75.4c-6.1-64.4,168.7-161.6,137.2-197.1c-31.4-35.5-269.5,29.3-340.2,54c-70.8,24.6-139.2-32-178.4,36.6
			c-39.2,68.6-169.9,127.1-213.3,115.2c-43.4-11.9-78.5-18-89.2,47.1c-10.7,65.1-54.7,105-66.4,145.5
			C1936.1,1378.3,1920.7,1407.5,2030.4,1414z"/>
		
			<linearGradient id="SVGID_4_" gradientUnits="userSpaceOnUse" x1="3831.4575" y1="-303.0775" x2="4340.7275" y2="-303.0775" gradientTransform="matrix(0.8437 0.2989 -0.2323 0.6557 -1599.1637 -17.0682)">
			<stop  offset="0" style="stop-color:#4D759D"/>
			<stop  offset="1" style="stop-color:#769A42"/>
		</linearGradient>
		<path class="st10" d="M1922.6,663c-5.2-39.8-73.8-58.4-84.6-8.5c-10.8,49.9,14.2,116.1-80.1,174.1c-94.3,58,49.6,126.9,84.8,196.7
			c35.2,69.8,28.8,146.4,58.1,206.9c29.3,60.5,22.2,178.1,73.2,151.4c51-26.7,34.6-90.8,64.1-161c29.5-70.2,127.6-86.5,61.9-161.7
			c-65.7-75.2-143.2-118.6-79.2-213.2C2049,806.1,1938.7,787,1922.6,663z"/>
		
			<linearGradient id="SVGID_5_" gradientUnits="userSpaceOnUse" x1="2724.1033" y1="2859.3105" x2="2812.2432" y2="2355.1489" gradientTransform="matrix(0.8728 6.280000e-02 6.280000e-02 0.7179 -320.5223 -707.6909)">
			<stop  offset="0" style="stop-color:#4D759D"/>
			<stop  offset="1" style="stop-color:#769A42"/>
		</linearGradient>
		<path class="st11" d="M1941.1,1373.9c0,0,50.9-47.5,25.1-149.8c-25.8-102.3-75-105.4,80.5-122c155.5-16.6,94.5-264,216.7-249.4
			c122.2,14.6,335.6-275.2,407-203.4c71.4,71.8-99.7,190.4-55.2,259.9c44.5,69.5,31.2,133.2-113.3,137.4
			c-144.5,4.2,6.1,269-186.3,265.4C2123.3,1308.4,2093,1550.6,1941.1,1373.9z"/>
	</g>
	<linearGradient id="SVGID_6_" gradientUnits="userSpaceOnUse" x1="2033.0845" y1="1658.7574" x2="2033.0845" y2="965.9703">
		<stop  offset="0.2409" style="stop-color:#E7E1D6"/>
		<stop  offset="0.2567" style="stop-color:#E3DED4"/>
		<stop  offset="1" style="stop-color:#DABDA5"/>
	</linearGradient>
	<path class="st12" d="M1396.5,1283.9c11-0.9,263.5-19.1,315.9,14.3c52.5,33.5,314.5-22.3,356.2-8.9
		c41.7,13.4,655.3-35.5,685.3,46.6c30,82.1-21.5,124.4-240.8,143.8s-236.6,141.5-541.8,97C1615,1524.8,1091,1310.1,1396.5,1283.9z"
		/>
	<g>
		<g>
			<g>
				<g>
					<g>
						<g>
							<g>
								<g>
									<polygon class="st13" points="2206.4,1230.2 2239.2,1188.7 2242.8,1189.6 2209,1232.2 									"/>
								</g>
							</g>
						</g>
					</g>
				</g>
			</g>
		</g>
		<g>
			<g>
				<g>
					<g>
						<g>
							<g>
								<g>
									<rect x="2210.6" y="1182.7" class="st14" width="61.6" height="7.1"/>
								</g>
							</g>
						</g>
					</g>
				</g>
			</g>
		</g>
		<g>
			<path class="st15" d="M2508.6,1357.7c-94.5,0-171.5-76.9-171.5-171.5c0-94.5,76.9-171.5,171.5-171.5
				c94.5,0,171.5,76.9,171.5,171.5C2680,1280.8,2603.1,1357.7,2508.6,1357.7z M2508.6,1062.4c-68.3,0-123.9,55.6-123.9,123.9
				c0,68.3,55.6,123.9,123.9,123.9s123.9-55.6,123.9-123.9C2632.4,1118,2576.9,1062.4,2508.6,1062.4z"/>
		</g>
		<g>
			<path class="st16" d="M2508.6,1373c-103,0-186.8-83.8-186.8-186.8c0-103,83.8-186.8,186.8-186.8c103,0,186.8,83.8,186.8,186.8
				C2695.3,1289.2,2611.6,1373,2508.6,1373z M2508.6,1036.5c-82.6,0-149.7,67.2-149.7,149.7S2426,1336,2508.6,1336
				c82.6,0,149.7-67.2,149.7-149.7S2591.1,1036.5,2508.6,1036.5z"/>
		</g>
		<g>
			<path class="st15" d="M1964.4,1357.7c-94.5,0-171.5-76.9-171.5-171.5c0-94.5,76.9-171.5,171.5-171.5
				c94.5,0,171.5,76.9,171.5,171.5C2135.9,1280.8,2058.9,1357.7,1964.4,1357.7z M1964.4,1062.4c-68.3,0-123.9,55.6-123.9,123.9
				c0,68.3,55.6,123.9,123.9,123.9c68.3,0,123.9-55.6,123.9-123.9C2088.3,1118,2032.7,1062.4,1964.4,1062.4z"/>
		</g>
		<g>
			<path class="st16" d="M1964.4,1373c-103,0-186.7-83.8-186.7-186.8c0-103,83.8-186.8,186.7-186.8c103,0,186.8,83.8,186.8,186.8
				C2151.2,1289.2,2067.4,1373,1964.4,1373z M1964.4,1036.5c-82.6,0-149.7,67.2-149.7,149.7s67.2,149.7,149.7,149.7
				c82.6,0,149.7-67.2,149.7-149.7S2047,1036.5,1964.4,1036.5z"/>
		</g>
		<path class="st17" d="M2211.6,547.5l-42.5,135.7L2136,788.8c0,0-72.6,5.8-60.7-46c5.7-24.6,14.2-49.3,24-72.4
			c25-59.3,57.9-108.3,71.3-119.8C2189.3,534.7,2211.6,547.5,2211.6,547.5z"/>
		<path class="st15" d="M2169.1,683.1L2136,788.8c0,0-75.3,5.5-63.3-46.3c5.7-24.6,16.4-49.1,26.6-72.2L2169.1,683.1z"/>
		<g>
			<g>
				<g>
					<g>
						<g>
							<g>
								<g>
									<g>
										<path class="st18" d="M2416.8,830.1c0,0,14.2,1,16.4,1.3c2.2,0.2,6.5,3.9,11.2,8.5c4.6,4.6,8.4,13,8.1,14.1
											c-0.3,1.1-0.1,2.3-2.5,4.3c-2.4,2-5.6,2.5-5.6,2.5s-1.8,3.7-5.7,4.1c0,0-1.9,3.4-6.4,3.2c0,0-1.9,3.3-5.1,2.9
											c0,0-4.4-3.7-6.5-4.6c-2.1-0.9-10.6-9.1-17.4-18.3C2403.2,848,2400.1,837.1,2416.8,830.1z"/>
									</g>
								</g>
							</g>
						</g>
					</g>
				</g>
			</g>
		</g>
		<g>
			<g>
				<g>
					<g>
						<g>
							<g>
								<g>
									<path class="st19" d="M2485.4,930.3l-5.8-7.2c0.4-0.3,29-24,30.7-49.4c0.6-9.6-2.6-18-9.9-25.7
										c-7.8-8.3-16.9-12.6-26.9-12.7c-23.5-0.2-45.4,21.8-45.7,22l-0.2,0.2l-27.5,25l-6.2-6.8l27.4-25c2-2,25.1-24.7,51.7-24.7
										c0.2,0,0.3,0,0.5,0c12.7,0.1,24,5.4,33.6,15.6c9,9.6,13.2,20.6,12.4,32.7C2517.6,903.9,2486.7,929.3,2485.4,930.3z
										 M2482.5,926.7l-2.9-3.6c0,0,0,0,0,0L2482.5,926.7z"/>
								</g>
							</g>
						</g>
					</g>
				</g>
			</g>
		</g>
		<g>
			<g>
				<g>
					<g>
						<g>
							<g>
								<g>
									<path class="st20" d="M2226.9,818.5c0,0,69.1,48.7,84.4,62.5c15.3,13.8,51.1,46.3,51.7,51.8c0.6,5.5,4.7,14.1-11.2,39.6
										c-15.9,25.4-45.1,73-49.4,81.5c-9,17.9-47.3,84.1-47.3,84.1l-20.7-4c0,0,24-88.3,46.8-144.6c6-14.9,21.2-35.4,16.6-41.9
										c-4.6-6.4-58.7-20.1-161.5-76.8c-10.3-5.7-18.2,6.4-16.7-8.6c1.5-15,0.6-68.3,31.2-79.6
										C2181.5,771,2226.9,818.5,2226.9,818.5z"/>
								</g>
							</g>
						</g>
					</g>
				</g>
			</g>
		</g>
		<g>
			<g>
				<g>
					<g>
						<g>
							<path class="st20" d="M2235.1,1131.5c0,0-5,14.7-4.7,19c0.3,4.3,21.8-4.1,21.8-4.1s1.6-5.6,3.3-9.2
								C2255.5,1137.3,2247.7,1127.2,2235.1,1131.5z"/>
						</g>
					</g>
				</g>
			</g>
		</g>
		<g>
			<g>
				<g>
					<g>
						<g>
							<g>
								<path class="st21" d="M2253.5,1143.3c0,0,14.2,12.3,22.8,12.6c8.6,0.4,34.3,5.9,35.6,10.4c1.3,4.5,10.4,15.8-38.4,16.6
									c-48.2,0.8-52.4-0.4-51.3-9.2c1.1-8.8,4.6-20.9,6.4-29.5L2253.5,1143.3z"/>
							</g>
						</g>
					</g>
				</g>
			</g>
		</g>
		<g>
			<g>
				<g>
					<g>
						<g>
							<g>
								<g>
									<g>
										<path class="st18" d="M2448.5,854.9c0,0-11.3-10.8-13.6-9.2c-2.3,1.6-2.1,3.4-2.1,3.4l-7-2.4c0,0-5.8,0.9-3.4,6.4
											c0,0-5.5,0.4-2.5,5.4c0,0-3.6,1.7-2.7,4.3c0.9,2.6,8.5,9.2,8.5,9.2s2.4,0.7,4.9-2.7c0,0,4,0.4,6-3c0,0,3.3-0.1,5.4-3.8
											c0,0,7.4-0.8,7.7-6.5C2449.6,856.1,2449,855.4,2448.5,854.9z"/>
									</g>
								</g>
							</g>
						</g>
					</g>
				</g>
			</g>
		</g>
		<g>
			<g>
				<g>
					<g>
						<g>
							<g>
								<g>
									
										<rect x="2158.7" y="905.1" transform="matrix(0.965 -0.2622 0.2622 0.965 -205.4232 604.6857)" class="st15" width="9.2" height="334.1"/>
								</g>
							</g>
						</g>
					</g>
				</g>
			</g>
		</g>
		<g>
			<g>
				<g>
					<g>
						<g>
							<g>
								<g>
									<path class="st15" d="M2057.6,881c0,0-2,29.4,25.4,32.6c27.4,3.2,76.6,0,76.6,0S2089.5,864.9,2057.6,881z"/>
								</g>
							</g>
						</g>
					</g>
				</g>
			</g>
		</g>
		<g>
			<g>
				<g>
					<g>
						<g>
							<g>
								<path class="st18" d="M2308.9,628.3c0,0,29.9,87.7,35.1,97.4c5.1,9.7,72.9,104.4,72.9,104.4l-13.6,17.9
									c0,0-83-99.5-86-104.9c-3-5.4-42.4-102.3-42.4-102.3L2308.9,628.3z"/>
							</g>
						</g>
					</g>
				</g>
			</g>
		</g>
		<g>
			<g>
				<g>
					<g>
						<g>
							<g>
								<path class="st20" d="M2255.2,410.2c0,0,50.9,20.8,39.1,88.3c-11.7,67.5-58.4,70.3-81.5,14.5
									C2189.6,457.2,2197.2,398.6,2255.2,410.2z"/>
							</g>
						</g>
					</g>
				</g>
			</g>
		</g>
		<g>
			<g>
				<g>
					<g>
						<g>
							<g>
								<path class="st22" d="M2258.5,568.3c0,0,34.4,21,40.6,30.3c13.6,20.4,11,43.8,10.8,50.1c-0.5,20.8-15.1,39.7-20.6,48.3
									c-3.3,5.1-11.5,34.2-22.7,46.6c-11.4,12.7-38,60.4-38,60.4s-64.8,21.3-92-42.4c0,0,22.1-46.3,26.1-69
									c12-68.9,17.3-79.7,22.2-89.2c9.2-17.7,27.2-32.8,31.4-36.5C2220.4,563.3,2258.5,568.3,2258.5,568.3z"/>
							</g>
						</g>
					</g>
				</g>
			</g>
		</g>
		<g>
			<g>
				<g>
					<g>
						<g>
							<g>
								<path class="st20" d="M2195.5,593.3c8-6.9,36.5-8.9,45.4,28.7c8.9,37.6,37.2,113.2,42,120.1
									c4.9,6.9,104.3,105.8,104.3,105.8l-14.6,14.3c0,0-110-75.3-115.7-85.8c-5.7-10.5-65.8-120.4-66.2-127.6
									C2190.3,641.4,2175.3,610.7,2195.5,593.3z"/>
							</g>
						</g>
					</g>
				</g>
			</g>
		</g>
		<g>
			<g>
				<g>
					<g>
						<g>
							<g>
								<path class="st22" d="M2258.5,568.3c0,0,48.8,17.9,57,66l-19.6,7.7C2295.9,642,2226,570.8,2258.5,568.3z"/>
							</g>
						</g>
					</g>
				</g>
			</g>
		</g>
		<g>
			<g>
				<g>
					<g>
						<g>
							<g>
								<path class="st20" d="M2251.1,549.2c0,0-0.6,13.5,1.6,17.1l5.8,2c0,0,16.2,31.4-1.9,34.7c-18.1,3.3-36.2-14-40.3-36.1
									c0,0,4.2-29.3,1.5-40.8C2215.1,514.5,2251.1,549.2,2251.1,549.2z"/>
							</g>
						</g>
					</g>
				</g>
			</g>
		</g>
		<g>
			<g>
				<g>
					<g>
						<g>
							<g>
								<g>
									<path class="st15" d="M2493.6,941.3l-5.8-7.2c0.4-0.3,29-24,30.7-49.4c0.6-9.6-2.6-18-9.9-25.7
										c-7.8-8.3-16.9-12.6-26.9-12.7c-23.5-0.2-45.4,21.8-45.7,22l-0.2,0.2l-27.5,25l-6.2-6.8l27.4-25c2-2,25.1-24.7,51.8-24.7
										c0.2,0,0.3,0,0.5,0c12.7,0.1,24,5.4,33.6,15.6c9,9.6,13.2,20.6,12.4,32.7C2525.8,914.9,2494.9,940.3,2493.6,941.3z
										 M2490.7,937.8l-2.9-3.6c0,0,0,0,0,0L2490.7,937.8z"/>
								</g>
							</g>
						</g>
					</g>
				</g>
			</g>
		</g>
		<g>
			<g>
				<g>
					<g>
						<g>
							<g>
								<g>
									
										<rect x="2177" y="1250.8" transform="matrix(0.6227 -0.7825 0.7825 0.6227 -150.4714 2192.8679)" class="st23" width="42.9" height="3.2"/>
								</g>
							</g>
						</g>
					</g>
				</g>
			</g>
		</g>
		<g>
			<g>
				<g>
					<g>
						<g>
							<g>
								<g>
									<polygon class="st15" points="2504.1,1188.5 2418,875.3 2426.9,872.9 2513,1186.1 									"/>
								</g>
							</g>
						</g>
					</g>
				</g>
			</g>
		</g>
		<g>
			<g>
				<g>
					<g>
						<g>
							<g>
								<g>
									<path class="st15" d="M2520.8,1187.3c0,6.7-5.4,12.2-12.2,12.2s-12.2-5.4-12.2-12.2c0-6.7,5.5-12.2,12.2-12.2
										S2520.8,1180.6,2520.8,1187.3z"/>
								</g>
							</g>
						</g>
					</g>
				</g>
			</g>
		</g>
		<g>
			<g>
				<g>
					<g>
						<g>
							<g>
								<polygon class="st15" points="2208.8,1238.4 1956.8,1188.3 2126,932.3 2438.3,932.3 2440.8,950.6 2145.5,953.5 
									1990.9,1174.5 2203.2,1219.8 2440.1,951.7 2447.8,967.9 								"/>
							</g>
						</g>
					</g>
				</g>
			</g>
		</g>
		<g>
			<g>
				<g>
					<g>
						<g>
							<g>
								<g>
									<path class="st24" d="M2209.3,1283.9c-3.1,0-6.2-0.3-9.3-0.9c-27.6-5.1-45.9-31.8-40.8-59.4c5.1-27.6,31.8-45.9,59.4-40.8
										c13.4,2.5,25,10,32.7,21.2c7.7,11.2,10.6,24.8,8.1,38.1l0,0C2254.8,1266.8,2233.3,1283.9,2209.3,1283.9z M2209.2,1193.6
										c-18.6,0-35.2,13.3-38.7,32.2c-4,21.4,10.2,42,31.5,45.9c21.4,4,42-10.2,45.9-31.5c1.9-10.3-0.3-20.8-6.3-29.5
										c-6-8.7-14.9-14.5-25.3-16.4C2214,1193.8,2211.6,1193.6,2209.2,1193.6z"/>
								</g>
							</g>
						</g>
					</g>
				</g>
			</g>
		</g>
		<g>
			<g>
				<g>
					<g>
						<g>
							<g>
								<g>
									<path class="st15" d="M2217.2,1234.4c-0.8,4.4-5,7.3-9.4,6.5c-4.4-0.8-7.3-5-6.5-9.4c0.8-4.4,5-7.3,9.4-6.5
										S2218,1230.1,2217.2,1234.4z"/>
								</g>
							</g>
						</g>
					</g>
				</g>
			</g>
		</g>
		<g>
			<g>
				<g>
					<g>
						<g>
							<g>
								<g>
									<g>
										<path class="st25" d="M2387.2,847.8c0,0,7.6,3.3,11.1,3.2c3.5-0.2,25.2-2.3,28,1.4c2.8,3.7,23.6,24.7,20.8,27.9
											c-2.8,3.2-4.9,1.6-6.3,0c-1.4-1.6-17.5-15.1-19.4-15.3c0,0,14.3,16,11.8,20.8c-2.5,4.8-6.9,3.9-9.5,4.8
											c-2.6,0.9-7.1,4.2-11.8,2.1c-4.8-2.1-23.3-19.2-27.7-22.1c-4.4-2.8-15.7-10.4-15.8-11.4
											C2368.1,858.1,2387.2,847.8,2387.2,847.8z"/>
									</g>
								</g>
							</g>
						</g>
					</g>
				</g>
			</g>
		</g>
		<g>
			<g>
				<g>
					<g>
						<g>
							<g>
								<g>
									<path class="st20" d="M2202.5,888.6c0,0,2.2,79.4,2.5,91.3c0.3,12.9,0.5,59.8-0.7,65.7c-1.2,5.9-9.3,176.4-9.3,176.4
										l-25.1-4.3c0,0-15.6-140.2-14.9-158.7c1.3-34.9-52.9-194.8-53.2-208.4C2101.5,837.1,2202.5,888.6,2202.5,888.6z"/>
								</g>
							</g>
						</g>
					</g>
				</g>
			</g>
		</g>
		<g>
			<g>
				<g>
					<g>
						<g>
							<g>
								<polygon class="st20" points="2195,1222 2195.1,1233.2 2172,1232.4 2169.8,1217.7 								"/>
							</g>
						</g>
					</g>
				</g>
			</g>
		</g>
		<g>
			<g>
				<g>
					<g>
						<g>
							<g>
								<path class="st21" d="M2195,1226.9c0,0,14.2,12.3,22.8,12.6c8.6,0.4,34.3,5.9,35.6,10.4c1.3,4.5,9.5,19.6-38.8,17.9
									c-48.2-1.7-52-1.6-50.9-10.5c1.1-8.8,4.6-20.9,6.4-29.5L2195,1226.9z"/>
							</g>
						</g>
					</g>
				</g>
			</g>
		</g>
		<g>
			<g>
				<g>
					<g>
						<g>
							<g>
								<path class="st22" d="M2230.5,801.5c0,0,18,26.8,68.3,66.7c0,0-145.8,86.5-168.3,87.8c-3.3,0.2-15.4-32.6-24.6-51.4
									c0,0-38.8-57.8,6.1-112.6c15.2-18.6,24.7-30.3,24.7-30.3L2230.5,801.5z"/>
							</g>
						</g>
					</g>
				</g>
			</g>
		</g>
		<g>
			<g>
				<g>
					<g>
						<g>
							<g>
								<g>
									
										<rect x="2157" y="1266.7" transform="matrix(0.999 4.393358e-02 -4.393358e-02 0.999 57.9183 -94.8908)" class="st14" width="61.5" height="7.1"/>
								</g>
							</g>
						</g>
					</g>
				</g>
			</g>
		</g>
		<g>
			<g>
				<g>
					<g>
						<g>
							<g>
								<g>
									<path class="st15" d="M1976.6,1187.3c0,6.7-5.4,12.2-12.2,12.2c-6.7,0-12.2-5.4-12.2-12.2c0-6.7,5.4-12.2,12.2-12.2
										C1971.2,1175.1,1976.6,1180.6,1976.6,1187.3z"/>
								</g>
							</g>
						</g>
					</g>
				</g>
			</g>
		</g>
		<g>
			<path class="st17" d="M2160.7,650.7c-10,0-14-4.4-15.5-8.1c-7.4-17.7,31.6-58.8,43.7-71l2.2-2.2l3,0.8c2,0.5,49.8,13.8,52,43.8
				c0.5,7.2-1.7,13.6-6.6,18.8C2228.1,645,2203.1,650.7,2160.7,650.7z M2194.2,581.3c-21.8,22.3-42.3,50-39.3,57.3
				c0.4,1,2.6,1.6,5.7,1.6c38.2,0,62.1-4.9,71-14.5c2.8-3.1,4.1-6.6,3.8-10.8C2234.2,597.4,2207.5,585.5,2194.2,581.3z"/>
		</g>
		<g>
			<g>
				<g>
					<g>
						<g>
							<g>
								<path class="st26" d="M2240.9,438.8c0,0,50.3,26.9,55.2,41.5c0,0,14.4-26.6-11.9-66.4c-26.3-39.8-80.5-35.2-108-5.6
									c-27.6,29.5-29.6,83.3-68.8,87.9c-39.2,4.6-65.9-10.9-70.9,35.5c-5,46.4-60.1,12.9-67,49.5c-6.9,36.6,43.1,80.9,103.8,32
									c60.7-48.9,75.7-12.8,100.7-15.2c25-2.3,55.2-6.1,44.4-70.5C2207.6,463,2240.9,438.8,2240.9,438.8z"/>
							</g>
						</g>
					</g>
				</g>
			</g>
		</g>
		<g>
			<g>
				<g>
					<g>
						<g>
							<g>
								<path class="st22" d="M2193.3,669.3c0,0,53-24.8,59-24.8c0,0-10.9-70.5-54.9-53.3C2197.5,591.2,2165,608.1,2193.3,669.3z"/>
							</g>
						</g>
					</g>
				</g>
			</g>
		</g>
	</g>
	<g>
		<g>
			<g>
				<path class="st25" d="M1754,460.1l-112.1,146.6c0,0-12.4,18.7-33,57.9c-27,51.2-51.2,107.8-51.2,107.8s14.9,17.7,25,11.8
					c16.4-9.6,102.3-137.3,103.2-147.1c0.9-9.8,88.5-97.7,88.5-97.7S1774.2,465.8,1754,460.1z"/>
			</g>
		</g>
		<path class="st27" d="M1741,432.5L1719.9,604l-16.5,133.6c0,0-85.6,22.8-82.6-41.8c1.4-30.7,6.2-62.1,12.8-91.9
			c16.9-76.3,45.5-142.2,59.1-158.8C1711.5,422.1,1741,432.5,1741,432.5z"/>
		<path class="st28" d="M1719.9,604l-16.5,133.6c0,0-88.8,23-85.9-41.5c1.4-30.7,8.9-62.4,16-92.1H1719.9z"/>
		<g>
			<g>
				<path class="st29" d="M1528.3,1287.7c0,0-2,11.2,5.8,26.2c7.8,15,42.5,53.1,40.1,68.8c-2.4,15.7-42.6,13.8-67.8-13.8
					c-25.2-27.6-62.7-56.3-61.3-62.9c1.4-6.6,39.2-41.1,52.4-45.6C1510.7,1255.9,1528.3,1287.7,1528.3,1287.7z"/>
			</g>
		</g>
		<g>
			<g>
				<path class="st29" d="M2073.1,1311.1c0,0,20.2,8.8,38,11.2c17.8,2.4,60.6-4.6,72.8,7c12.2,11.7-14.1,45.5-53.5,50.5
					c-39.5,5-90,13.4-94.9,8.1c-4.9-5.3-9-52.6-4.9-66.8C2034.6,1307,2073.1,1311.1,2073.1,1311.1z"/>
			</g>
		</g>
		<g>
			<g>
				<path class="st25" d="M1806.3,402.7c0,0-0.1,32.3,4.8,44.6c4.9,12.3-68.5-22-68.5-22s6.8-37.6-1.1-59.5
					C1733.7,344,1806.3,402.7,1806.3,402.7z"/>
			</g>
		</g>
		<g>
			<g>
				<path class="st30" d="M1990.7,986.8l-90.2,60.2c0,0-19-13.2-41.3-30.1c-5.5-4.1-11.1-8.5-16.8-12.9
					c-18.9-14.8-37.4-30.4-47-41.5c-24.2-28,28.8-204.8,95.7-125.9C1891.2,836.6,1972.9,940.2,1990.7,986.8z"/>
			</g>
		</g>
		<g>
			<g>
				<path class="st30" d="M1885.9,815.6c0,0-35.2,183.7-76.8,249.5c0,0-81.4-15.1-113.8-27.8c0,0,0.9-138.7,4-175.2
					C1702.2,828,1885.9,815.6,1885.9,815.6z"/>
			</g>
		</g>
		<g>
			<g>
				<path class="st15" d="M1911.5,810.8c-2,6.4-8.8,34.4-15.5,34.8l-196.7,16.5c0,0,9.3-152.5-5.4-233.5
					c-9.8-53.8,4.4-141.1,36.6-188.2c3.9-5.7,8-10.8,12.2-15.1c0,0,68.2,21.1,71.6,21.8c1.1,0.2,8,6.9,16.9,17.8h0
					c18.5,22.7,45.9,63.9,48.5,103.8c3.9,59.1,33.3,99.6,38.4,166.2C1921.2,773.7,1918.8,786.7,1911.5,810.8z"/>
			</g>
		</g>
		<g>
			<g>
				<path class="st25" d="M2031,700.9c-0.2,0.5-0.8,1-1.7,1.6c-3.3,2-10.8,4.5-21,7c-41.7,10.4-128.5,22.8-154,18.1
					c-33.5-6.1-100.3-156.5-100.3-156.5l61.2-38.8l50.3,102c4.7,9.5,12.2,17.3,21.6,22.3c9.9,5.3,23.1,10.9,34.6,11.3
					c22.1,0.7,53,0.9,75.4,1c10.4,0,19,0,24,0c3.1,0,4.8,0,4.8,0S2035.1,691.3,2031,700.9z"/>
			</g>
		</g>
		<g>
			<g>
				<polygon class="st25" points="2068.6,1289.4 2073.1,1311.1 2030.5,1321.2 2024.1,1298.8 				"/>
			</g>
		</g>
		<g>
			<g>
				<polygon class="st25" points="1542.2,1273 1528,1288.3 1496.1,1261 1510.8,1244 				"/>
			</g>
		</g>
		<g>
			<path class="st30" d="M1990.7,986.8c0,0,17.1,47.5,57.9,203.3c0,0,23.5,86.2,27.6,96s-72.7,26.7-72.8,16.4
				c-0.2-10.3-81.5-216.1-102.8-255.4C1881.8,1012.3,1990.7,986.8,1990.7,986.8z"/>
		</g>
		<g>
			<path class="st30" d="M1811.1,1061.3c-24.6,55-263.3,217.6-263.3,217.6s-16.6-10.2-30.4-20.4c-2.9-2.1-5.6-4.2-8-6.2
				c-3.1-2.6-5.7-5-7.5-7c-9.9-11.5,49.9-68.7,49.9-68.7c134.5-155.3,143.9-174.7,143.9-174.7s14.5,0.6,36.5,3.6
				c3.2,0.4,6.4,0.9,9.7,1.5C1782.7,1013.6,1826,1027.9,1811.1,1061.3z"/>
		</g>
		<path class="st15" d="M1848.8,579.7l-84.1,36.1c0,0-2.5-5.9-5.6-14.9l84.1-37.6C1846.9,572.9,1848.8,579.7,1848.8,579.7z"/>
		<path class="st15" d="M1831.2,464.9c-61-9.6-100.7-24.5-100.7-24.5c3.9-5.7,8-10.8,12.2-15.1c0,0,68.2,21.1,71.6,21.8
			C1815.4,447.3,1822.3,454,1831.2,464.9z"/>
		<g>
			<path class="st25" d="M1828.5,298.3c0,0,18.6,31.6,18.7,38.2c0.1,6.6-7.9,6.6-3.7,13.5c4.2,6.9,12.7,19.9,8.6,24.1
				c-4.1,4.2-13.9,2.1-15.9,11.1c-2,9-13.4,36.4-25.9,36.4s-55.5-21.7-58.3-30.5c-2.9-8.8-19.2-58-24.4-67.5
				c-5.2-9.5,85.3-55.1,93.2-40.2C1828.5,298.3,1828.5,298.3,1828.5,298.3z"/>
		</g>
		<g>
			<path class="st26" d="M1826.9,295.1c0,0,13.4-6.5,8.6-19.8c-4.8-13.3-16.3-31-42.5-22.5c-26.3,8.5-46.1,26.5-64.3,29.4
				c-18.2,2.9-22.4,20.6-6.4,53.6c16,33,22.8,49.2,22.8,49.2s5-28.4,11.9-27.3c6.9,1.1,18-17.6,18-17.6l1.8,4.8l12.3-0.8
				c0,0-16-34.5-7.5-38.9C1790.1,300.6,1825.5,298.9,1826.9,295.1z"/>
		</g>
		<g>
			<path class="st26" d="M1789.1,343.9c0,0,8.1,29.5,14.9,29.9c6.7,0.3,29.7,4.1,34,7.5c0,0,3.4,2.6,1.9,6.9
				c-1.4,4.3-5.5,29.8,2.7,38.3c0,0-5.8,9.1-34.8-1c-29-10.1-44.2-23.9-44.2-23.9s20.8-39.5,13.3-56.8L1789.1,343.9z"/>
		</g>
		<g>
			<path class="st25" d="M1775,334.9c0,0-8.4-15.9-23.8-4.9c-11.1,8.1,3.7,35,15.2,34.4C1778,363.9,1781.3,348.8,1775,334.9z"/>
		</g>
		<g>
			<path class="st27" d="M1823.8,531.4c-6.3-29.1-27.2-51.7-58.7-63.5c-15.5-5.8-33.2-8.6-46.4-7.8c-1.7,3.4-3.3,7.3-4.8,10.9
				c2.7-0.5,6.4-0.9,10-0.9c10.3,0,23.9,2,37.5,7.1c16.3,6.1,44.8,21.6,52.4,56.3c2.9,13.5,0.4,25.4-7.8,36.6
				c-23.1,31.4-84.1,45.8-113.2,51.1c0.3,2.6,0.7,5.1,1.2,7.5c0.1,0.8,0.3,1.6,0.4,2.4c30.3-5.4,94.4-20.5,119.9-55.2
				C1824.1,562.5,1827.3,547.6,1823.8,531.4z"/>
		</g>
		<g>
			<g>
				<path class="st31" d="M1848.8,579.7l-84.1,36.1c0,0-2.5-5.9-5.6-14.9c-9-25.6-23.8-76.9-4.6-92.7c46-37.8,76.8,23.9,88.7,55.1
					C1846.9,572.9,1848.8,579.7,1848.8,579.7z"/>
			</g>
		</g>
		<g>
			<g>
				<path class="st25" d="M1595.9,768.5c0,0-6.5,13.9,1.5,21.8c6.8,6.7,10.7,18.4,11.9,22.1c1.6,4.8,13,19.3,6,19.8
					c-7,0.5-20-23.4-23.8-28.1c-3.8-4.8-10,16.5-15,18.9c-5.1,2.4-49.9-16.1-43.5-29.9c6.4-13.8,24.8-20.6,25.8-23.2
					c1-2.6,8.2-18.4,8.2-18.4L1595.9,768.5z"/>
			</g>
		</g>
		<g>
			<g>
				<path class="st25" d="M1578.9,820.2c0,0-23.3,40.5-27.9,41.6c-4.6,1.1-7.5-0.6-5.5-4.5c2-3.9,21-39.9,21-39.9
					s-38.5,42.2-41.8,43.8c-2,1-7.7-2.1-6.9-4.3c0.8-2.2,35.5-46.4,35.5-46.4s-36,39.3-39.5,39.9c-3.1,0.5-7.8-3.3-5.4-6.4
					c2.4-3.1,32.9-41.7,32.9-41.7s-28.8,26.8-32.5,25.7c-2.3-0.7-7.3-3.1,0.4-9.8c7.8-6.7,23.6-24.4,23.6-24.4L1578.9,820.2z"/>
			</g>
		</g>
		<path class="st32" d="M1859.3,1016.9c-5.5-4.1-15.7-12.1-21.3-16.5c0,0,22.8-54.9,31-94.9
			C1868.9,905.4,1877.8,962.1,1859.3,1016.9z"/>
		<g>
			<g>
				<path class="st25" d="M1990.2,675c0,0,25.5-1.9,37.2-6.6c11.7-4.7,31-19.7,44.9-20.7c13.9-1.1,56.4-0.3,59.4,2.5
					c3,2.8,0.2,5.5,0.2,5.5s8.2-0.9,7.3,4.8c-0.9,5.7-10,6.8-10,6.8s1.7,4.2-2.6,8.1c-4.3,3.9-11.8,5-11.8,5s5.6,3.2-3.2,9.6
					c-8.8,6.4-37.2,11.9-47.5,12.7c-10.3,0.8-39.1,0.8-41.7-0.1c-2.6-1-51.2,5.9-51.2,5.9L1990.2,675z"/>
			</g>
			<g>
				<path class="st25" d="M2065.2,651.7c0,0,10.3-6,16.1-6.9c5.8-0.9,25.8-11.2,27.4-9.3c1.8,2.2-4.5,11.6-13.4,14.6
					C2086.6,653.2,2065.2,651.7,2065.2,651.7z"/>
			</g>
		</g>
	</g>
</g>
</svg>
