<?xml version="1.0" encoding="utf-8"?>
<!-- Generator: Adobe Illustrator 22.0.0, SVG Export Plug-In . SVG Version: 6.00 Build 0)  -->
<svg version="1.1" id="Layer_1" xmlns="http://www.w3.org/2000/svg" xmlns:xlink="http://www.w3.org/1999/xlink" x="0px" y="0px"
	 viewBox="0 0 3180.1 1915.2" style="enable-background:new 0 0 3180.1 1915.2;" xml:space="preserve">
<style type="text/css">
	.st0{fill:#FFD8CA;}
	.st1{fill:url(#SVGID_1_);}
	.st2{fill:#D8D0FF;}
	.st3{fill:url(#SVGID_2_);}
	.st4{fill:url(#PATH270_1_);}
	.st5{fill:#FFB0B0;}
	.st6{fill:url(#PATH273_1_);}
	.st7{fill:#CB8AFF;}
	.st8{fill:#FFFFFF;}
	.st9{fill:url(#SVGID_3_);}
	.st10{fill:#F665A5;}
	.st11{fill:url(#SVGID_4_);}
	.st12{fill:url(#PATH82_1_);}
	.st13{fill:url(#PATH102_1_);}
	.st14{fill:#FFA48A;}
	.st15{fill:url(#SVGID_5_);}
	.st16{fill:url(#SVGID_6_);}
	.st17{fill:url(#PATH218_1_);}
	.st18{fill:url(#PATH219_1_);}
	.st19{fill:url(#PATH223_1_);}
	.st20{fill:#C3EEF8;}
	.st21{fill:#FFE1EB;}
	.st22{fill:#E2B0FF;}
</style>
<g id="communication">
	<g>
		<path id="PATH2_9_" class="st0" d="M2013.8,1155.5c0,0-3.5-25.5,2.5-43.2c6.1-17.7,9.1-38.9,16.9-34.2c7.8,4.7-0.2,29.6-0.2,29.6
			s40.8-70.4,46.2-66.4c5.4,4,6.9,3.1-2.5,23.9c-9.4,20.7-9.4,20.7-9.4,20.7s30.5,21.1,26.3,36.7c-4.2,15.7-39.6,56.5-39.6,56.5
			l-39.8-10.7L2013.8,1155.5L2013.8,1155.5z"/>
		<path id="PATH3_8_" class="st0" d="M1334,1136.8c0,0,3.5-25.5-2.5-43.2c-6.1-17.7-9.1-38.9-16.9-34.2c-7.8,4.7,0.2,29.6,0.2,29.6
			s-40.8-70.4-46.2-66.4c-5.4,4-6.9,3.1,2.5,23.9c9.4,20.7,9.4,20.7,9.4,20.7s-30.5,21.1-26.3,36.7c4.2,15.7,39.6,56.5,39.6,56.5
			l39.8-10.7L1334,1136.8L1334,1136.8z"/>
		<linearGradient id="SVGID_1_" gradientUnits="userSpaceOnUse" x1="1632.7472" y1="1921.5321" x2="1632.7472" y2="1718.8799">
			<stop  offset="0" style="stop-color:#F0EEFF"/>
			<stop  offset="1" style="stop-color:#D8CEFF"/>
		</linearGradient>
		<polygon class="st1" points="1711.3,1754.8 1702.2,1823.5 1699.9,1840.9 1698.2,1853.8 1690.1,1915.2 1554.2,1915.2 
			1562.7,1796.8 1567.9,1724.9 1567.9,1724.9 1698.2,1752.1 		"/>
		<path class="st2" d="M1700.1,1843.3l-1.6,12.6l-7.7,59.3h-33c-3.2-36.3-5.6-71.4-5.2-93.7c0-2,0.1-3.9,0.1-5.6
			c2.5-58.6,2.5-58.6,2.5-58.6l30.3,1l7,0.2l5.8,65l1.5,17.4L1700.1,1843.3z"/>
		<linearGradient id="SVGID_2_" gradientUnits="userSpaceOnUse" x1="1763.6824" y1="1921.5321" x2="1763.6824" y2="1718.8799">
			<stop  offset="0" style="stop-color:#F0EEFF"/>
			<stop  offset="1" style="stop-color:#D8CEFF"/>
		</linearGradient>
		<polygon class="st3" points="1842.2,1915.2 1706.4,1915.2 1698.5,1855.9 1698.2,1853.8 1694.2,1823.6 1685.6,1758.3 
			1685.1,1754.8 1698.2,1752.1 1828.5,1724.9 1828.5,1724.9 1834.1,1802.6 		"/>
		
			<linearGradient id="PATH270_1_" gradientUnits="userSpaceOnUse" x1="1673.2998" y1="810.2643" x2="1673.2998" y2="73.3969" gradientTransform="matrix(1 0 0 -1 0 1918)">
			<stop  offset="0" style="stop-color:#D084FF"/>
			<stop  offset="1" style="stop-color:#82C5FF"/>
		</linearGradient>
		<path id="PATH270_4_" class="st4" d="M1279.9,1158.9c0,0,24.9,118.5,96,184.5c71.1,66.1,157.1,86,163.3,111
			c6.2,24.9-2.5,97.3,0,199.5c2.5,102.2,10,134.7,10,134.7s39.9,32.4,132.1,34.9c92.3,2.5,174.6-22.4,174.6-34.9l-3.7-16.2
			c-17.5-118.5-24.9-190.8-27.4-261.8l1.2-39.9c117.2-66.1,187-108.5,240.6-294.3l-56.1-17.5c-43.1,73.1-68.6,116-103.5,140.9
			c-87.3,59.8-180.6,53.8-225.7,51.1c-66.1-3.7-160.8-27.4-218.2-68.6c-57.3-41.1-118.5-153.4-118.5-153.4s-10,16.2-37.4,21.2
			C1280,1155.1,1280,1158.9,1279.9,1158.9L1279.9,1158.9z"/>
		<path id="PATH271_4_" class="st5" d="M1684.6,1378c22.5,0,40.7-18.3,40.7-40.7v-43.8c0-22.5-18.3-40.7-40.7-40.7h-0.8
			c-22.5,0-40.7,18.3-40.7,40.7v43.8c0,22.5,18.3,40.7,40.7,40.7H1684.6z"/>
		<path id="PATH272_4_" class="st0" d="M1674.7,1330.3c34.5,0,79-49.3,82.7-94.1c2.5-44.9-54.5-87.3-95.7-87.3
			c-40.2,0-53.3,56.1-49.6,101C1615,1295.7,1640.2,1330.3,1674.7,1330.3L1674.7,1330.3z"/>
		
			<linearGradient id="PATH273_1_" gradientUnits="userSpaceOnUse" x1="1542.9823" y1="715.053" x2="1793.5928" y2="715.053" gradientTransform="matrix(1 0 0 -1 0 1918)">
			<stop  offset="0" style="stop-color:#8E4CAD"/>
			<stop  offset="1" style="stop-color:#595CBF"/>
		</linearGradient>
		<path id="PATH273_4_" class="st6" d="M1731,1243.1v-19.9c0,0-37.9,9.9-66.5-6.6c-28.6-16.6-42-29-42-29l-10.1,29.8
			c0,0-11.8-2.5-30.3-32.3c-18.5-29.8-10.1-58-10.1-58s4.2,11.6,11.8,19c7.6,7.4,7.6,7.4,7.6,7.4s-6.7-19.9-6.7-31.5
			c0-11.6,16-31.5,36.2-13.2c20.2,18.2,64.8,19,99.3,15.7c34.5-3.3,50.5,27.3,48,43.1c-2.5,15.7-5.9,19.9-5.9,19.9
			s10.9,6.6,10.9,23.2c0,16.6-8.4,43.9-25.2,67.9c-16.8,24-21.9,25.7-21.9,25.7l2.5-24c0,0,18.5-5,20.2-26.5
			C1750.3,1232.3,1730.9,1243.1,1731,1243.1L1731,1243.1z"/>
		<path id="PATH274_4_" class="st7" d="M1981.8,1349.6c0,0-51.1,52.4-116,71.1c-64.8,18.7-77.3,10-81.1,23.7
			c-3.7,13.7-5,102.2,19.9,189.5c24.9,87.3,41.1,109.7,41.1,109.7s-18.7-208.2-18.7-236.9c0-28.7,1.2-34.9,1.2-34.9
			s86-53.6,109.7-69.8C1961.8,1385.8,1981.8,1349.6,1981.8,1349.6L1981.8,1349.6z"/>
		<path id="PATH275_3_" class="st7" d="M1427,1379.6c0,0,66.1,29.9,94.7,37.4c28.7,7.5,27.4,31.2,26.2,37.4
			c-1.2,6.2-7.5,26.2-7.5,26.2s-1.2-31.2-16.2-39.9c-15-8.7-44.9-24.9-72.3-41.1C1424.6,1383.3,1427,1379.6,1427,1379.6z"/>
		<path id="PATH276_3_" class="st8" d="M1642.5,1344.9c0,0,12,26.2,35.9,29.9c23.9,3.7,40.4-18,42.6-21.7c2.2-3.7,3-6,3-6l16.5,3
			c0,0-19.4,44.9-62.1,39.6c-42.6-5.2-51.6-47.9-51.6-47.9L1642.5,1344.9z"/>
	</g>
	<linearGradient id="SVGID_3_" gradientUnits="userSpaceOnUse" x1="2272.2522" y1="1921.9464" x2="2272.2522" y2="1726.4379">
		<stop  offset="0" style="stop-color:#FF92BA"/>
		<stop  offset="1" style="stop-color:#F462A4"/>
	</linearGradient>
	<path class="st9" d="M2336.6,1757.3c0,0-2.6,35.8-5.8,88.7c-1.2,18.9-2.4,39.9-3.6,62.4c-0.1,2.3-0.2,4.6-0.4,6.9h-109.5
		c-1.1-11.3-2.1-21.6-2.8-30.6c-1.7-20.4-2.9-38.2-3.9-53.7c-5.2-82.8-1.4-98.9-1.4-98.9l77.5,15.3L2336.6,1757.3z"/>
	<path class="st10" d="M2326,1905.8l-0.6,9.4h-26.2c-5.6-25.4-14.1-50.7-22.7-72.9c-16.1-41.3-32.7-71.8-32.7-71.8l37.1,4l24.1,70.3
		L2326,1905.8L2326,1905.8z"/>
	<linearGradient id="SVGID_4_" gradientUnits="userSpaceOnUse" x1="2369.4351" y1="1921.7145" x2="2369.4351" y2="1734.6942">
		<stop  offset="0" style="stop-color:#FF92BA"/>
		<stop  offset="1" style="stop-color:#F462A4"/>
	</linearGradient>
	<path class="st11" d="M2454,1915.2h-125c-0.6-2.3-1.2-4.6-1.8-6.9c-2.4-9-4.5-17.4-6.5-25.1c-3.5-14-6.7-26.7-9.5-38.1
		c-15.4-61.8-21.8-87.2-24.4-97.7c-1.8-7.4-1.8-7.4-1.8-7.4h148.6l4,30.5c0,0,2.9,26.5,7.6,68.1c0,0.2,0.1,0.5,0.1,0.7
		C2447.6,1861.1,2450.6,1886.9,2454,1915.2z"/>
	
		<linearGradient id="PATH82_1_" gradientUnits="userSpaceOnUse" x1="2156.2134" y1="529.7256" x2="2669.509" y2="529.7256" gradientTransform="matrix(1 0 0 -1 0 1918)">
		<stop  offset="0" style="stop-color:#8E4CAD"/>
		<stop  offset="1" style="stop-color:#595CBF"/>
	</linearGradient>
	<path id="PATH82_5_" class="st12" d="M2394,1127.9c0,0-52.7-17.9-89.5,6c-36.8,23.9-46.8,75.6-42.8,103.5s-55.7,56.7-45.8,93.5
		c9.9,36.8,6,43.8-15.9,66.6c-21.9,22.9,9.9,148.2,94.5,187c84.6,38.8,130.3,87.5,223.8,64.7c93.5-22.9,130.3-150.2,112.4-201.9
		c-17.9-51.7-86.5-60.7-92.5-105.4c-6-44.8,3-83.6-31.8-117.4c-34.8-33.8-37.8-82.6-65.7-95.5C2412.9,1116,2394,1127.9,2394,1127.9z
		"/>
	<path id="PATH100_5_" class="st0" d="M2188,1558.7c0,0-56.7,53.7-103.5,33.8c-46.8-19.9-44.8-185-44.8-185s-25.9-19.9-38.8-43.8
		c-12.9-23.9-11.9-39.8-7-37.8c5,2,58.7,33.8,64.7,54.7c6,20.9,4,26.9,4,26.9s29.8,119.4,44.8,122.4c14.9,3,52.7-38.8,52.7-38.8
		l39.8,61.7L2188,1558.7z"/>
	<path id="PATH101_5_" class="st0" d="M2455.6,1603.4c0,0,26.9,101.5,74.6,165.1s51.7,69.6,61.7,69.6s27.9,1,47.7,12.9
		s33.8,8,33.8,8s-12.9-30.8-33.8-45.8s-44.8-7-48.7-15.9c-4-9-52.7-133.3-63.7-153.2c-10.9-19.9-21.9-97.5-21.9-97.5l-61.7,9.9
		L2455.6,1603.4z"/>
	
		<linearGradient id="PATH102_1_" gradientUnits="userSpaceOnUse" x1="2334.2744" y1="565.2487" x2="2334.2744" y2="43.9963" gradientTransform="matrix(1 0 0 -1 0 1918)">
		<stop  offset="0" style="stop-color:#FFD596"/>
		<stop  offset="1" style="stop-color:#FF9F89"/>
	</linearGradient>
	<path id="PATH102_5_" class="st13" d="M2277.6,1386.6c0,0-38.8-9.9-82.6,35.8c-43.8,45.8-53.7,62.7-53.7,62.7s9.9,26.9,28.8,48.7
		c18.9,21.9,25.9,27.9,25.9,27.9l26.9-22.9l-0.7,13c-8.9,29.1-42.1,168.4-24.8,277.1l17.2,2.7c95.5,23.9,212.2,13.3,242.7,5.3
		l-20.6-267.3l10.9,30.8c0,0,32.8-5,52.7-19.9c19.9-14.9,26.9-23.9,26.9-23.9s-35.8-105.4-64.7-135.3
		c-28.8-29.8-62.7-31.8-62.7-31.8L2277.6,1386.6L2277.6,1386.6z"/>
	<path id="PATH103_5_" class="st5" d="M2319.4,1332.2c0,0,2,46.4-15.9,51.1c-17.9,4.7-21.9,4-21.9,4s7.3,50.4,58.4,47.7
		c51.1-2.7,67-45.1,67-45.1s-21.9-1.3-27.9-23.9s-0.7-78.9-0.7-78.9l-58.4,24.6L2319.4,1332.2L2319.4,1332.2z"/>
	<path id="PATH104_5_" class="st0" d="M2289.9,1201.5c0,0-31,90.7,1.6,118.6c32.6,27.9,76.4-9.5,89.9-23.1
		c13.5-13.5,17.5-23.1,17.5-23.1s-15.1-14.3-34.2-38.2c-19.1-23.9-18.3-50.1-18.3-50.1s-15.1,10.3-35,15.1
		C2291.5,1205.5,2289.9,1201.5,2289.9,1201.5L2289.9,1201.5z"/>
	<path id="PATH105_5_" class="st14" d="M2392.3,1846.2l65-9.3l-18.6-263.9l8,27.9l21.2-6.6c0,0-17.2-26.5-29.2-65
		c-11.9-38.5-11.9-38.5-11.9-38.5s-25.2,92.8-22.6,193.7C2406.9,1785.2,2392.2,1846.2,2392.3,1846.2L2392.3,1846.2z"/>
	<g>
		<path id="PATH34_5_" class="st0" d="M640.6,1319.7c0,0-10.6-35.8-26.5-42.5c-15.9-6.6-33.1-31.8-38.5-23.9
			c-5.3,8,13.3,26.5,13.3,26.5s-26.5,1.3-46.4-9.3c-19.9-10.6-35.8-33.1-35.8-22.6c0,10.6,17.2,54.4,30.5,58.4
			c13.3,4,39.8,14.6,47.7,23.9c8,9.3,27.9,23.9,27.9,23.9l34.5-15.9L640.6,1319.7L640.6,1319.7z"/>
		<path id="PATH35_5_" class="st0" d="M1305.1,1347.5c0,0,10.6-35.8,26.5-42.5c15.9-6.6,33.1-31.8,38.5-23.9
			c5.3,8-13.3,26.5-13.3,26.5s26.5,1.3,46.4-9.3c19.9-10.6,35.8-33.1,35.8-22.6c0,10.6-17.2,54.4-30.5,58.4
			c-13.3,4-39.8,14.6-47.7,23.9c-8,9.3-27.9,23.9-27.9,23.9l-34.5-15.9L1305.1,1347.5L1305.1,1347.5z"/>
		<linearGradient id="SVGID_5_" gradientUnits="userSpaceOnUse" x1="904.2288" y1="1921.0989" x2="904.2288" y2="1736.2279">
			<stop  offset="0" style="stop-color:#F0EEFF"/>
			<stop  offset="1" style="stop-color:#D8CEFF"/>
		</linearGradient>
		<polygon class="st15" points="1029.3,1754.7 1013.8,1798.1 975.2,1906.9 972.2,1915.2 779.2,1915.2 801.3,1783.8 807.8,1745.5 
			961.6,1751.9 		"/>
		<linearGradient id="SVGID_6_" gradientUnits="userSpaceOnUse" x1="1044.5435" y1="1921.1998" x2="1044.5435" y2="1726.2544">
			<stop  offset="0" style="stop-color:#F0EEFF"/>
			<stop  offset="1" style="stop-color:#D8CEFF"/>
		</linearGradient>
		<polygon class="st16" points="1128.1,1732.8 1127.3,1782 1125.1,1915.2 971.8,1915.2 971.8,1915.2 964.6,1799.9 961.6,1751.9 
			961,1742.1 		"/>
		<polygon class="st2" points="1050.5,1785.2 1047.7,1795.4 1015.3,1915.2 971.8,1915.2 971.8,1915.2 975.2,1906.9 1020.1,1797.7 
			1025.3,1785.2 		"/>
		
			<linearGradient id="PATH218_1_" gradientUnits="userSpaceOnUse" x1="974.2269" y1="684.5401" x2="974.2269" y2="87.6875" gradientTransform="matrix(1 0 0 -1 0 1918)">
			<stop  offset="0" style="stop-color:#FF92BA"/>
			<stop  offset="1" style="stop-color:#F462A4"/>
		</linearGradient>
		<path id="PATH218_3_" class="st17" d="M894,1256c0,0-110.1,5.3-148.5,59.7c-38.5,54.4-51.7,115.4-63.7,104.8
			c-11.9-10.6-29.2-91.5-29.2-91.5l-59.7,15.9c0,0,4,155.2,41.1,197.6c37.1,42.5,98.2-1.3,132.6-42.5c34.5-41.1,34.5-41.1,34.5-41.1
			l-14.6,319.6c54.4,23.9,242.7,33.1,358.1-1.3l-26.5-279.8c0,0,57,53,103.5,51.7c46.4-1.3,134-165.8,134-165.8l-53-35.8
			c0,0-83.6,91.5-100.8,76.9c-17.2-14.6-78.3-127.3-127.3-145.9c-49.1-18.6-149.9-21.2-149.9-21.2L894,1256z"/>
		
			<linearGradient id="PATH219_1_" gradientUnits="userSpaceOnUse" x1="903.2413" y1="433.8614" x2="1066.3816" y2="433.8614" gradientTransform="matrix(1 0 0 -1 0 1918)">
			<stop  offset="0" style="stop-color:#8E4CAD"/>
			<stop  offset="1" style="stop-color:#595CBF"/>
		</linearGradient>
		<path id="PATH219_3_" class="st18" d="M941.7,1321l22.6,18.6c0,0,18.6,110.1,17.2,188.3c-1.3,78.3-8,104.8-8,104.8l45.1,39.8
			l29.2-49.1c0,0-14.6-143.2-31.8-206.9c-17.2-63.7-30.5-83.6-30.5-83.6l6.6-27.9l-33.1-9.3l-31.8,15.9L941.7,1321z"/>
		<path id="PATH220_3_" class="st8" d="M901.3,1254.4c0,0-17.9,3-14.9,30.8c3,27.9,24.9,63.7,24.9,63.7s41.8-45.8,56.7-45.8
			c14.9,0,59.7,24.9,59.7,24.9s-11.9-46.8-24.9-56.7c-12.9-9.9-26.9-11.9-26.9-11.9L901.3,1254.4z"/>
		<path id="PATH221_3_" class="st5" d="M947.6,1298.1c-23.9,0-43.3-19.4-43.3-43.3v-46.6c0-23.9,19.4-43.3,43.3-43.3h0.9
			c23.9,0,43.3,19.4,43.3,43.3v46.6c0,23.9-19.4,43.3-43.3,43.3H947.6z"/>
		<path id="PATH222_3_" class="st0" d="M958.1,1247.4c-36.7,0-84-52.4-88-100.2c-2.7-47.7,44.7-74.9,88-74.9
			c43.3,0,75.8,39.2,72.5,87.5C1027.3,1208.2,994.8,1247.4,958.1,1247.4z"/>
		
			<linearGradient id="PATH223_1_" gradientUnits="userSpaceOnUse" x1="831.619" y1="800.506" x2="1066.3813" y2="800.506" gradientTransform="matrix(1 0 0 -1 0 1918)">
			<stop  offset="0" style="stop-color:#8E4CAD"/>
			<stop  offset="1" style="stop-color:#595CBF"/>
		</linearGradient>
		<path id="PATH223_3_" class="st19" d="M924.6,1093.1c0,0,8.3,42.6,50.6,31.3c42.3-11.3,50-4.7,54.5,2.7c4.5,7.3,3.9,10,3.9,10
			s10.9-48.6-7-81.2c-17.9-32.6-84.6-35.3-102.5-32.6c-17.9,2.7-22.4,18-22.4,18s-34-2-41,40.6c-7,42.6,0.6,91.2,18.6,112.4
			c17.9,21.3,25,18,25,18l-3.9-19.3c0,0-17.9-10-17.3-30c0.6-20,21.2-8,21.2-8s-2.5-27.3,1.9-40.6
			C910.5,1101.2,924.6,1093.2,924.6,1093.1L924.6,1093.1z"/>
		<path id="PATH269_3_" class="st10" d="M1116.8,1496.1l-9.3-90.2c0,0,35.8,71.6,59.7,103.5s23.9,33.1,23.9,33.1s-31.8-11.9-53-27.9
			C1116.8,1498.7,1116.8,1496,1116.8,1496.1L1116.8,1496.1z"/>
	</g>
	<g>
		<path id="PATH136_8_" class="st20" d="M2049.3,962.8c-61.7,0-111.8-50.1-111.8-111.8l0,0c0-61.7,50.1-111.8,111.8-111.8h471.2
			c61.7,0,111.8,50.1,111.8,111.8l0,0c0,61.7-50.1,111.8-111.8,111.8H2049.3z"/>
		<path class="st20" d="M2023.5,944.4l126.1,89.2c11.4,8.1,26.8-2.2,23.8-15.8l-18.5-83L2023.5,944.4z"/>
	</g>
	<g>
		<path class="st21" d="M889.9,880.9l-153,108.2c-13.9,9.8-32.6-2.6-28.9-19.2l22.4-100.7L889.9,880.9z"/>
		<path class="st21" d="M1212.7,906H762.2c-59,0-107.3-48.3-107.3-107.3v-27.6c0-59,48.3-107.3,107.3-107.3h450.5
			c59,0,107.3,48.3,107.3,107.3v27.6C1320,857.7,1271.7,906,1212.7,906z"/>
	</g>
	<g>
		<path class="st22" d="M1769.7,896.8L1654.9,978c-10.4,7.4-24.4-2-21.7-14.4L1650,888L1769.7,896.8z"/>
		<path class="st22" d="M1497,916.8h259.6c49.1,0,88.9-39.8,88.9-88.9v-198c0-49.1-39.8-88.9-88.9-88.9H1497
			c-49.1,0-88.9,39.8-88.9,88.9v198C1408.1,877,1447.9,916.8,1497,916.8z"/>
	</g>
</g>
</svg>
