<?xml version="1.0" encoding="utf-8"?>
<!-- Generator: Adobe Illustrator 22.0.0, SVG Export Plug-In . SVG Version: 6.00 Build 0)  -->
<svg version="1.1" id="Слой_1" xmlns="http://www.w3.org/2000/svg" xmlns:xlink="http://www.w3.org/1999/xlink" x="0px" y="0px"
	 viewBox="0 0 2900 2000" style="enable-background:new 0 0 2900 2000;" xml:space="preserve">
<style type="text/css">
	.st0{fill:#FFFFFF;}
	.st1{filter:url(#Adobe_OpacityMaskFilter);}
	.st2{filter:url(#Adobe_OpacityMaskFilter_1_);}
	.st3{mask:url(#SVGID_1_);fill:url(#SVGID_2_);}
	.st4{opacity:0.66;fill:url(#SVGID_3_);}
	.st5{fill:url(#SVGID_4_);}
	.st6{fill:url(#SVGID_5_);}
	.st7{fill:url(#SVGID_6_);}
	.st8{fill:url(#SVGID_7_);}
	.st9{fill:url(#SVGID_8_);}
	.st10{fill:url(#SVGID_9_);}
	.st11{fill:url(#SVGID_10_);}
	.st12{fill:url(#SVGID_11_);}
	.st13{fill:url(#SVGID_12_);}
	.st14{fill:url(#SVGID_13_);}
	.st15{fill:#D98C48;}
	.st16{fill:url(#SVGID_14_);}
	.st17{fill:url(#SVGID_15_);}
	.st18{fill:url(#SVGID_16_);}
	.st19{fill:#A3A3A3;}
	.st20{fill:#FFDF69;}
	.st21{fill:url(#SVGID_17_);}
	.st22{fill:url(#SVGID_18_);}
	.st23{fill:url(#SVGID_19_);}
	.st24{fill:url(#SVGID_20_);}
	.st25{fill:#FFE7E6;}
	.st26{fill:#EEA886;}
	.st27{fill:#8B84AB;}
	.st28{fill:#66607D;}
	.st29{opacity:0.69;fill:#FFFFFF;}
	.st30{fill:url(#SVGID_21_);}
	.st31{fill:url(#SVGID_22_);}
	.st32{fill:url(#SVGID_23_);}
	.st33{fill:url(#SVGID_24_);}
	.st34{fill:url(#SVGID_25_);}
	.st35{fill:#EDDAD3;}
	.st36{fill:#D6D6D6;}
	.st37{fill:#E8E8E8;}
	.st38{fill:#C2C2C2;}
	.st39{fill:url(#SVGID_26_);}
	.st40{fill:url(#SVGID_27_);}
	.st41{fill:#3A7D8D;}
	.st42{filter:url(#Adobe_OpacityMaskFilter_2_);}
	.st43{filter:url(#Adobe_OpacityMaskFilter_3_);}
	.st44{mask:url(#SVGID_28_);fill:url(#SVGID_29_);}
	.st45{fill:url(#SVGID_30_);}
	.st46{filter:url(#Adobe_OpacityMaskFilter_4_);}
	.st47{filter:url(#Adobe_OpacityMaskFilter_5_);}
	.st48{mask:url(#SVGID_31_);fill:url(#SVGID_32_);}
	.st49{fill:url(#SVGID_33_);}
	.st50{filter:url(#Adobe_OpacityMaskFilter_6_);}
	.st51{filter:url(#Adobe_OpacityMaskFilter_7_);}
	.st52{mask:url(#SVGID_34_);fill:url(#SVGID_35_);}
	.st53{fill:url(#SVGID_36_);}
	.st54{fill:url(#SVGID_37_);}
	.st55{fill:#F08533;}
	.st56{filter:url(#Adobe_OpacityMaskFilter_8_);}
	.st57{filter:url(#Adobe_OpacityMaskFilter_9_);}
	.st58{mask:url(#SVGID_38_);fill:url(#SVGID_39_);}
	.st59{fill:url(#SVGID_40_);}
	.st60{filter:url(#Adobe_OpacityMaskFilter_10_);}
	.st61{filter:url(#Adobe_OpacityMaskFilter_11_);}
	.st62{mask:url(#SVGID_41_);fill:url(#SVGID_42_);}
	.st63{fill:url(#SVGID_43_);}
	.st64{filter:url(#Adobe_OpacityMaskFilter_12_);}
	.st65{filter:url(#Adobe_OpacityMaskFilter_13_);}
	.st66{mask:url(#SVGID_44_);fill:url(#SVGID_45_);}
	.st67{fill:url(#SVGID_46_);}
	.st68{fill:url(#SVGID_47_);}
	.st69{filter:url(#Adobe_OpacityMaskFilter_14_);}
	.st70{filter:url(#Adobe_OpacityMaskFilter_15_);}
	.st71{mask:url(#SVGID_48_);fill:url(#SVGID_49_);}
	.st72{fill:url(#SVGID_50_);}
	.st73{filter:url(#Adobe_OpacityMaskFilter_16_);}
	.st74{filter:url(#Adobe_OpacityMaskFilter_17_);}
	.st75{mask:url(#SVGID_51_);fill:url(#SVGID_52_);}
	.st76{fill:url(#SVGID_53_);}
	.st77{filter:url(#Adobe_OpacityMaskFilter_18_);}
	.st78{filter:url(#Adobe_OpacityMaskFilter_19_);}
	.st79{mask:url(#SVGID_54_);fill:url(#SVGID_55_);}
	.st80{fill:url(#SVGID_56_);}
	.st81{fill:url(#SVGID_57_);}
	.st82{fill:url(#SVGID_58_);}
	.st83{fill:#757D28;}
	.st84{fill:#5C9E33;}
	.st85{fill:#4D8B33;}
	.st86{fill:#B1C265;}
	.st87{fill:#92A05B;}
	.st88{fill:#C7CA7F;}
	.st89{fill:#518330;}
	.st90{fill:#6C9F44;}
	.st91{fill:#4A8A33;}
	.st92{fill:#689C2F;}
	.st93{fill:#478B33;}
	.st94{fill:#61A23E;}
	.st95{fill:#5C9B3B;}
	.st96{fill:url(#SVGID_59_);}
	.st97{fill:url(#SVGID_60_);}
	.st98{fill:url(#SVGID_61_);}
	.st99{fill:url(#SVGID_62_);}
	.st100{fill:#424773;}
	.st101{fill:#8B92DB;}
	.st102{fill:#323657;}
	.st103{fill:#D88A51;}
	.st104{fill:#D44040;}
	.st105{fill:#EEA987;}
	.st106{fill:#A77860;}
	.st107{fill:#E8734D;}
	.st108{fill:#DB9C7C;}
</style>
<g>
	<polygon class="st0" points="1367,688.9 178.3,688.9 824.2,713.3 38.8,737.8 1367,764.1 	"/>
	<defs>
		<filter id="Adobe_OpacityMaskFilter" filterUnits="userSpaceOnUse" x="188" y="1714" width="2604.3" height="143.2">
			<feFlood  style="flood-color:white;flood-opacity:1" result="back"/>
			<feBlend  in="SourceGraphic" in2="back" mode="normal"/>
		</filter>
	</defs>
	<mask maskUnits="userSpaceOnUse" x="188" y="1714" width="2604.3" height="143.2" id="SVGID_1_">
		<g class="st1">
			<defs>
				<filter id="Adobe_OpacityMaskFilter_1_" filterUnits="userSpaceOnUse" x="188" y="1714" width="2604.3" height="143.2">
					<feFlood  style="flood-color:white;flood-opacity:1" result="back"/>
					<feBlend  in="SourceGraphic" in2="back" mode="normal"/>
				</filter>
			</defs>
			<mask maskUnits="userSpaceOnUse" x="188" y="1714" width="2604.3" height="143.2" id="SVGID_1_">
				<g class="st2">
				</g>
			</mask>
			<linearGradient id="SVGID_2_" gradientUnits="userSpaceOnUse" x1="1490.1118" y1="1927.8718" x2="1490.1118" y2="1621.1874">
				<stop  offset="0" style="stop-color:#000000"/>
				<stop  offset="1" style="stop-color:#FFFFFF"/>
			</linearGradient>
			<ellipse class="st3" cx="1490.1" cy="1785.6" rx="1302.2" ry="71.6"/>
		</g>
	</mask>
	<linearGradient id="SVGID_3_" gradientUnits="userSpaceOnUse" x1="1490.1118" y1="1927.8718" x2="1490.1118" y2="1621.1874">
		<stop  offset="0" style="stop-color:#A6A6A6"/>
		<stop  offset="1" style="stop-color:#5C5C5C"/>
	</linearGradient>
	<ellipse class="st4" cx="1490.1" cy="1785.6" rx="1302.2" ry="71.6"/>
	<g>
		<linearGradient id="SVGID_4_" gradientUnits="userSpaceOnUse" x1="2173.4553" y1="1368.6047" x2="2610.6284" y2="1939.2859">
			<stop  offset="0" style="stop-color:#BA572B"/>
			<stop  offset="1" style="stop-color:#803429"/>
		</linearGradient>
		<path class="st5" d="M2655.3,696v1003.4c0,23-17.1,42.1-39.2,45.2c-2.1,0.3-4.3,0.5-6.4,0.5H1475.4c-25.2,0-45.7-20.5-45.7-45.7
			V696c0-25.2,20.4-45.7,45.7-45.7h1134.2c2.2,0,4.3,0.2,6.4,0.5C2638.2,653.9,2655.3,672.9,2655.3,696z"/>
	</g>
	<g>
		<linearGradient id="SVGID_5_" gradientUnits="userSpaceOnUse" x1="2016.488" y1="1687.5018" x2="2108.1106" y2="294.8255">
			<stop  offset="0" style="stop-color:#E6583B"/>
			<stop  offset="1" style="stop-color:#FFA04F"/>
		</linearGradient>
		<polygon class="st6" points="1516.8,1680.2 2587.5,1680.2 2587.5,610.6 1516.8,610.6 		"/>
	</g>
	<g>
		<linearGradient id="SVGID_6_" gradientUnits="userSpaceOnUse" x1="2520.2578" y1="625.5067" x2="1046.4308" y2="418.6989">
			<stop  offset="0" style="stop-color:#E6583B"/>
			<stop  offset="1" style="stop-color:#FFA04F"/>
		</linearGradient>
		<path class="st7" d="M1516.8,610.6h1070.8v-50.5c0-32.4-26.3-58.7-58.7-58.7h-953.3c-32.4,0-58.7,26.3-58.7,58.7V610.6z"/>
	</g>
	<g>
		<linearGradient id="SVGID_7_" gradientUnits="userSpaceOnUse" x1="1690.3389" y1="1643.9435" x2="1897.1448" y2="489.4899">
			<stop  offset="0" style="stop-color:#E6583B"/>
			<stop  offset="1" style="stop-color:#A16132"/>
		</linearGradient>
		<rect x="1770" y="610.6" class="st8" width="19.3" height="1069.6"/>
		<linearGradient id="SVGID_8_" gradientUnits="userSpaceOnUse" x1="2001.5675" y1="1699.6949" x2="2208.3733" y2="545.2422">
			<stop  offset="0" style="stop-color:#E6583B"/>
			<stop  offset="1" style="stop-color:#A16132"/>
		</linearGradient>
		<polygon class="st9" points="1516.8,1407.7 1516.8,1426.9 2587.5,1426.9 2587.5,1407.7 		"/>
		<linearGradient id="SVGID_9_" gradientUnits="userSpaceOnUse" x1="1954.2695" y1="1691.2201" x2="2161.0745" y2="536.7729">
			<stop  offset="0" style="stop-color:#E6583B"/>
			<stop  offset="1" style="stop-color:#A16132"/>
		</linearGradient>
		<polygon class="st10" points="1516.8,1135.2 1516.8,1154.4 2587.5,1154.4 2587.5,1135.2 		"/>
		<linearGradient id="SVGID_10_" gradientUnits="userSpaceOnUse" x1="1907.178" y1="1682.7837" x2="2113.9832" y2="528.3343">
			<stop  offset="0" style="stop-color:#E6583B"/>
			<stop  offset="1" style="stop-color:#A16132"/>
		</linearGradient>
		<polygon class="st11" points="1516.8,863.9 1516.8,883.1 2587.5,883.1 2587.5,863.9 		"/>
		<linearGradient id="SVGID_11_" gradientUnits="userSpaceOnUse" x1="1954.3723" y1="1691.2419" x2="2161.1782" y2="536.7885">
			<stop  offset="0" style="stop-color:#E6583B"/>
			<stop  offset="1" style="stop-color:#A16132"/>
		</linearGradient>
		<rect x="2042.5" y="610.6" class="st12" width="19.3" height="1069.6"/>
		<linearGradient id="SVGID_12_" gradientUnits="userSpaceOnUse" x1="2218.4063" y1="1738.5404" x2="2425.2122" y2="584.087">
			<stop  offset="0" style="stop-color:#E6583B"/>
			<stop  offset="1" style="stop-color:#A16132"/>
		</linearGradient>
		<rect x="2315" y="610.6" class="st13" width="19.3" height="1069.6"/>
	</g>
	<g>
		<linearGradient id="SVGID_13_" gradientUnits="userSpaceOnUse" x1="2419.4399" y1="1730.7527" x2="2462.6008" y2="1440.3961">
			<stop  offset="0" style="stop-color:#FF9F55"/>
			<stop  offset="1" style="stop-color:#FFD255"/>
		</linearGradient>
		<path class="st14" d="M2587.5,1426.9c0,0-0.2,117.2-27.7,216.6l-58.6,36.7h-206.5c39.2-104.4,39.5-253.3,39.5-253.3H2587.5z"/>
		<polygon class="st15" points="2501.3,1680.2 2501.3,1642.7 2559.9,1642.7 		"/>
	</g>
	<g>
		<linearGradient id="SVGID_14_" gradientUnits="userSpaceOnUse" x1="2140.73" y1="1441.5405" x2="2193.7402" y2="1168.6354">
			<stop  offset="0" style="stop-color:#FF9F55"/>
			<stop  offset="1" style="stop-color:#FFD255"/>
		</linearGradient>
		<path class="st16" d="M2315,1154.4c0,0-0.2,117.2-27.7,216.6l-58.6,36.7h-206.5c39.2-104.4,39.5-253.3,39.5-253.3H2315z"/>
		<polygon class="st15" points="2228.8,1407.7 2228.8,1370.2 2287.4,1370.2 		"/>
	</g>
	<g>
		<linearGradient id="SVGID_15_" gradientUnits="userSpaceOnUse" x1="2157.9333" y1="876.9337" x2="2181.4937" y2="603.3729">
			<stop  offset="0" style="stop-color:#FF9F55"/>
			<stop  offset="1" style="stop-color:#FFD255"/>
		</linearGradient>
		<path class="st17" d="M2315,610.6c0,0-0.2,117.2-27.7,216.6l-58.6,36.7h-206.5c39.2-104.4,39.5-253.3,39.5-253.3H2315z"/>
		<polygon class="st15" points="2228.8,863.9 2228.8,826.4 2287.4,826.4 		"/>
	</g>
	<g>
		<g>
			<linearGradient id="SVGID_16_" gradientUnits="userSpaceOnUse" x1="1878.3411" y1="1138.1854" x2="1921.5347" y2="886.8762">
				<stop  offset="0" style="stop-color:#FF9F55"/>
				<stop  offset="1" style="stop-color:#FFD255"/>
			</linearGradient>
			<path class="st18" d="M2042.5,883.1c0,0-0.2,117.2-27.7,216.6l-58.6,36.7h-206.5c39.2-104.4,39.5-253.3,39.5-253.3H2042.5z"/>
			<polygon class="st15" points="1956.3,1136.4 1956.3,1098.9 2014.9,1098.9 			"/>
		</g>
		<g>
			<g>
				<path class="st19" d="M1907.3,1056.3c-3.3,0-5.9-2.6-5.9-5.9V969c0-3.3,2.6-5.9,5.9-5.9c3.3,0,5.9,2.6,5.9,5.9v81.4
					C1913.1,1053.7,1910.5,1056.3,1907.3,1056.3z"/>
			</g>
		</g>
	</g>
	<g>
		<g>
			<g>
				<path class="st20" d="M2447.3,1313.1l-36.8-32.1c-3-2.6-3.3-7.2-0.7-10.2c2.6-3,7.2-3.3,10.2-0.7l26,22.7l37.1-41.4
					c2.7-3,7.3-3.2,10.2-0.6c3,2.7,3.2,7.3,0.6,10.2L2447.3,1313.1z"/>
			</g>
		</g>
	</g>
	<g>
		<linearGradient id="SVGID_17_" gradientUnits="userSpaceOnUse" x1="635.7998" y1="468.9254" x2="1115.3184" y2="468.9254">
			<stop  offset="0" style="stop-color:#FF9F55"/>
			<stop  offset="1" style="stop-color:#FFD255"/>
		</linearGradient>
		<path class="st21" d="M1075.7,417.1c-4.9-18.8-12.3-36.6-22-53l22.4-33.6l-31-31l-31-31l-33.6,22.4c-16.4-9.6-34.1-17.1-53-22
			l-8-39.6h-43.9h-43.9l-8,39.6c-18.8,4.9-36.6,12.3-53,22l-33.6-22.4l-31,31l-31,31l22.4,33.6c-9.6,16.4-17.1,34.1-22,53l-39.6,8
			v43.9v43.9l39.6,8c4.9,18.8,12.3,36.6,22,53L675,607.4l31,31l31,31l33.6-22.4c16.4,9.6,34.1,17.1,53,22l8,39.6h43.9h43.9l8-39.6
			c18.8-4.9,36.6-12.3,53-22l33.6,22.4l31-31l31-31l-22.4-33.6c9.6-16.4,17.1-34.1,22-53l39.6-8v-43.9V425L1075.7,417.1z
			 M875.6,622.7c-84.9,0-153.8-68.9-153.8-153.8s68.9-153.8,153.8-153.8c85,0,153.8,68.9,153.8,153.8S960.5,622.7,875.6,622.7z"/>
	</g>
	<g>
		<linearGradient id="SVGID_18_" gradientUnits="userSpaceOnUse" x1="1077.8076" y1="237.7419" x2="1297.6396" y2="237.7419">
			<stop  offset="0" style="stop-color:#FF9F55"/>
			<stop  offset="1" style="stop-color:#FFD255"/>
		</linearGradient>
		<path class="st22" d="M1279.5,214c-2.2-8.6-5.7-16.8-10.1-24.3l10.3-15.4l-14.2-14.2l-14.2-14.2l-15.4,10.3
			c-7.5-4.4-15.7-7.8-24.3-10.1l-3.7-18.1h-20.1h-20.1l-3.7,18.1c-8.6,2.2-16.8,5.7-24.3,10.1l-15.4-10.3L1110,160l-14.2,14.2
			l10.3,15.4c-4.4,7.5-7.8,15.7-10.1,24.3l-18.1,3.7v20.1v20.1l18.1,3.7c2.2,8.6,5.7,16.8,10.1,24.3l-10.3,15.4l14.2,14.2l14.2,14.2
			l15.4-10.3c7.5,4.4,15.7,7.8,24.3,10.1l3.7,18.1h20.1h20.1l3.7-18.1c8.6-2.2,16.8-5.7,24.3-10.1l15.4,10.3l14.2-14.2l14.2-14.2
			l-10.3-15.4c4.4-7.5,7.8-15.7,10.1-24.3l18.1-3.7v-20.1v-20.1L1279.5,214z M1187.7,308.3c-38.9,0-70.5-31.6-70.5-70.5
			c0-38.9,31.6-70.5,70.5-70.5s70.5,31.6,70.5,70.5C1258.2,276.7,1226.7,308.3,1187.7,308.3z"/>
	</g>
	<linearGradient id="SVGID_19_" gradientUnits="userSpaceOnUse" x1="557.1836" y1="1118.7581" x2="1961.9941" y2="1118.7581">
		<stop  offset="0" style="stop-color:#FF9F55"/>
		<stop  offset="1" style="stop-color:#FFD255"/>
	</linearGradient>
	<circle class="st23" cx="1259.6" cy="1118.8" r="702.4"/>
	<linearGradient id="SVGID_20_" gradientUnits="userSpaceOnUse" x1="1301.2435" y1="1166.8723" x2="783.0054" y2="642.2106">
		<stop  offset="0" style="stop-color:#FF9340"/>
		<stop  offset="1" style="stop-color:#FFE8A8"/>
	</linearGradient>
	<path class="st24" d="M615,1157.3c0,231.5,112,436.9,284.8,564.9c-205.2-122.6-342.7-346.9-342.7-603.4
		c0-387.9,314.5-702.4,702.4-702.4c156.4,0,300.9,51.1,417.7,137.6c-105.2-62.9-228.3-99.1-359.8-99.1
		C929.5,454.9,615,769.4,615,1157.3z"/>
	
		<ellipse transform="matrix(0.7071 -0.7071 0.7071 0.7071 -422.1563 1218.3405)" class="st25" cx="1259.6" cy="1118.8" rx="635.3" ry="635.3"/>
	<g>
		<path class="st26" d="M1453.8,1061.3c9.2-19.6,12.9-116.7,12.9-116.7l-20-2.5c0,0-1.6,26.2-16.9,67.7
			c-4.6,12.4-9.7,32.4-10.7,34.5c-0.9,2.1-62.1,46-76.4,54.1c-6.7,3.8-21.2,13.5-30.5,25.2c-9.3,11.7-2.7,25.7-2.7,25.7
			c25.2,26.1,62.2-15.3,62.2-15.3S1437,1096.9,1453.8,1061.3z"/>
	</g>
	<rect x="1250.5" y="533.4" class="st27" width="18.1" height="65.7"/>
	<rect x="1250.5" y="1638.4" class="st27" width="18.1" height="65.7"/>
	
		<rect x="1803" y="1085.9" transform="matrix(-1.836970e-16 1 -1 -1.836970e-16 2930.8477 -693.332)" class="st27" width="18.1" height="65.7"/>
	<g>
		<g>
			<g>
				<path class="st26" d="M1451.4,962.9c0,0-4.6-3.9-6.4-7.6c-1.4-3-5.6-6.8-7.7-9c-2-2.2-8.6-14-9.8-17c-0.5-1.2-1.7-8.3-2.9-10.7
					c-1.3-2.3-4.4-6.8-2.3-7.8c2.1-1,6.1,2.2,6.1,2.2s-1-2.2,0.5-3.7c3.1-2.8,5.5-1.9,5.5-1.9s0.5-2.9,2-3.8c3.5-1.9,5.8-1,5.8-1
					s1.1-1.9,3.7-2.7c3.3-1,5.7,1.5,5.7,1.5s4.2-1.3,6.1,0.3c1.9,1.6,2.1,2.8,3.3,4.5c1.1,1.6,7.8,16.5,6.4,29.6
					c-1.3,13.1-1.9,30.5-1.9,30.5L1451.4,962.9z"/>
			</g>
		</g>
	</g>
	
		<rect x="698" y="1085.9" transform="matrix(-1.836970e-16 1 -1 -1.836970e-16 1825.8448 411.6709)" class="st27" width="18.1" height="65.7"/>
	
		<rect x="1641.2" y="1476.6" transform="matrix(-0.7071 0.7071 -0.7071 -0.7071 3884.5129 1409.8542)" class="st27" width="18.1" height="65.7"/>
	
		<rect x="859.9" y="695.2" transform="matrix(-0.7071 0.7071 -0.7071 -0.7071 1998.1567 628.5204)" class="st27" width="18.1" height="65.7"/>
	
		<rect x="859.9" y="1476.6" transform="matrix(-0.7071 -0.7071 0.7071 -0.7071 415.9915 3191.1816)" class="st27" width="18.1" height="65.7"/>
	
		<rect x="1641.2" y="695.2" transform="matrix(-0.7071 -0.7071 0.7071 -0.7071 2302.3826 2409.813)" class="st27" width="18.1" height="65.7"/>
	<g>
		<path class="st27" d="M1259.6,1672.1c-147.8,0-286.8-57.6-391.3-162.1c-104.5-104.5-162.1-243.5-162.1-391.3
			c0-147.8,57.6-286.8,162.1-391.3c104.5-104.5,243.5-162.1,391.3-162.1c147.8,0,286.8,57.6,391.3,162.1
			c104.5,104.5,162.1,243.5,162.1,391.3c0,147.8-57.6,286.8-162.1,391.3C1546.3,1614.5,1407.4,1672.1,1259.6,1672.1z M1259.6,567.1
			c-304.2,0-551.7,247.5-551.7,551.7c0,304.2,247.5,551.7,551.7,551.7c304.2,0,551.7-247.5,551.7-551.7
			C1811.2,814.6,1563.8,567.1,1259.6,567.1z"/>
	</g>
	<path class="st28" d="M876.7,1116c31.9-3.1,63.8-5.2,95.8-6.9c31.9-1.7,63.8-3,95.7-4c31.9-0.9,63.8-1.7,95.7-2
		c16-0.2,31.9-0.3,47.9-0.3c16-0.1,31.9,0,47.9,0l-11.4,4.6c26.4-26.3,53-52.3,79.8-78.2c26.9-25.8,53.8-51.5,81.2-76.8
		c27.3-25.3,54.8-50.5,82.7-75.2l21-18.5c7.1-6.1,14.1-12.3,21.2-18.3c14.1-12.2,28.4-24.2,42.9-36c-12,14.4-24.1,28.6-36.4,42.6
		c-6.1,7-12.4,14-18.5,21l-18.7,20.8c-25,27.7-50.4,54.9-76,82c-25.6,27.1-51.5,53.8-77.6,80.4c-26.1,26.5-52.4,52.9-78.9,79
		l-4.8,4.7l-6.6-0.1c-16-0.2-31.9-0.3-47.9-0.7c-16-0.3-31.9-0.6-47.8-1c-31.9-0.8-63.8-2-95.7-3.3c-31.9-1.5-63.8-3.2-95.7-5.4
		C940.5,1122.1,908.6,1119.5,876.7,1116z"/>
	<path class="st29" d="M1704.5,744.4c-94.5-66.7-209.8-105.8-334.3-105.8c-320.6,0-580.6,259.9-580.6,580.6
		c0,144.8,53,277.2,140.7,378.9C781.3,1493,684,1319.5,684,1123.3c0-320.6,259.9-580.6,580.6-580.6
		C1440.4,542.7,1598.1,620.9,1704.5,744.4z"/>
	<g>
		<linearGradient id="SVGID_21_" gradientUnits="userSpaceOnUse" x1="2134.9617" y1="337.5621" x2="2370.5637" y2="769.4983">
			<stop  offset="0" style="stop-color:#F0EEEE"/>
			<stop  offset="1" style="stop-color:#DBBCB4"/>
		</linearGradient>
		<path class="st30" d="M2190.6,429.8c0,0,76.3,27.7,153.1,94.8l-88.2,65.6c0,0-69.5-68.5-145.3-102.5L2190.6,429.8z"/>
		<linearGradient id="SVGID_22_" gradientUnits="userSpaceOnUse" x1="2470.2761" y1="700.0286" x2="2349.8569" y2="1129.3478">
			<stop  offset="0" style="stop-color:#F0EEEE"/>
			<stop  offset="1" style="stop-color:#DBBCB4"/>
		</linearGradient>
		<path class="st31" d="M2288.2,924.8c0,0,42.4-133.8,153.1-271.2l119.6,147.8c0,0-113.5,125-166.8,258.4L2288.2,924.8z"/>
		<linearGradient id="SVGID_23_" gradientUnits="userSpaceOnUse" x1="1589.1505" y1="326.9159" x2="1678.1558" y2="874.0369">
			<stop  offset="0" style="stop-color:#F0EEEE"/>
			<stop  offset="1" style="stop-color:#DBBCB4"/>
		</linearGradient>
		<path class="st32" d="M1639.8,819.8c0,0-97.3-97.2-163.5-260.8l191.3-50.8c0,0,53.7,160.9,145.2,268.3L1639.8,819.8z"/>
		<linearGradient id="SVGID_24_" gradientUnits="userSpaceOnUse" x1="1592.3848" y1="94.3967" x2="1553.1177" y2="528.9525">
			<stop  offset="0" style="stop-color:#F0EEEE"/>
			<stop  offset="1" style="stop-color:#DBBCB4"/>
		</linearGradient>
		<path class="st33" d="M1589.7,138.5c0,0-81.1,63.4-157.2,200.5l129.7,65.1c0,0,86.2-160.6,159.3-215L1589.7,138.5z"/>
		<linearGradient id="SVGID_25_" gradientUnits="userSpaceOnUse" x1="1759.202" y1="307.868" x2="1984.3326" y2="585.3549">
			<stop  offset="0" style="stop-color:#F0EEEE"/>
			<stop  offset="1" style="stop-color:#DBBCB4"/>
		</linearGradient>
		<path class="st34" d="M1762.4,344.9c0,0,80.4-11.2,179.7,12.3l-47.3,99.2c0,0-93.5-28-176.4-22.6L1762.4,344.9z"/>
	</g>
	<g>
		<g>
			<path class="st35" d="M383.1,1292.7l-2-3.7c0.1-0.1,11.7-6.5,28.1-18.4l2.5,3.4C395.1,1286.1,383.3,1292.7,383.1,1292.7z
				 M438.1,1252.8l-2.8-3.2c8.5-7.5,16.7-15.3,24.1-23.3l3.1,2.9C455,1237.3,446.8,1245.2,438.1,1252.8z M484.4,1203.2l-3.4-2.5
				c6.8-9.2,12.9-18.6,18.2-28l3.7,2C497.5,1184.3,491.3,1193.9,484.4,1203.2z M517,1143.8l-4-1.4c3.8-10.6,6.7-21.4,8.6-32.1
				l4.2,0.7C523.9,1121.9,521,1133,517,1143.8z M524.3,1077.1c-0.2-10.9-1.4-22.1-3.5-33.1l4.1-0.8c2.2,11.3,3.4,22.7,3.6,33.8
				L524.3,1077.1z M511.6,1011.9c-3.7-10.1-8.3-20.3-13.7-30.5l3.7-2c5.5,10.3,10.2,20.7,13.9,31L511.6,1011.9z M480.6,952.8
				c-2.3-3.4-4.7-6.8-7.3-10.3c-4.2-5.7-8.3-11.6-12.1-17.4l3.5-2.3c3.8,5.7,7.8,11.5,11.9,17.2c2.6,3.5,5,7,7.3,10.4L480.6,952.8z
				 M444,896c-5.3-10.1-10.2-20.4-14.5-30.7l3.9-1.6c4.2,10.2,9,20.4,14.3,30.3L444,896z M418.3,833.4c-3.2-10.9-5.9-22-7.9-33
				l4.1-0.8c2,10.9,4.6,21.8,7.8,32.5L418.3,833.4z M406,766.7c-0.5-7.2-0.8-14.5-0.8-21.7c0-4.1,0.1-8.2,0.2-12.3l4.2,0.2
				c-0.2,4-0.2,8-0.2,12.1c0,7.1,0.3,14.3,0.8,21.4L406,766.7z M413,699.7l-4.2-0.6c1.7-11.1,4.1-22.3,7.1-33.2l4.1,1.1
				C417,677.7,414.7,688.7,413,699.7z M430.7,635.3l-3.9-1.6c4.2-10.5,9.1-20.8,14.5-30.7l3.7,2C439.7,614.8,434.9,625,430.7,635.3z
				 M462.8,576.8l-3.4-2.5c6.6-9.3,13.8-18.1,21.4-26.3l3.1,2.9C476.4,558.9,469.3,567.7,462.8,576.8z M508.1,527.8l-2.7-3.2
				c8.8-7.3,18.1-14,27.6-19.9l2.2,3.6C525.9,514.1,516.8,520.6,508.1,527.8z M564.9,492.9l-1.6-3.9c10.5-4.5,21.4-8.1,32.3-10.7
				l1,4.1C585.8,485,575.2,488.6,564.9,492.9z M629.3,477.3l-0.3-4.2c1.6-0.1,3.3-0.2,5-0.3c9.7-0.4,19.3-1.2,28.5-2.4l0.5,4.2
				c-9.3,1.2-19,2-28.8,2.5C632.6,477.1,631,477.2,629.3,477.3z M696.4,468.4l-1-4.1c11-2.7,21.7-6,31.9-9.9l1.5,3.9
				C718.4,462.2,707.5,465.6,696.4,468.4z M759.6,444l-2-3.7c9.8-5.4,19.2-11.5,28-18.1l2.5,3.4C779.1,432.3,769.5,438.5,759.6,444z
				 M813.7,403.3l-3-3c7.9-7.9,15.2-16.5,21.7-25.4l3.4,2.5C829.2,386.5,821.7,395.2,813.7,403.3z M853.8,348.5l-3.8-1.9
				c3.7-7.2,5.3-11.7,5.4-11.9l4,1.4C859.3,336.6,857.6,341.2,853.8,348.5z"/>
		</g>
		<g>
			<g>
				<g>
					<polygon class="st36" points="1019.5,181.8 876,316.3 890.1,258.9 					"/>
				</g>
			</g>
			<g>
				<g>
					<polygon class="st37" points="1019.5,181.8 922.5,206.4 908,248.3 					"/>
				</g>
			</g>
			<g>
				<g>
					<polygon class="st38" points="909,285.3 928.6,295.2 1019.5,181.8 					"/>
				</g>
			</g>
		</g>
	</g>
	<path class="st0" d="M2284.2,646.2h-191.7c-1.7,0-3.2-1.4-3.2-3.2v-2c0-1.7,1.4-3.2,3.2-3.2h191.7c1.7,0,3.2,1.4,3.2,3.2v2
		C2287.4,644.8,2286,646.2,2284.2,646.2z"/>
	<path class="st0" d="M2210.7,682.4H2089c-1.7,0-3.2-1.4-3.2-3.2v-2c0-1.7,1.4-3.2,3.2-3.2h121.7c1.7,0,3.2,1.4,3.2,3.2v2
		C2213.9,681,2212.5,682.4,2210.7,682.4z"/>
	<path class="st0" d="M2229.5,718.6h-145.3c-1.7,0-3.2-1.4-3.2-3.2v-2c0-1.7,1.4-3.2,3.2-3.2h145.3c1.7,0,3.2,1.4,3.2,3.2v2
		C2232.7,717.2,2231.2,718.6,2229.5,718.6z"/>
	<path class="st0" d="M2285.9,1186.8h-193.8c-1.2,0-2.1-0.9-2.1-2.1v-4.1c0-1.2,0.9-2.1,2.1-2.1h193.8c1.2,0,2.1,0.9,2.1,2.1v4.1
		C2288,1185.8,2287.1,1186.8,2285.9,1186.8z"/>
	<path class="st0" d="M2178.6,1223h-90c-1.2,0-2.1-0.9-2.1-2.1v-4.1c0-1.2,0.9-2.1,2.1-2.1h90c1.2,0,2.1,0.9,2.1,2.1v4.1
		C2180.7,1222.1,2179.8,1223,2178.6,1223z"/>
	<path class="st0" d="M2241.1,1259.2h-157.3c-1.2,0-2.1-0.9-2.1-2.1v-4.1c0-1.2,0.9-2.1,2.1-2.1h157.3c1.2,0,2.1,0.9,2.1,2.1v4.1
		C2243.2,1258.3,2242.3,1259.2,2241.1,1259.2z"/>
	<path class="st0" d="M2527.4,1458.6h-161.3c-1.8,0-3.2-1.4-3.2-3.2v-1.9c0-1.8,1.4-3.2,3.2-3.2h161.3c1.8,0,3.2,1.4,3.2,3.2v1.9
		C2530.6,1457.2,2529.2,1458.6,2527.4,1458.6z"/>
	<path class="st0" d="M2451.7,1494.8h-90.3c-1.8,0-3.2-1.4-3.2-3.2v-1.9c0-1.8,1.4-3.2,3.2-3.2h90.3c1.8,0,3.2,1.4,3.2,3.2v1.9
		C2454.9,1493.4,2453.5,1494.8,2451.7,1494.8z"/>
	<path class="st0" d="M2470.9,1531H2355c-1.8,0-3.2-1.4-3.2-3.2v-1.9c0-1.8,1.4-3.2,3.2-3.2h115.9c1.8,0,3.2,1.4,3.2,3.2v1.9
		C2474.1,1529.6,2472.7,1531,2470.9,1531z"/>
	<linearGradient id="SVGID_26_" gradientUnits="userSpaceOnUse" x1="2568.5757" y1="441.5178" x2="2674.5957" y2="1670.5771">
		<stop  offset="0" style="stop-color:#BA572B"/>
		<stop  offset="1" style="stop-color:#803429"/>
	</linearGradient>
	<path class="st39" d="M2655.3,696v1003.4c0,23-17.1,42.1-39.2,45.2V650.7C2638.2,653.9,2655.3,672.9,2655.3,696z"/>
	<linearGradient id="SVGID_27_" gradientUnits="userSpaceOnUse" x1="559.2256" y1="1822.1299" x2="559.2256" y2="1474.698">
		<stop  offset="0" style="stop-color:#3076A1"/>
		<stop  offset="1" style="stop-color:#639C38"/>
	</linearGradient>
	<path class="st40" d="M860.6,1577.1v208.4H297c-21.6,0-39.1-17.5-39.1-39.1v-130.2c0-1.1,0.1-2.1,0.1-3.2
		c1.5-18.9,16.4-33.9,35.2-35.7c1.3-0.1,2.5-0.2,3.8-0.2H860.6z"/>
	<path class="st41" d="M966.9,1577.1v21.5H957v165.5h9.9v21.5h-409c-21.6,0-39.1-17.5-39.1-39.1v-130.2c0-1.1,0.1-2.1,0.1-3.2
		c1.5-18.9,16.5-34,35.4-35.7c1.2-0.1,2.4-0.2,3.6-0.2H966.9z"/>
	<defs>
		<filter id="Adobe_OpacityMaskFilter_2_" filterUnits="userSpaceOnUse" x="548.8" y="1598.6" width="408.2" height="165.5">
			<feFlood  style="flood-color:white;flood-opacity:1" result="back"/>
			<feBlend  in="SourceGraphic" in2="back" mode="normal"/>
		</filter>
	</defs>
	<mask maskUnits="userSpaceOnUse" x="548.8" y="1598.6" width="408.2" height="165.5" id="SVGID_28_">
		<g class="st42">
			<defs>
				<filter id="Adobe_OpacityMaskFilter_3_" filterUnits="userSpaceOnUse" x="548.8" y="1598.6" width="408.2" height="165.5">
					<feFlood  style="flood-color:white;flood-opacity:1" result="back"/>
					<feBlend  in="SourceGraphic" in2="back" mode="normal"/>
				</filter>
			</defs>
			<mask maskUnits="userSpaceOnUse" x="548.8" y="1598.6" width="408.2" height="165.5" id="SVGID_28_">
				<g class="st43">
				</g>
			</mask>
			<linearGradient id="SVGID_29_" gradientUnits="userSpaceOnUse" x1="752.9233" y1="1764.8812" x2="752.9233" y2="1509.6141">
				<stop  offset="0" style="stop-color:#FFFFFF"/>
				<stop  offset="1" style="stop-color:#989898"/>
			</linearGradient>
			<path class="st44" d="M957,1764.1H587.4c-21.3,0-38.6-17.3-38.6-38.6v-88.3c0-21.3,17.3-38.6,38.6-38.6H957V1764.1z"/>
		</g>
	</mask>
	<linearGradient id="SVGID_30_" gradientUnits="userSpaceOnUse" x1="752.9233" y1="1764.8812" x2="752.9233" y2="1509.6141">
		<stop  offset="0" style="stop-color:#EBD8D1"/>
		<stop  offset="1" style="stop-color:#FAE7E0"/>
	</linearGradient>
	<path class="st45" d="M957,1764.1H587.4c-21.3,0-38.6-17.3-38.6-38.6v-88.3c0-21.3,17.3-38.6,38.6-38.6H957V1764.1z"/>
	<defs>
		<filter id="Adobe_OpacityMaskFilter_4_" filterUnits="userSpaceOnUse" x="732.5" y="1680.5" width="159.1" height="4.1">
			<feFlood  style="flood-color:white;flood-opacity:1" result="back"/>
			<feBlend  in="SourceGraphic" in2="back" mode="normal"/>
		</filter>
	</defs>
	<mask maskUnits="userSpaceOnUse" x="732.5" y="1680.5" width="159.1" height="4.1" id="SVGID_31_">
		<g class="st46">
			<defs>
				<filter id="Adobe_OpacityMaskFilter_5_" filterUnits="userSpaceOnUse" x="732.5" y="1680.5" width="159.1" height="4.1">
					<feFlood  style="flood-color:white;flood-opacity:1" result="back"/>
					<feBlend  in="SourceGraphic" in2="back" mode="normal"/>
				</filter>
			</defs>
			<mask maskUnits="userSpaceOnUse" x="732.5" y="1680.5" width="159.1" height="4.1" id="SVGID_31_">
				<g class="st47">
				</g>
			</mask>
			<linearGradient id="SVGID_32_" gradientUnits="userSpaceOnUse" x1="812.001" y1="1743.282" x2="812.001" y2="1481.2731">
				<stop  offset="0" style="stop-color:#FFFFFF"/>
				<stop  offset="1" style="stop-color:#989898"/>
			</linearGradient>
			<rect x="732.5" y="1680.5" class="st48" width="159.1" height="4.1"/>
		</g>
	</mask>
	<linearGradient id="SVGID_33_" gradientUnits="userSpaceOnUse" x1="812.001" y1="1743.282" x2="812.001" y2="1481.2731">
		<stop  offset="0" style="stop-color:#BFB0AA"/>
		<stop  offset="1" style="stop-color:#FAE7E0"/>
	</linearGradient>
	<rect x="732.5" y="1680.5" class="st49" width="159.1" height="4.1"/>
	<defs>
		<filter id="Adobe_OpacityMaskFilter_6_" filterUnits="userSpaceOnUse" x="657.9" y="1693" width="169.9" height="4.1">
			<feFlood  style="flood-color:white;flood-opacity:1" result="back"/>
			<feBlend  in="SourceGraphic" in2="back" mode="normal"/>
		</filter>
	</defs>
	<mask maskUnits="userSpaceOnUse" x="657.9" y="1693" width="169.9" height="4.1" id="SVGID_34_">
		<g class="st50">
			<defs>
				<filter id="Adobe_OpacityMaskFilter_7_" filterUnits="userSpaceOnUse" x="657.9" y="1693" width="169.9" height="4.1">
					<feFlood  style="flood-color:white;flood-opacity:1" result="back"/>
					<feBlend  in="SourceGraphic" in2="back" mode="normal"/>
				</filter>
			</defs>
			<mask maskUnits="userSpaceOnUse" x="657.9" y="1693" width="169.9" height="4.1" id="SVGID_34_">
				<g class="st51">
				</g>
			</mask>
			<linearGradient id="SVGID_35_" gradientUnits="userSpaceOnUse" x1="742.8271" y1="1743.2821" x2="742.8271" y2="1481.2736">
				<stop  offset="0" style="stop-color:#FFFFFF"/>
				<stop  offset="1" style="stop-color:#989898"/>
			</linearGradient>
			<rect x="657.9" y="1693" class="st52" width="169.9" height="4.1"/>
		</g>
	</mask>
	<linearGradient id="SVGID_36_" gradientUnits="userSpaceOnUse" x1="742.8271" y1="1743.2821" x2="742.8271" y2="1481.2736">
		<stop  offset="0" style="stop-color:#BFB0AA"/>
		<stop  offset="1" style="stop-color:#FAE7E0"/>
	</linearGradient>
	<rect x="657.9" y="1693" class="st53" width="169.9" height="4.1"/>
	<g>
		
			<linearGradient id="SVGID_37_" gradientUnits="userSpaceOnUse" x1="-8176.3213" y1="1497.2769" x2="-7423.2603" y2="1497.2769" gradientTransform="matrix(-1 0 0 1 -7224.1479 0)">
			<stop  offset="0" style="stop-color:#FF9F55"/>
			<stop  offset="1" style="stop-color:#FFD255"/>
		</linearGradient>
		<path class="st54" d="M247.5,1577.7h562.1c22.4,0,40.6-18.2,40.6-40.6v-79.7c0-22.4-18.2-40.6-40.6-40.6H247.5V1577.7z"/>
		<path class="st55" d="M589.3,1457.4v79.7c0,22.4-18.2,40.6-40.6,40.6H141.1v-16.6h9.9v-127.8h-9.9v-16.6h407.5
			c20.8,0,37.9,15.6,40.3,35.7C589.2,1454.2,589.3,1455.8,589.3,1457.4z"/>
		<defs>
			<filter id="Adobe_OpacityMaskFilter_8_" filterUnits="userSpaceOnUse" x="151" y="1433.4" width="415.7" height="127.8">
				<feFlood  style="flood-color:white;flood-opacity:1" result="back"/>
				<feBlend  in="SourceGraphic" in2="back" mode="normal"/>
			</filter>
		</defs>
		<mask maskUnits="userSpaceOnUse" x="151" y="1433.4" width="415.7" height="127.8" id="SVGID_38_">
			<g class="st56">
				<defs>
					<filter id="Adobe_OpacityMaskFilter_9_" filterUnits="userSpaceOnUse" x="151" y="1433.4" width="415.7" height="127.8">
						<feFlood  style="flood-color:white;flood-opacity:1" result="back"/>
						<feBlend  in="SourceGraphic" in2="back" mode="normal"/>
					</filter>
				</defs>
				<mask maskUnits="userSpaceOnUse" x="151" y="1433.4" width="415.7" height="127.8" id="SVGID_38_">
					<g class="st57">
					</g>
				</mask>
				<linearGradient id="SVGID_39_" gradientUnits="userSpaceOnUse" x1="358.8315" y1="1563.3092" x2="358.8315" y2="1368.7579">
					<stop  offset="0" style="stop-color:#FFFFFF"/>
					<stop  offset="1" style="stop-color:#989898"/>
				</linearGradient>
				<path class="st58" d="M151,1561.2h375.2c22.4,0,40.5-18.1,40.5-40.5v-46.9c0-22.4-18.1-40.5-40.5-40.5H151V1561.2z"/>
			</g>
		</mask>
		<linearGradient id="SVGID_40_" gradientUnits="userSpaceOnUse" x1="358.8315" y1="1563.3092" x2="358.8315" y2="1368.7579">
			<stop  offset="0" style="stop-color:#EBD8D1"/>
			<stop  offset="1" style="stop-color:#FAE7E0"/>
		</linearGradient>
		<path class="st59" d="M151,1561.2h375.2c22.4,0,40.5-18.1,40.5-40.5v-46.9c0-22.4-18.1-40.5-40.5-40.5H151V1561.2z"/>
		<defs>
			<filter id="Adobe_OpacityMaskFilter_10_" filterUnits="userSpaceOnUse" x="216.5" y="1496.6" width="159.1" height="3.2">
				<feFlood  style="flood-color:white;flood-opacity:1" result="back"/>
				<feBlend  in="SourceGraphic" in2="back" mode="normal"/>
			</filter>
		</defs>
		<mask maskUnits="userSpaceOnUse" x="216.5" y="1496.6" width="159.1" height="3.2" id="SVGID_41_">
			<g class="st60">
				<defs>
					<filter id="Adobe_OpacityMaskFilter_11_" filterUnits="userSpaceOnUse" x="216.5" y="1496.6" width="159.1" height="3.2">
						<feFlood  style="flood-color:white;flood-opacity:1" result="back"/>
						<feBlend  in="SourceGraphic" in2="back" mode="normal"/>
					</filter>
				</defs>
				<mask maskUnits="userSpaceOnUse" x="216.5" y="1496.6" width="159.1" height="3.2" id="SVGID_41_">
					<g class="st61">
					</g>
				</mask>
				<linearGradient id="SVGID_42_" gradientUnits="userSpaceOnUse" x1="296.0323" y1="1555.4581" x2="296.0323" y2="1256.8062">
					<stop  offset="0" style="stop-color:#FFFFFF"/>
					<stop  offset="1" style="stop-color:#989898"/>
				</linearGradient>
				<polygon class="st62" points="216.5,1499.8 375.6,1499.8 375.6,1496.6 216.5,1496.6 				"/>
			</g>
		</mask>
		<linearGradient id="SVGID_43_" gradientUnits="userSpaceOnUse" x1="296.0323" y1="1555.4581" x2="296.0323" y2="1256.8062">
			<stop  offset="0" style="stop-color:#BFB0AA"/>
			<stop  offset="1" style="stop-color:#FAE7E0"/>
		</linearGradient>
		<polygon class="st63" points="216.5,1499.8 375.6,1499.8 375.6,1496.6 216.5,1496.6 		"/>
		<defs>
			<filter id="Adobe_OpacityMaskFilter_12_" filterUnits="userSpaceOnUse" x="280.3" y="1506.3" width="169.9" height="3.2">
				<feFlood  style="flood-color:white;flood-opacity:1" result="back"/>
				<feBlend  in="SourceGraphic" in2="back" mode="normal"/>
			</filter>
		</defs>
		<mask maskUnits="userSpaceOnUse" x="280.3" y="1506.3" width="169.9" height="3.2" id="SVGID_44_">
			<g class="st64">
				<defs>
					<filter id="Adobe_OpacityMaskFilter_13_" filterUnits="userSpaceOnUse" x="280.3" y="1506.3" width="169.9" height="3.2">
						<feFlood  style="flood-color:white;flood-opacity:1" result="back"/>
						<feBlend  in="SourceGraphic" in2="back" mode="normal"/>
					</filter>
				</defs>
				<mask maskUnits="userSpaceOnUse" x="280.3" y="1506.3" width="169.9" height="3.2" id="SVGID_44_">
					<g class="st65">
					</g>
				</mask>
				<linearGradient id="SVGID_45_" gradientUnits="userSpaceOnUse" x1="365.2061" y1="1555.4586" x2="365.2061" y2="1256.7972">
					<stop  offset="0" style="stop-color:#FFFFFF"/>
					<stop  offset="1" style="stop-color:#989898"/>
				</linearGradient>
				<polygon class="st66" points="280.3,1509.4 450.1,1509.4 450.1,1506.3 280.3,1506.3 				"/>
			</g>
		</mask>
		<linearGradient id="SVGID_46_" gradientUnits="userSpaceOnUse" x1="365.2061" y1="1555.4586" x2="365.2061" y2="1256.7972">
			<stop  offset="0" style="stop-color:#BFB0AA"/>
			<stop  offset="1" style="stop-color:#FAE7E0"/>
		</linearGradient>
		<polygon class="st67" points="280.3,1509.4 450.1,1509.4 450.1,1506.3 280.3,1506.3 		"/>
	</g>
	<g>
		<linearGradient id="SVGID_47_" gradientUnits="userSpaceOnUse" x1="667.9038" y1="1423.0442" x2="667.9038" y2="1218.9639">
			<stop  offset="0" style="stop-color:#3076A1"/>
			<stop  offset="1" style="stop-color:#639C38"/>
		</linearGradient>
		<path class="st68" d="M1004.9,1416.8H356.3c-14,0-25.3-11.3-25.3-25.3v-60.8c0-14,11.3-25.3,25.3-25.3h648.6V1416.8z"/>
		<path class="st41" d="M1101.3,1316.8v88.5h9.9v11.5H687.5c-13.5,0-24.4-10.9-24.4-24.4v-62.6c0-13.5,10.9-24.4,24.4-24.4h423.7
			v11.5H1101.3z"/>
		<defs>
			<filter id="Adobe_OpacityMaskFilter_14_" filterUnits="userSpaceOnUse" x="682.7" y="1316.8" width="418.6" height="88.5">
				<feFlood  style="flood-color:white;flood-opacity:1" result="back"/>
				<feBlend  in="SourceGraphic" in2="back" mode="normal"/>
			</filter>
		</defs>
		<mask maskUnits="userSpaceOnUse" x="682.7" y="1316.8" width="418.6" height="88.5" id="SVGID_48_">
			<g class="st69">
				<defs>
					<filter id="Adobe_OpacityMaskFilter_15_" filterUnits="userSpaceOnUse" x="682.7" y="1316.8" width="418.6" height="88.5">
						<feFlood  style="flood-color:white;flood-opacity:1" result="back"/>
						<feBlend  in="SourceGraphic" in2="back" mode="normal"/>
					</filter>
				</defs>
				<mask maskUnits="userSpaceOnUse" x="682.7" y="1316.8" width="418.6" height="88.5" id="SVGID_48_">
					<g class="st70">
					</g>
				</mask>
				<linearGradient id="SVGID_49_" gradientUnits="userSpaceOnUse" x1="892.0195" y1="1406.2416" x2="892.0195" y2="1263.5468">
					<stop  offset="0" style="stop-color:#FFFFFF"/>
					<stop  offset="1" style="stop-color:#989898"/>
				</linearGradient>
				<path class="st71" d="M1101.3,1405.3H707.2c-13.5,0-24.4-10.9-24.4-24.4v-39.6c0-13.5,10.9-24.4,24.4-24.4h394.1V1405.3z"/>
			</g>
		</mask>
		<linearGradient id="SVGID_50_" gradientUnits="userSpaceOnUse" x1="892.0195" y1="1406.2416" x2="892.0195" y2="1263.5468">
			<stop  offset="0" style="stop-color:#EBD8D1"/>
			<stop  offset="1" style="stop-color:#FAE7E0"/>
		</linearGradient>
		<path class="st72" d="M1101.3,1405.3H707.2c-13.5,0-24.4-10.9-24.4-24.4v-39.6c0-13.5,10.9-24.4,24.4-24.4h394.1V1405.3z"/>
		<defs>
			<filter id="Adobe_OpacityMaskFilter_16_" filterUnits="userSpaceOnUse" x="876.7" y="1335.7" width="159.1" height="3.2">
				<feFlood  style="flood-color:white;flood-opacity:1" result="back"/>
				<feBlend  in="SourceGraphic" in2="back" mode="normal"/>
			</filter>
		</defs>
		<mask maskUnits="userSpaceOnUse" x="876.7" y="1335.7" width="159.1" height="3.2" id="SVGID_51_">
			<g class="st73">
				<defs>
					<filter id="Adobe_OpacityMaskFilter_17_" filterUnits="userSpaceOnUse" x="876.7" y="1335.7" width="159.1" height="3.2">
						<feFlood  style="flood-color:white;flood-opacity:1" result="back"/>
						<feBlend  in="SourceGraphic" in2="back" mode="normal"/>
					</filter>
				</defs>
				<mask maskUnits="userSpaceOnUse" x="876.7" y="1335.7" width="159.1" height="3.2" id="SVGID_51_">
					<g class="st74">
					</g>
				</mask>
				<linearGradient id="SVGID_52_" gradientUnits="userSpaceOnUse" x1="956.2784" y1="1450.7517" x2="956.2784" y2="1002.6473">
					<stop  offset="0" style="stop-color:#FFFFFF"/>
					<stop  offset="1" style="stop-color:#989898"/>
				</linearGradient>
				<rect x="876.7" y="1335.7" class="st75" width="159.1" height="3.2"/>
			</g>
		</mask>
		<linearGradient id="SVGID_53_" gradientUnits="userSpaceOnUse" x1="956.2784" y1="1450.7517" x2="956.2784" y2="1002.6473">
			<stop  offset="0" style="stop-color:#BFB0AA"/>
			<stop  offset="1" style="stop-color:#FAE7E0"/>
		</linearGradient>
		<rect x="876.7" y="1335.7" class="st76" width="159.1" height="3.2"/>
		<defs>
			<filter id="Adobe_OpacityMaskFilter_18_" filterUnits="userSpaceOnUse" x="802.2" y="1367.3" width="169.9" height="2.2">
				<feFlood  style="flood-color:white;flood-opacity:1" result="back"/>
				<feBlend  in="SourceGraphic" in2="back" mode="normal"/>
			</filter>
		</defs>
		<mask maskUnits="userSpaceOnUse" x="802.2" y="1367.3" width="169.9" height="2.2" id="SVGID_54_">
			<g class="st77">
				<defs>
					<filter id="Adobe_OpacityMaskFilter_19_" filterUnits="userSpaceOnUse" x="802.2" y="1367.3" width="169.9" height="2.2">
						<feFlood  style="flood-color:white;flood-opacity:1" result="back"/>
						<feBlend  in="SourceGraphic" in2="back" mode="normal"/>
					</filter>
				</defs>
				<mask maskUnits="userSpaceOnUse" x="802.2" y="1367.3" width="169.9" height="2.2" id="SVGID_54_">
					<g class="st78">
					</g>
				</mask>
				<linearGradient id="SVGID_55_" gradientUnits="userSpaceOnUse" x1="887.105" y1="1450.757" x2="887.105" y2="1002.6095">
					<stop  offset="0" style="stop-color:#FFFFFF"/>
					<stop  offset="1" style="stop-color:#989898"/>
				</linearGradient>
				<rect x="802.2" y="1367.3" class="st79" width="169.9" height="2.2"/>
			</g>
		</mask>
		<linearGradient id="SVGID_56_" gradientUnits="userSpaceOnUse" x1="887.105" y1="1450.757" x2="887.105" y2="1002.6095">
			<stop  offset="0" style="stop-color:#BFB0AA"/>
			<stop  offset="1" style="stop-color:#FAE7E0"/>
		</linearGradient>
		<rect x="802.2" y="1367.3" class="st80" width="169.9" height="2.2"/>
	</g>
	<linearGradient id="SVGID_57_" gradientUnits="userSpaceOnUse" x1="612.4565" y1="1607.8121" x2="612.4565" y2="1566.6522">
		<stop  offset="0" style="stop-color:#FFFFFF"/>
		<stop  offset="1" style="stop-color:#9C9C9C"/>
	</linearGradient>
	<path class="st81" d="M966.9,1577.3v21.3H957v14.5H258c1.5-18.9,16.4-33.9,35.2-35.7H966.9z"/>
	<linearGradient id="SVGID_58_" gradientUnits="userSpaceOnUse" x1="495.7159" y1="1449.4351" x2="495.7159" y2="1419.3301">
		<stop  offset="0" style="stop-color:#FFFFFF"/>
		<stop  offset="1" style="stop-color:#9C9C9C"/>
	</linearGradient>
	<path class="st82" d="M850.2,1452.6h-699v-14.5H151v-4.7h-9.7v-16.6H815C833.8,1418.6,848.7,1433.7,850.2,1452.6z"/>
	<g>
		<g>
			<path class="st83" d="M2118.3,1468c0,0-83,12.4-204.2,76.8C1793,1609.1,2009,1564.2,2118.3,1468z"/>
			<path class="st84" d="M1897.8,1554.2c0,0,60.3-114.8,153.9-167.3c0,0-27.2,79.7-126,165.3S1897.8,1554.2,1897.8,1554.2z"/>
			<path class="st85" d="M1849.6,1475.6c0,0-62.2-76-87.1-110.6c-24.9-34.6,52.2,161.7,58.6,182.4
				C1827.5,1568.2,1853.8,1586.2,1849.6,1475.6z"/>
			<path class="st86" d="M1909.1,1593.1c27.6-41.5,47-228.1,47-228.1c-48.4,40.1-94,220.3-94,220.3S1881.4,1634.6,1909.1,1593.1z"/>
			<path class="st87" d="M1902.8,1574.3c8.3-17.6-2.8-246.4-9.4-225.7c-6.6,20.7-44.3,106.4-44.3,106.4
				C1843.6,1507,1894.5,1591.9,1902.8,1574.3z"/>
			<path class="st88" d="M1839.1,1523.6c-14.7-26.7-159.5-169.6-159.5-169.6c1.4,44.2,91.2,149.3,91.2,149.3
				S1853.8,1550.2,1839.1,1523.6z"/>
			<path class="st84" d="M1909.1,1590.1c-167.3-61.6-324.8-29.6-324.8-29.6c23,31.6,241.9,29.6,241.9,29.6H1909.1z"/>
			<path class="st89" d="M1874,1595.5c-85-92.6-285.4-137.2-285.4-137.2c59.2,60.5,144.2,113.5,144.2,113.5S1959,1688.1,1874,1595.5
				z"/>
			<path class="st90" d="M1891.1,1585.4c-49.8-92-239.2-183-239.2-183c0,29,153.5,164.1,153.5,164.1S1940.9,1677.4,1891.1,1585.4z"
				/>
			<path class="st91" d="M1889.7,1594.5c37.3-6.8,175.5-142.4,175.5-142.4c-35.9,6.9-175.5,95.3-175.5,95.3
				S1852.5,1601.3,1889.7,1594.5z"/>
			<path class="st92" d="M1956.1,1595.1c47,2,197.7-91.8,197.7-91.8c-45.1,0-148.6,27.3-199.2,41.5c-19.1,5.3-35.2,18-45,35.3
				C1882.6,1627.7,1915.1,1593.3,1956.1,1595.1z"/>
			<path class="st93" d="M2130.2,1554.3c-14-1.1-104.5,2.9-143.3,4.7c-15.4,0.7-30.2,6.4-41.8,16.4c-16.8,14.5-11.8,25.3,11,30
				C1986.5,1611.6,2148.2,1555.8,2130.2,1554.3z"/>
			<path class="st94" d="M1885.8,1578.8c3.3-14.2,3.9-28.9,1.9-43.3c-6.6-49.2-29.5-201.7-63-224.8c0,0-15.2,197.5,16.6,264
				C1865.2,1624.5,1879.4,1606.1,1885.8,1578.8z"/>
			<path class="st95" d="M1885.6,1605.9c19-18.1,96.5-193.9,96.5-193.9c-72.5,42.4-104.8,128.4-104.8,128.4
				S1866.5,1624,1885.6,1605.9z"/>
		</g>
		<linearGradient id="SVGID_59_" gradientUnits="userSpaceOnUse" x1="1707.0801" y1="1696.9517" x2="2036.9414" y2="1696.9517">
			<stop  offset="0" style="stop-color:#1C3B47"/>
			<stop  offset="1" style="stop-color:#31535F"/>
		</linearGradient>
		<polygon class="st96" points="1707.1,1619.3 1731,1774.6 2013,1774.6 2036.9,1619.3 		"/>
		<linearGradient id="SVGID_60_" gradientUnits="userSpaceOnUse" x1="1846.2754" y1="1648.4895" x2="2029.5219" y2="1884.0919">
			<stop  offset="0" style="stop-color:#1C3B47"/>
			<stop  offset="1" style="stop-color:#31535F"/>
		</linearGradient>
		<path class="st97" d="M2036.9,1619.3h-329.9l23.9,155.4h59.3c0,0,50.7-99.5,239.7-110.4L2036.9,1619.3z"/>
		<linearGradient id="SVGID_61_" gradientUnits="userSpaceOnUse" x1="1853.8708" y1="1532.5314" x2="1878.7397" y2="1641.1697">
			<stop  offset="0" style="stop-color:#1C3B47"/>
			<stop  offset="1" style="stop-color:#31535F"/>
		</linearGradient>
		<rect x="1694" y="1585.8" class="st98" width="356" height="51.9"/>
	</g>
	
		<linearGradient id="SVGID_62_" gradientUnits="userSpaceOnUse" x1="854.2127" y1="678.6516" x2="1005.3919" y2="984.9363" gradientTransform="matrix(1 0 0 1 204.111 0)">
		<stop  offset="0" style="stop-color:#FF9F55"/>
		<stop  offset="1" style="stop-color:#FFD255"/>
	</linearGradient>
	<polygon class="st99" points="1047.1,777.3 1237.5,777.3 1237.5,920.3 1237.5,950.4 1208.5,920.3 1047.1,920.3 	"/>
	<g>
		<g>
			<g>
				<g>
					<g>
						<g>
							<path class="st0" d="M1143.1,861.4l-19.6-8.5c-1.6-0.7-2.3-2.6-1.6-4.2c0.7-1.6,2.6-2.3,4.2-1.6l13.9,6l10-22.2
								c0.7-1.6,2.6-2.3,4.2-1.6c1.6,0.7,2.3,2.6,1.6,4.2L1143.1,861.4z"/>
						</g>
					</g>
				</g>
			</g>
		</g>
		<g>
			<path class="st0" d="M1165.3,880.1c-18.1,12.7-43.1,8.3-55.8-9.7c-12.7-18.1-8.3-43.1,9.7-55.8c18.1-12.7,43.1-8.3,55.8,9.7
				C1187.8,842.3,1183.4,867.4,1165.3,880.1z M1122.6,819.2c-15.5,10.9-19.2,32.3-8.4,47.8c10.9,15.5,32.3,19.2,47.8,8.4
				c15.5-10.9,19.2-32.3,8.4-47.8C1159.5,812,1138.1,808.3,1122.6,819.2z"/>
		</g>
	</g>
	<g>
		<g>
			<path class="st100" d="M1393.2,1690.9c0,0-9.4,17.3-10.7,19.9s-28.6-12.5-28.6-12.5l5.7-22.6
				C1359.5,1675.7,1390.5,1687,1393.2,1690.9z"/>
		</g>
	</g>
	<g>
		<g>
			<path class="st101" d="M1383.6,1708.5c0,0,5.1,14.4,12.2,22.5c7.1,8.1,38.2,24.1,41.6,31c2.5,5,3.4,21.7-47.9,1.2
				c-36.4-14.6-55.3-18.1-57.1-25.4c-1.7-7.4,21.9-41.5,21.9-41.5S1361.3,1702.7,1383.6,1708.5z"/>
		</g>
	</g>
	<g>
		<path class="st101" d="M1117.3,1784c0,0-7.6,26.7-9.7,35.8c-2.1,9,1.1,32.7-1.1,41.7c-2.1,9-7.3,11.6-11.5,10.4
			c-4.2-1.2-14.9-4.8-24-15.5c-9.1-10.8-5.5-30.6-6.6-43.3c-1-11.9-6.3-18.1,4-28c13.2-12.7,15-20,15-20L1117.3,1784z"/>
	</g>
	<g>
		<path class="st102" d="M1303.3,1410.7c0,0-4.6,52.2-9.3,83.4c-4.3,28.8-28.3,119.7-36.7,131.7c-15.3,21.8-50.2,58.1-57.5,67.6
			c-11.8,15.6-81.9,108.6-81.9,108.6s-19.7-4.4-45.4-28.8c0,0,73.1-82.8,84-107.3c8.3-18.6,44.1-72.2,43.9-80.8
			c-0.3-14.4,10-174.5,24.5-203.1C1239.6,1353.4,1303.3,1410.7,1303.3,1410.7z"/>
	</g>
	<g>
		<path class="st102" d="M1347.6,1379.7c0,0,91,82.5,102.2,101.3c11.2,18.7,18.3,21.1,13.6,41.1c-4.8,19.9-74.1,180.7-75.3,185.8
			c-1.3,5.5-36.7-11.1-39.9-11.5c-3.2-0.4,14.9-48.5,21.6-68c6.8-19.5,27.6-86.3,33.2-96.3c5.6-10-112.2-71-124.6-85.7
			C1266,1431.5,1283.8,1363,1347.6,1379.7z"/>
	</g>
	<path class="st103" d="M1353.8,1387.5c0,0-58.6,64.7-154.9,99.5l15.2-57.4L1353.8,1387.5z"/>
	<path class="st102" d="M1359.6,1248.4c0,0-1.7,13-10.4,17.4l-7.5-14.2L1359.6,1248.4z"/>
	<path class="st102" d="M1229.7,1306.4c-1.2,22.1-6.1,45.5-16.1,69.4c0,0-31.5,13-46.7-6.7c-6-7.8-11.2-33.9-13.4-67.2
		c-3.4-51.3,0.4-119.6,19.5-164.3C1173,1137.6,1235,1210.7,1229.7,1306.4z"/>
	<path class="st103" d="M1229.7,1306.4c-1.2,22.1-6.1,45.5-16.1,69.4c0,0-31.5,13-46.7-6.7c-6-7.8-11.2-33.9-13.4-67.2
		L1229.7,1306.4z"/>
	<g>
		<path class="st26" d="M1038.1,1405c0,0-16.4,30.8-15.7,33.6c0.7,2.9,2.5,3.6,4.2,0.7c1.7-2.8,16.7-29.3,16.7-29.3
			s-12.9,39.3-12.9,41.8c0,1.5,3.4,3,4.5,1.5c1-1.4,16.2-39.8,16.2-39.8s-12,36.7-11.3,38.8c0.6,1.8,4.1,2.5,5.2-0.2
			c1.1-2.7,14.3-36.2,14.3-36.2s-7,27.2-5.3,28.6c1,0.8,3.9,2.3,5.5-4.8c1.6-7.1,7.1-23.4,7.1-23.4L1038.1,1405z"/>
	</g>
	<g>
		<g>
			<path class="st26" d="M1062.7,1372.3c0,0-6.1,9.8-12.9,9.4c-5.8-0.4-13.6,3.1-16.1,4.2c-3.2,1.4-14.8,2.3-13.1,6.2
				c1.8,3.8,19.1-0.7,23-0.9c3.8-0.3-6.5,12.8-6.5,16.5c0.1,3.7,23.6,18,29.7,8.3c6-9.7,5.7-23.6,7.2-25.1c1.4-1.5,4.7-6.9,4.7-6.9
				L1062.7,1372.3z"/>
		</g>
	</g>
	<path class="st104" d="M1282.4,1108.6c0,0,33.5,6.6,48.5-2.5c5.7,4,17.8,57.6,19.7,69.9c1.9,12.3,2,64.5-1.2,84.3
		c-3.2,19.8,15.2,110.5,7,125c0,0-68.5,59.8-149.8,57.9c0,0-0.7-113.3-6.7-139.3c-7.7-33.3-26-110-26-110s-8.5-51.4-0.1-55.5
		c18.2-9,66.7-26.7,66.7-26.7L1282.4,1108.6z"/>
	<path class="st105" d="M1291.6,1118c0,0-11.1,6.4-50.9-6.3c0,0-1.7-26.2-11.8-49.7c-10.1-23.5,54.5,27,54.5,27
		c-0.6,0.5-0.4,2.9,0.3,6.3c0.6,2.8,1.6,6.3,3,9.9C1289.6,1113.1,1288.9,1111.7,1291.6,1118z"/>
	<path class="st106" d="M1286.6,1105.1c-38.4-2.3-46.4-23.2-46.5-23.5c16.7,17.4,43.5,13.6,43.5,13.6
		C1284.2,1098.1,1285.2,1101.6,1286.6,1105.1z"/>
	<g>
		<path class="st26" d="M1157.5,1296.1c-14.7,16-80.9,91.5-80.9,91.5l-15.3-13.3c0,0,19.5-35.5,46.7-74.5
			c7.5-10.8,17.5-36.3,19-38.1c1.5-1.8,23.7-53.9,26.2-70.1c1-6.4,7.1-25.5,11.1-41.7c4.4-18.1,46.4-27,46.4-27
			c34.6,11-12.7,78.8-12.7,78.8S1178,1273.7,1157.5,1296.1z"/>
	</g>
	<path class="st104" d="M1199.5,1209.6l-51.8-9.1c0,0,1.1-53.6,37.2-71.1c36.1-17.5,55.8-17.6,55.8-17.6L1199.5,1209.6z"/>
	<g>
		<path class="st102" d="M1198.1,1294.7l-8.6-7.3c30.1-35.3,39.8-72.5,28.9-110.6c-8.1-28.5-28.3-49.7-28.4-49.9l11-4.7
			c0.8,0.8,19.4,20.4,28.3,51.6c5.2,18.4,6.1,37,2.5,55.2C1227.3,1251.6,1216,1273.7,1198.1,1294.7z"/>
	</g>
	<path class="st104" d="M1352.3,1090.8l24.2,46.9c0,0-19.1,15.4-25.9,55.2c-5.6,33.1-35.3-82.3-35.3-82.3
		S1328.8,1109.3,1352.3,1090.8z"/>
	<g>
		<path class="st102" d="M1359.6,1248.4l-9.2,4.7c4.7-59.7-3.3-88.9-10.2-109.4c-7.4-22-19.1-34.5-19.2-34.6l10.8-4.7
			C1333.5,1106.1,1371.4,1139.2,1359.6,1248.4z"/>
	</g>
	<path class="st105" d="M1296.1,1110.4c0,0,37.9,50.2,6.2,62.4c-41.4,15.8-75.8-58.9-75.8-58.9S1250.4,1104.1,1296.1,1110.4z"/>
	<g>
		<path class="st26" d="M1273,982.5c0,0,32.1,3.5,34.4,61.8c2.5,64.2-45.2,55.1-58.6,45.4c-13.4-9.7-26.6-33.4-30.4-52.2
			C1214.7,1018.6,1209.6,966.9,1273,982.5z"/>
	</g>
	<g>
		<path class="st102" d="M1305.3,1019.4c0,0-4.6-20.8-29.9-12c-25.3,8.8-46.8,33.4-41.5,65.8c0,0-46-52.7-21.6-81.9
			C1236.6,962,1295.6,962.4,1305.3,1019.4z"/>
	</g>
	<g>
		<path class="st107" d="M1269,1010c0,0,32.6,22.1,40.5,21.4C1309.6,1031.4,1307.2,991.7,1269,1010z"/>
	</g>
	<path class="st26" d="M1236.6,1043.8c-2.8-5.4-10.7-11.9-12.3-2.9c-1.6,9,10.1,26.9,13.3,23.6
		C1240.7,1061.2,1241.7,1053.8,1236.6,1043.8z"/>
	<path class="st102" d="M1190,1126.9c0,0,4.7-3.9,11-4.7C1201,1122.1,1194.6,1126.9,1190,1126.9z"/>
	<g>
		<g>
			<path class="st108" d="M1426,910.7c0,0,4.5,15.7,9.7,17.9c5.1,2.2,3.8-3.5,3.8-3.5s1.2,5.7,5.9,5.3c4.7-0.4,2.8-7.1,2.8-7.1
				s2.1,4.1,6.5,1.9c4.4-2.1,1.6-7.3,1.6-7.3s6.2,4.2,7.5-1.8c2.2-10-5.8-19-5.8-19s-2.1-2-6.3,0.4c0,0-4.9-5.2-10.2,0.9
				c0,0-8.1-1.9-8.7,4.8C1432.9,903.1,1424.2,901.6,1426,910.7z"/>
		</g>
	</g>
	<g>
		<g>
			<g>
				<g>
					<polygon class="st36" points="654,1638.3 540.4,1577.4 579,1574.2 					"/>
				</g>
			</g>
			<g>
				<g>
					<polygon class="st37" points="654,1638.3 618.4,1583.3 589.3,1583 					"/>
				</g>
			</g>
			<g>
				<g>
					<polygon class="st38" points="566.5,1591.4 564.5,1605.6 654,1638.3 					"/>
				</g>
			</g>
		</g>
		<g>
			<path class="st35" d="M533.4,1545.7c-6.2-3.8-15.9-10-26.4-18.3l2.5-3.1c10.4,8.2,19.9,14.3,26,18L533.4,1545.7z M483.2,1506
				c-7.7-8-14.6-16.4-20.3-24.9l3.3-2.2c5.6,8.3,12.3,16.5,19.9,24.4L483.2,1506z M447.9,1452.5c-0.4-0.9-0.7-1.8-1-2.7
				c-3.4-9.4-5.6-19-6.6-28.6l4-0.4c0.9,9.3,3.1,18.6,6.3,27.7c0.3,0.9,0.7,1.8,1,2.7L447.9,1452.5z M445.4,1389.6l-3.9-0.7
				c1.7-10.2,4.8-20.6,9.2-30.9l3.7,1.5C450.1,1369.7,447.1,1379.7,445.4,1389.6z M469.1,1331.9l-3.3-2.2c2.5-3.8,5.2-7.8,8-11.6
				c3.5-4.7,6.8-9.7,10-14.6l3.4,2.1c-3.2,5-6.6,10-10.1,14.9C474.2,1324.3,471.5,1328.1,469.1,1331.9z M502.6,1277.6l-3.6-1.7
				c4.6-9.5,8.6-19.3,12-29.2l3.8,1.3C511.4,1258,507.3,1268,502.6,1277.6z M523.4,1217.1l-3.9-0.8c2.2-10.3,3.8-20.8,4.8-31.2
				l4,0.4C527.3,1196,525.7,1206.6,523.4,1217.1z M529.1,1153.4l-4,0.1c-0.4-10.6-1.5-21.2-3.3-31.4l3.9-0.7
				C527.6,1131.8,528.7,1142.6,529.1,1153.4z M518,1090.3l-3.8,1.3c-0.6-1.8-1.2-3.5-1.8-5.2c-3-8.2-6.5-16.2-10.4-23.8l3.5-1.8
				c4,7.7,7.6,15.9,10.6,24.2C516.8,1086.8,517.4,1088.5,518,1090.3z M485.1,1036.1c-6.4-8.4-13.6-16.1-21.4-23l2.6-3
				c7.9,7.1,15.3,15,21.9,23.6L485.1,1036.1z M438.4,994.5c-8.9-5.3-18.4-9.8-28.4-13.4l1.4-3.7c10.2,3.7,19.9,8.3,29.1,13.7
				L438.4,994.5z M379.7,972.9c-10-1.8-20.6-3-31.3-3.4l0.1-4c10.9,0.4,21.7,1.5,31.9,3.4L379.7,972.9z"/>
		</g>
	</g>
</g>
</svg>
