<?xml version="1.0" encoding="utf-8"?>
<!-- Generator: Adobe Illustrator 22.0.0, SVG Export Plug-In . SVG Version: 6.00 Build 0)  -->
<svg version="1.1" id="Layer_1" xmlns="http://www.w3.org/2000/svg" xmlns:xlink="http://www.w3.org/1999/xlink" x="0px" y="0px"
	 viewBox="0 0 3500 2000" style="enable-background:new 0 0 3500 2000;" xml:space="preserve">
<style type="text/css">
	.st0{fill:#96D9C9;}
	.st1{fill:#3C8F7C;}
	.st2{fill:#50BFA5;}
	.st3{fill:#86B1F2;}
	.st4{fill:#FAE0B2;}
	.st5{fill:#355389;}
	.st6{fill:#466EB6;}
	.st7{fill:#FF4C16;}
	.st8{fill:#F47458;}
	.st9{fill:#B75742;}
	.st10{fill:#13375B;}
	.st11{fill:#184655;}
	.st12{fill:#F7A491;}
	.st13{fill:#9BC1F9;}
	.st14{fill:#F7CC7F;}
	.st15{fill:#F48C7F;}
	.st16{fill:#07345A;}
	.st17{fill:#FFFFFF;}
</style>
<g>
	<path class="st0" d="M1962.7,798.7l23.4-22.6c-7.3-40.9-45.7-60.6-71-63.3c-68.1-7.2-102.8,39.6-117.4,114.7
		c-26.7,137.1,6.9,712.6,6.9,712.6c2.5-15.3,187.5-593.3,182.7-752.1L1962.7,798.7z"/>
	<path class="st1" d="M1031.7,1250.7l-2.9,21.5l-7-24.8c-19.5-6.2-36.5-8.3-49.9-5.2c-120.2,27.3,87.5,192.6,87.5,192.6
		s-66.2-41.5-130.3-67.9l-0.8,21.8l-8.2-24.6c-49.8-19.5-96-28.5-105.2-0.4c-8.7,26.5,8.8,51.6,38.9,73.9l34.6,1.2l-20.4,8.6
		c69.5,44.5,184.5,76.4,224.2,83.6c-38-6-130.8-18-185.8-6.2l8.6,14.4l-21.7-10.9c-19.3,6.2-31.2,16.5-29.9,32.7
		c2.5,31,136.8,42.1,136.8,42.1l490.7-4.6l2.7,1.4C1493.6,1599.9,1189.9,1308.6,1031.7,1250.7z"/>
	<path class="st2" d="M2571,1537.1c-9.5-43.9-105.6-56.9-228.1-32.8c43.6-14.9,103.5-48.8,134.6-64.3l-21.2-13.5l42.6,2
		c34.9-20.4,52.3-40.5,40.9-58.6c-8.5-13.5-27.2-19.2-52.5-19.1l-13.3,23.8l2.8-23.5c-63.8,3.7-78.3-6.7-164.4,28.1
		c53.8-27.9,61.6-36.6,65.1-47.8l-29.1-12.7h34.1c27.6-29.7,71.4-88.4,53.2-115.5c-15-22.3-80.8,8.7-122.8,24.8l-17.9,40.2l3.6-34.3
		c-133.5,58.2-88.2,11.5-88.2,11.5s139.4-288.3,57.3-281.8c-32.4,2.6-67.3,22.1-101.5,53.4l-0.9,28.7l-10.2-18.2
		c-24.9,24.4-49.6,54-73.2,85.8c32-67.1,56.2-133,58.6-182.1l-24.4-3l24.1-16.7c-2.3-24.8-12.1-43.5-32-53.5
		c-30.5-15.2-62.6,7.8-94.1,53.5l7.8,41.3l-19.6-23.1c-112.9,184-216.2,637.2-216.2,637.2l-8.2,24.6l331.8,16.4
		C2109.9,1607.6,2590.1,1625.9,2571,1537.1z"/>
	<path class="st3" d="M2083.1,1414.6H1305c-29.7,0-53.8-21.9-53.8-48.8v-29c0-27,24.1-48.8,53.8-48.8h778.1l0,0
		c-35.6,35.3-36.2,89.2-1.4,125.2L2083.1,1414.6z"/>
	<path class="st4" d="M2072.2,1302.4h-391.6c-27,0-48.8,21.9-48.8,48.8l0,0c0,27,21.9,48.8,48.8,48.8h391.6
		C2053.9,1370.1,2054,1332.3,2072.2,1302.4z"/>
	<g>
		<path class="st5" d="M2048.1,1149.4c1.7-2.9-0.9-6.3-4.8-6.3h-619.7c-48.6,0-87.9,32.5-87.9,72.6l0,0c0,40.1,39.4,72.6,87.9,72.6
			h619.9c4,0,6.6-3.4,4.8-6.4l0,0C2023.7,1240,2023.8,1191.2,2048.1,1149.4z"/>
		<path class="st4" d="M2043.1,1158.7h-415.8c-30.7,0-55.6,24.9-55.6,55.6v4.2c0,30.7,24.9,55.6,55.6,55.6H2044
			C2025.4,1237.1,2025.2,1195.7,2043.1,1158.7z"/>
	</g>
	<path class="st4" d="M1293.9,1136.7h399.9c35.5,0,64.2-31,64.2-69.2l0,0c0-38.2-28.7-69.2-64.2-69.2h-399.9l0,0
		c30.6,38.4,31.8,94.7,2.9,134.6L1293.9,1136.7z"/>
	<path class="st6" d="M1752.8,1067.4L1752.8,1067.4c0-38.2-29.1-69.2-65-69.2h-401.2c-1.9,0-3.4-1.6-3.4-3.6l0,0
		c0-2,1.5-3.6,3.4-3.6h636.4c39.6,0,71.7,34.2,71.7,76.4v0c0,42.2-32.1,76.4-71.7,76.4h-636.4c-1.8,0-3.3-1.6-3.4-3.6l0,0
		c0-2,1.5-3.6,3.4-3.6h401.2C1723.7,1136.7,1752.8,1105.7,1752.8,1067.4z"/>
	<g>
		<path class="st7" d="M1781.1,1216.9h-42.8c-9.2,0-16.7,2.9-16.7,6.4v0.6h59.5V1216.9z"/>
		<path class="st8" d="M1817.6,1232.9c0-8.8-11.2-16-25-16h-54.9c10.5,0,18.9,5.4,18.9,12.1l-0.3,171.4l30.3-22l30.9,22
			L1817.6,1232.9z"/>
	</g>
	<g>
		<path class="st9" d="M2403,1414.3H1246.8c-35.9,0-65,29.1-65,65v54.7c0,35.9,29.1,65,65,65H2403l-0.6-0.6
			C2353,1546.9,2353.2,1465.5,2403,1414.3z"/>
		<path class="st4" d="M2382.6,1441.7h-618.1c-35.9,0-65,29.1-65,65v0c0,35.9,29.1,65,65,65h618.1
			C2359.8,1531.4,2359.9,1481.9,2382.6,1441.7z"/>
	</g>
	<g>
		<path class="st10" d="M2079.1,1507H2029c-10.8,0-19.5,8.7-19.5,19.5v1.7h69.6V1507z"/>
		<path class="st5" d="M2031,1507.1c12,0,29.9,10.1,40,22.6l118.9,147.4l69.8,0l-113.1-140.2c-13.3-16.5-36.9-29.9-52.7-29.9
			L2031,1507.1z"/>
	</g>
	<g>
		<path class="st9" d="M984.8,1582.8l24.4-5.7c0,0,19.8,1.2,38.2-2.5c0,0,1.9,4.9,2.7,15c0.1,1.7-2.4,10.4-4.1,10.7
			c-6.3,1-17.3-0.1-36.9,0.3c0,0-30.8,3.6-47.3-1.8C945.2,1593.4,984.8,1582.8,984.8,1582.8z"/>
		<path class="st11" d="M1253.9,1184.1c1.4,14.1,13.2,19.1,24.3,28.1c7.4,6,6.1,22.2,0.5,32.3c-14.4,25.5-2.1,28.7,9.5,47.4
			c27.9,45.2-58.6,55.1-68.9,58.5c-10.3,3.4-17.2,7.4-23.3,6.8c-18.3-2-35-28-44.3-52.1c-9.3-24.1,13.3-25.3,14.4-39.2
			c1.2-13.8-25.2-16.8-17.4-42.9c8.5-28.2,20.4-52.2,36.3-60.8c26.3-14.2,58.2,0.7,65.5,12.1
			C1252.6,1177.7,1253.6,1181,1253.9,1184.1z"/>
		<path class="st4" d="M1256,1493.2c2.3,5.7,14.8,25.7,14.8,25.7l-175.7,1.7l-2.7-36c48.2-0.4,95.9-21.7,140.3-37
			C1233.8,1450.3,1254.9,1490.5,1256,1493.2z"/>
		<path class="st2" d="M1131.4,1355c0,0,9.4-66.6,24.6-73.5c15.2-6.9,97.3,2.7,109.6,10.2c12.3,7.5-8.2,85.7-11.3,107.6
			c-0.2,1.3-0.4,2.6-0.6,3.9c-5.2,31.6-2.2,63.9,9,93.8c-45,13.7-56.6,21.2-104.8,19.8l-18-105.3
			C1139.9,1411.4,1125.5,1360.5,1131.4,1355z"/>
		<path class="st12" d="M1221.3,1237.6c0,0,3.8,36.7,7,45.7c3.2,9-8.7,27.3-28.1,32.3c-19.4,5.1-5.3-19.5-5.8-29
			c-0.5-9.5-2.3-54.5-2.3-54.5L1221.3,1237.6z"/>
		<path class="st8" d="M1221.7,1241.9c-2.4,2.8-5.3,5.2-8.9,7.3c-7.3,4.3-14.1,5.3-19.9,3.9c-0.5-11.3-0.9-21-0.9-21l29.2,5.5
			C1221.3,1237.6,1221.5,1239.3,1221.7,1241.9z"/>
		<path class="st12" d="M1214.5,1170.7c0,0,11.5,3,18.2,14.2c6.7,11.2,10.5,43.6-13.6,57.7c-24.1,14.2-41.6-7.7-41.1-28.5
			S1183.9,1165.9,1214.5,1170.7z"/>
		<path class="st12" d="M1170.7,1205.5c0.3,5.4,3,9.6,6.1,9.5s5.5-4.7,5.2-10c-0.3-5.4-3-9.6-6.1-9.5
			C1172.7,1195.6,1170.4,1200.1,1170.7,1205.5z"/>
		<path class="st12" d="M1232,1213.7c-1.9,5.3-0.5,10.7,3.1,12c3.6,1.3,8-2,9.9-7.3c1.9-5.3,0.5-10.7-3.1-12
			C1238.4,1205.1,1233.9,1208.4,1232,1213.7z"/>
		<path class="st1" d="M1265.7,1291.6c0,0-14,7.4-22.6,27.9c-8.6,20.5,20.7,125.1,26.9,131.9s23.5,7.8,26.4-8.6
			C1299.4,1426.3,1289.4,1296.8,1265.7,1291.6z"/>
		<path class="st13" d="M1181.9,1277.6l24.2,145.1l-94,15.2l-29.8-135.7C1082.2,1302.2,1159.5,1270.8,1181.9,1277.6z"/>
		<path class="st13" d="M1000.4,1282.1c9-3.5,18.8-4.4,28.3-2.6c17.6,3.4,45.6,10.6,56.8,22.6c16.9,18.2,32.6,138.7,32.6,138.7
			l-73.1-16.4L1000.4,1282.1L1000.4,1282.1z"/>
		<path class="st14" d="M1251.9,1530.3c-12.3-34.1-151.6-158.4-188.4-148.8l19.8,75.8c0,0,41.4,123.4,81.9,139.3
			c40.6,15.9,78.5-2,78.5-2S1264.2,1564.4,1251.9,1530.3z"/>
		<path class="st12" d="M1201.8,1330.9c-1.7,3.5,9.3,9.7,12.6,12c3.2,2.3,16.6-0.1,16.6-0.1S1203.8,1327,1201.8,1330.9z"/>
		<path class="st15" d="M1082.9,1493.3c0,0-35.4,73.6-35.5,81.2c-0.2,11-51.2,8-40.1,3.3c2.5-1.1,10.6-5.2,11.2-5.7
			c3.3-2.8,32.7-94.2,32.7-94.2L1082.9,1493.3z"/>
		<path class="st14" d="M1094.1,1405.3c-1.7-1.9-19.6-9-33.5,8.2c-13.8,17.2-40.3,151.1-40.3,151.1l32.5,3.2
			C1052.9,1567.8,1134,1449.2,1094.1,1405.3z"/>
		<path class="st8" d="M988.9,1304.9l41.9,122.1c1.7,4.9,5.9,8.4,10.8,9.1c39.3,5.6,59.7,8.4,59.7,8.4s7.7,0.4,15.8,0.5l89.9-9.6
			c7.8-0.8,13.3-8.4,11.8-16.4l-21.9-119.9c-1.4-7.4-8.2-12.3-15.3-11.1l-86.5,14.5c-7.6-0.2-15.1-0.4-22.7-0.6l-68-15.2
			C994.1,1284.4,985.3,1294.6,988.9,1304.9z"/>
		<path class="st12" d="M1171.7,1364.3c0,0,24.1,4.5,32.4,4.2c8.2-0.2,18.9,2.4,18.9,2.4s26.9,63.3,30.8,70.4
			c11.5,21.1,43.5,18.6,43,1c-0.4-14-55-101.6-69.5-101.1c-14.5,0.4-60-9-61.3-3.3c-0.7,3.1,41.8,4.6,35.1,7.2
			c-4.2,1.6-37.5-2.1-37.4,1.8c0.1,3.9,30.1,4.3,33.3,7.3c3.2,3-31.9-3.7-31.7,2.9c0.1,3.4,31,0.9,34.3,6
			C1201,1365.3,1169.2,1357.7,1171.7,1364.3z"/>
		<g>
			<path class="st12" d="M1009.1,1353.9c-1.9-0.8-4.1,0.2-4.6,2.3c-0.5,2.1-0.6,4.5,0.9,6.2c3,3.3,24.1,6.4,24.2,3.2
				C1029.8,1363.2,1015.7,1356.8,1009.1,1353.9z"/>
			<path class="st12" d="M1005,1362.1c0,0-2.1,7.9-0.3,8c1.8,0.1,24.7,2.3,25.7-0.4C1031.4,1367,1008,1360.5,1005,1362.1z"/>
			<path class="st12" d="M1004,1370.3c0,0-0.6,3.5,1.2,5.5c1.9,2,23.1,0.7,23.9-2.7S1004.8,1367.7,1004,1370.3z"/>
			<path class="st12" d="M1007.3,1377.7c0,0,0,2.7,1,3.8c1.1,1.2,16.8-0.4,18.3-3.8C1028.2,1374.4,1009.1,1374.3,1007.3,1377.7z"/>
		</g>
		<path class="st12" d="M1060.5,1563.4c0,0-7.5,27.1-15,45.1c-4.9,11.7-6.2,23.4-9.5,29.3c-8.2,14.8-21.7,15.4-32.4,6.5
			c-10.7-8.9,3.7-46.5,3.7-46.5l33.8-47.6L1060.5,1563.4z"/>
		<path class="st8" d="M1036,1637.8c2.9-5.2,4.2-15,8-25.4c-5.2,3-13.9,5.3-18.6,4c-17.3-4.6-18.2-18.6-18.2-18.6s-18,38.5-7.3,47.4
			C1010.6,1654.1,1027.8,1652.6,1036,1637.8z"/>
		<polygon class="st9" points="1095.1,1302.5 1122.8,1445.8 1106.1,1444.8 1101.3,1444.5 1072.4,1301.9 		"/>
		<path class="st4" d="M1191.5,1588.1c9.5,17.4,28.4,20.2,45.4,18.7c18.8-1.6,39.5-11.9,45.1-33.5c5.9-23.1-1.9-51.6-15.6-69.7
			c-70.1-92.6-70.6-101.8-98.5-114.1c-30.1-13.3-142,177.9-142,177.9l30.7,15.7c0,0,46.1-38.5,75.5-72.3c3.5-4,13.3-24.5,13.3-24.5
			S1185.3,1576.6,1191.5,1588.1z"/>
	</g>
	<g>
		<path class="st14" d="M1192.6,1031c-29.6,4.5-38.9,43.2-14.6,60.8c4.4,3.2,7.4,7.9,8.6,13.2l4.2,18.1c1.2,5,6,8.2,11,7.5l11.2-1.7
			c5.1-0.8,8.7-5.3,8.3-10.4c-1.3-18.7-3.1-25.4,3-33.7C1242.5,1060.8,1222.2,1026.5,1192.6,1031z"/>
		<g>
			<path class="st4" d="M1199,1116.5C1199,1116.5,1199,1116.5,1199,1116.5c-1.5,0.2-2.9-0.8-3.1-2.3l-5.5-39.5l-9.2-7.9
				c-1.1-1-1.3-2.7-0.3-3.8c1-1.1,2.7-1.3,3.8-0.3l10.8,9.3l5.8,41.5C1201.5,1114.9,1200.5,1116.2,1199,1116.5z"/>
		</g>
		<g>
			<path class="st4" d="M1212.8,1116.1C1212.8,1116.1,1212.8,1116.1,1212.8,1116.1c1.5-0.2,2.5-1.6,2.3-3.1l-6.4-39.4l6.5-10.3
				c0.8-1.3,0.4-3-0.9-3.8c-1.3-0.8-3-0.4-3.8,0.9l-7.6,12l6.7,41.4C1209.9,1115.3,1211.3,1116.3,1212.8,1116.1z"/>
		</g>
		<path class="st0" d="M1186.5,1104.6c0,0.1,0.1,0.3,0.1,0.4l4.2,18.1c1.2,5,6,8.2,11,7.5l11.2-1.7c5.1-0.8,8.7-5.3,8.3-10.4
			c-0.6-8.3-1.3-14.2-1.3-19L1186.5,1104.6z"/>
	</g>
	<path class="st8" d="M1187,742.7l-11.7-17l-20.6,0c-2.4,0-3.7-2.7-2.3-4.6l12.5-16.4l-6.4-19.6c-0.7-2.2,1.4-4.3,3.6-3.6l19.5,6.8
		l16.7-12.2c1.9-1.4,4.6,0,4.5,2.4l-0.5,20.6l16.7,12.1c1.9,1.4,1.4,4.3-0.8,5l-19.8,5.9L1192,742
		C1191.3,744.2,1188.3,744.7,1187,742.7z"/>
	<path class="st13" d="M2274,773.5l-8.6-12.5l-15.2,0c-1.7,0-2.7-2-1.7-3.3l9.2-12.1l-4.7-14.4c-0.5-1.6,1-3.2,2.7-2.6l14.3,5
		l12.2-8.9c1.4-1,3.4,0,3.3,1.7l-0.4,15.2l12.3,8.9c1.4,1,1,3.2-0.6,3.7l-14.5,4.3l-4.7,14.4C2277.2,774.6,2275,774.9,2274,773.5z"
		/>
	<polygon class="st15" points="2032.3,590.2 2013.3,587 2002.1,603.2 1981,598.1 1974.4,619.1 1950.3,614.4 1941.9,632.9 
		1917.9,632.2 1918.2,623.1 1936.1,623.7 1945,604.1 1968.2,608.6 1974.9,587.3 1998.2,592.9 2009.1,577.1 2026.7,580 2031.7,568.1 
		2040.1,571.6 	"/>
	<polygon class="st2" points="1491.1,649.3 1477.2,653.6 1467.8,631.9 1446.6,635.6 1437,620.5 1429.3,625.4 1442.2,645.6 
		1462.3,642.1 1472.1,664.6 1493.1,658.2 	"/>
	<path class="st15" d="M1080.1,879.2l-20.9,12.7l21.7,97.4c1.9,8.4,11.5,12.5,18.8,8l0,0c4.6-2.8,6.9-8.3,5.7-13.6l-5.3-22.9
		l21.9-13.3l18.1,15.2c4.1,3.5,10,3.9,14.6,1.1l0.4-0.2c7.4-4.5,8.1-14.9,1.5-20.4L1080.1,879.2z M1094.2,937.8l-4-17.9l14.1,11.8
		L1094.2,937.8z"/>
	<path class="st14" d="M2340.6,971.3c1.1-2.8,0.7-12.6,14.4-22.1c5.6-3.9,10.3-7.1,11.5-11.7c2.2-7.8-6-11.5-14.2-11.5
		c-4.2,0-7.7-3.4-7.8-7.6l0,0c-0.1-4.3,3.2-7.9,7.5-8.1c4.7-0.2,10.2,0.2,16,1.8c17.5,4.9,22.8,16.7,19.7,27.7
		c-2.8,10.1-10.9,15-17.5,19.1c-11.1,7-11.1,14.9-12,17.1L2340.6,971.3z M2332.1,988.6c2-7,8.3-10.7,15.1-8.8
		c7.2,2,10.4,8.3,8.6,15.4c-1.9,6.9-8.1,10.7-15.3,8.8C2333.5,1002,2330.2,995.5,2332.1,988.6z"/>
	<g>
		<path class="st14" d="M1756.1,464.9c-27.3,0-40.9,33.5-21.4,52.7c3.5,3.4,5.6,8.1,5.9,13l1.3,16.9c0.4,4.6,4.3,8.2,8.9,8.2h10.3
			c4.7,0,8.5-3.6,8.9-8.2c1.4-17,0.6-23.3,7.3-29.9C1796.9,498.4,1783.3,464.9,1756.1,464.9z"/>
		<g>
			<path class="st4" d="M1750.3,542.6C1750.3,542.6,1750.3,542.6,1750.3,542.6c-1.4,0-2.5-1.1-2.5-2.5l0.4-36.3l-7.2-8.4
				c-0.9-1-0.8-2.6,0.3-3.5c1-0.9,2.6-0.8,3.5,0.3l8.5,9.8l-0.4,38.1C1752.7,541.5,1751.6,542.6,1750.3,542.6z"/>
		</g>
		<g>
			<path class="st4" d="M1762.7,544.1C1762.7,544.1,1762.7,544.1,1762.7,544.1c1.4,0,2.5-1.1,2.5-2.5l-0.4-36.3l7.2-8.4
				c0.9-1,0.8-2.6-0.3-3.5c-1-0.9-2.6-0.8-3.5,0.3l-8.5,9.8l0.4,38.1C1760.2,543,1761.3,544.1,1762.7,544.1z"/>
		</g>
		<path class="st0" d="M1740.6,530.2c0,0.1,0,0.3,0.1,0.4l1.3,16.9c0.4,4.6,4.3,8.2,8.9,8.2h10.3c4.7,0,8.5-3.6,8.9-8.2
			c0.6-7.5,0.8-13,1.4-17.3H1740.6z"/>
	</g>
	<polygon class="st4" points="1808.5,418.7 1785,458.7 1824.9,429 	"/>
	<polygon class="st4" points="1712.7,408.4 1736.8,449.5 1732.7,402.4 	"/>
	<polygon class="st4" points="1670.9,467.2 1709.2,482.2 1670.1,484.6 	"/>
	<polygon class="st4" points="1789.1,521.2 1804.4,540.6 1815.7,527.3 	"/>
	<polygon class="st4" points="1804.4,485.3 1839.2,471 1840.3,486.3 	"/>
	<polygon class="st4" points="1713.3,524.2 1680.5,539.6 1690.7,551.9 	"/>
	<path class="st0" d="M1324.4,731.6c5.4,0.4,15.8,2.6,25.5,5.4c11.8,3.4,18.7,6.6,23.8,12c5,4.9,7.7,11.9,5.5,19.7
		c-2.2,7.6-8.6,13.4-19.3,14.2l-0.1,0.3c9,5.4,14.1,14.9,11,25.9c-2.2,7.7-7.5,12.8-14,15.6c-7.6,3.2-18.8,3-35.8-1.9
		c-9.5-2.7-16.4-5.4-20.5-7.2L1324.4,731.6z M1334.2,769.8l6.3,1.8c10.1,2.9,16.8,0.3,18.6-6.1c1.8-6.5-2.1-11.3-10.9-13.8
		c-4.2-1.2-6.7-1.6-8.4-1.8L1334.2,769.8z M1323.4,807.6c1.8,0.8,4.1,1.4,7.4,2.4c8.7,2.5,17.4,1.4,20-7.6c2.5-8.6-4.3-14.2-13.9-17
		l-6.6-1.9L1323.4,807.6z"/>
	<path class="st14" d="M2151.2,768.5c1.1,4.8-1.8,9.5-6.6,10.7c-4.4,1.1-10,1.9-16.5,2.1c-33.6,1.1-51.7-19.2-52.6-46.9
		c-1.1-33.2,21.9-52.5,51.4-53.5c5.8-0.2,11,0.2,15.2,1c5,0.9,8.3,5.8,7.2,10.7l-0.1,0.3c-1,4.7-5.5,7.7-10.2,6.9
		c-3.1-0.5-6.6-0.9-10.4-0.7c-17.5,0.6-30.7,11.6-30,33.3c0.7,19.5,12.6,31.4,32.3,30.7c3.3-0.1,6.7-0.6,9.8-1.2
		C2145.4,760.8,2150.1,763.8,2151.2,768.5L2151.2,768.5z"/>
	<path class="st6" d="M1059.9,1221.6c-2.3-7,1.6-14.8,8.6-17.1c7.3-2.4,13.9,1.2,16.7,8.4c2.6,7.3-0.3,14.5-7.9,17.3
		C1069.5,1232.9,1062.4,1229.1,1059.9,1221.6z M1057.5,1200.5l-22.7-54.1c-1.9-4.5,0.4-9.6,5-11.3l5.5-2c4.6-1.6,9.6,0.9,11,5.5
		l17.2,56.1L1057.5,1200.5z"/>
	<g>
		<g>
			<path class="st15" d="M2089.6,1151.4c0,0,58.4,25.4,63.6,26.6c3.2,0.7,40.3-37.8,60.6-52.8c0.9-0.7,4.5-5.8,5.5-6.3
				c12-6-8.3,28.8-8.3,28.8s-43.1,54.8-52.8,59.4c-12.2,5.9-72.7-24-72.3-25.7L2089.6,1151.4z"/>
			<path class="st11" d="M2080.3,1096.7c2.5-17.2,14.5-53.8,3.4-68.5c-15.5-20.6-48.2-19.7-63.7,0.1c-7.1,9.1-10.9,20.2-14.7,31.1
				c-2.4,7-4.9,14.1-8.3,20.7c-3,5.9-6.5,13.3-12.3,16.9c-25.7,16-54.5,26.3-56.4,62.4c-2.2,42.8,44.7,96.3,102.2,70.4
				c22-9.9,50.9-42,60.3-64.2c4.2-10,2.2-9-0.1-24.2C2088.8,1127.8,2078.3,1110.6,2080.3,1096.7z"/>
			<path class="st5" d="M2049,1122.3l78.2,43l-18.4,28c0,0-58.9-22.4-70.8-25.6C2026.1,1164.5,2035.5,1121.1,2049,1122.3z"/>
			<path class="st12" d="M2047.7,1085c0,0-2,29.8-3.6,38.1c-1.6,8.6-2.5,44.5,15.4,48.9c17.9,4.4,11.2-44.2,11.5-53
				c0.3-8.7,2-37,2-37L2047.7,1085z"/>
			<path class="st8" d="M2047.4,1088.5c1.3,2,3,3.9,4.9,5.7c6.6,6.2,13.4,8.3,19.6,7.4c0.6-9.9,1.2-19.7,1.2-19.7l-25.4,3
				C2047.7,1085,2047.6,1086.3,2047.4,1088.5z"/>
			<path class="st12" d="M2066.2,1028c0,0-10.9,0.4-19.2,9c-8.3,8.6-18.3,36.8,0.3,54.4c18.7,17.6,37.1,2.5,41-16.1
				C2092.1,1056.6,2094.6,1030,2066.2,1028z"/>
			<path class="st11" d="M2076.4,1028.9c0,0-11.4,29.4-38.3,26.9c-12.2-1.1-14.9,15.5-14.9,15.5s10-39.5,22.5-45.3
				C2058.2,1020,2076.4,1028.9,2076.4,1028.9z"/>
			<path class="st12" d="M2041.7,1062.9c0.6,5.1-1.7,9.7-5.2,10.1c-3.5,0.4-6.8-3.4-7.4-8.6s1.7-9.7,5.2-10.1
				C2037.7,1053.9,2041,1057.7,2041.7,1062.9z"/>
			<path class="st9" d="M2241.4,1072.5l-66.2,135.2c-1.6,3.2-1.1,7,1.1,8.2l48.3,28.3l60.4-119.8c0,0-26.3-39.4-36.2-54.2
				C2247,1067.5,2243.3,1068.7,2241.4,1072.5z"/>
			<path class="st4" d="M2183.7,1203.3l57.6-117.7c1.9-3.8,5.6-5,7.5-2.2c8,12,20.2,30.1,28.9,43.2l-54.2,107.6l-38.6-22.6
				C2182.6,1210.3,2182.1,1206.5,2183.7,1203.3z"/>
			<path class="st15" d="M2215.2,1116.3c0.7-1.2,3.8-3.8,5.1-4.1c2.8-0.7,6.2-0.6,6.7,1.2c0.8,2.6-7.4,5.5-7.4,5.5l-4.5,6.5
				C2215.1,1125.3,2213,1120,2215.2,1116.3z"/>
			<path class="st12" d="M2045.4,1115.1c0,0,20.4,16.8,26.2,22.7c5.8,5.8,16,12.9,16,12.9l-16.5-22.8l-10.4-9.7L2045.4,1115.1z"/>
			<path class="st15" d="M2298.3,1384.8c-3.2-2.6-6.1-10.1-7.2-13.4c-6.8-35.4-39.2-131.3-74.5-131.3c-30.7,0-125.6,74.4-170,117.4
				c-12.8,12.4-12,1.9-4.1,4.8c4.7,1.7,36.4,54.4,41.4,54.7c15.5,0.7,29.8-9.7,42.8-16.9c19.7-11,33.4-23.6,44.9-40.7
				c29-43.3,39.9-68.8,48.7-85.4c0,0,8.2,34.1,12.3,42.3c9.1,18.6,36.4,64.3,47.1,82.2l41.9-1.1
				C2321.6,1397.4,2302.4,1388.2,2298.3,1384.8z"/>
			<path class="st12" d="M2219.4,1259.9c0,0-140.7,65.5-149.5,88.1s-2,56,18.4,62.8c20.5,6.8,147.5-101.7,147.5-101.7
				s16.4,30,39.6,50.5c12.4,10.9,33.3,19.8,45.2,27.8c10.5,7,12.8,13.8,12.8,13.8l29.4,1.4c0,0-4.9-1.7-13.8-13.7
				C2319,1348.5,2249.4,1254.6,2219.4,1259.9z"/>
			<path class="st10" d="M2165.1,1251.7c0,0,45.2,48.7,54.1,112.9c0,0-70.8,30.5-105.6,48.9c-34.8,18.4-73.7-0.7-86-21.2
				c-12.3-20.5,0-78.2,0-78.2l72.4-11.3L2165.1,1251.7z"/>
			<path class="st5" d="M2272.3,1386.3c-3.6-1.4-4.9,16.8-5.5,20.9c-0.7,4.6,1.5,7.7,2.1,8c1.5,1,59.5,2.2,70.6-0.8
				c0.7-0.2,2.3-1.1,2.6-1.4c8.1-7.1-29.5-26-37.1-24.4C2298.2,1390.1,2288.5,1392.5,2272.3,1386.3z"/>
			<path class="st6" d="M2044.2,1123c0,0-11-0.1-22.8,25.3c-14.5,31.2,6.2,150.5,4.7,167.5c0,0,5.1,5.9,34.9,10.2
				c26.4,3.8,41.3-15,41.3-15s-6.7-46,3.5-89.3c5.5-23.5,8.4-46.2-13.4-67.3S2044.2,1123,2044.2,1123z"/>
			<path class="st6" d="M2321,1387.4c-3.6-1.4-6.7,16.2-6.4,20.5c0.3,4.6,1.5,8,2,8.3c1.5,1,59.6,1.9,70.6-1.1
				c0.8-0.2,2.3-1.1,2.6-1.4c8.1-7.1-33.8-24.9-41.4-23.3C2341.7,1391.9,2337.2,1393.6,2321,1387.4z"/>
			<path class="st8" d="M2282.2,1066.9l-109.7,159.7c-2.5,3.7-1.9,8.2,1.2,9.3l74.2,27.7l87.7-125.8l-43.8-72.5
				C2289.9,1062,2284.9,1062.9,2282.2,1066.9z"/>
			<path class="st12" d="M2256.1,1188c-1.4-2.7-12.8,3.3-12.8,3.3s-10.1,1.8-10.9,1.4c-0.8-0.4,6.8-1.1,6.8-1.1s12.5-4.3,12.3-5.7
				c-0.6-5.7-8.4,1.4-14.5,1.7c-4.7,0.2-9.7,0-14.2-0.6c-1.8-1,2.8-3.3,2.8-3.3s6-2.7,5-4.3c-2.3-3.8-16.3,3.4-19.3,6.1
				c-2,1.8-4.4,5.3-7.9,7.3c-15,8.5-32.9,23-54.1,33.2c-7-5.9-74.7-66.6-76.4-68.1l-36.9,29.1c0,0,106,80.7,111.9,80.5
				c7.4-0.2,51.5-46.8,63.5-57.9c1.8-1.7,13.1-2.9,16.3-2.5c6.9,1,19.9-4.5,19.9-4.5c4-4.2-14.8,0-13-1.1c0.8-0.5,5.4-1,9.9-1.6
				c4.6-0.7,8.9-3.3,9.4-4.6c1.1-2.5-10.5,1.1-10.5,1.1l-9.6,0.6l9.2-1.9C2243.1,1195.3,2257.5,1190.7,2256.1,1188z"/>
			<path class="st3" d="M2062.6,1139.5c-11.9-12.2-34.9-10.4-41.6,7c-1.9,4.9-1.8,18.8,0.3,23.9c8.5,20.5,58,53.9,58,53.9l27.3-37.2
				L2062.6,1139.5z"/>
		</g>
	</g>
	<g>
		<path class="st12" d="M1571.7,783.6c0-1.6,1.9-11.7,1.9-11.7s-4.5-14.4-5-14.4c-9.3-0.7-16.3,5.6-14.7,14.1l0.1,0.3
			c4.8,15.3,17.7,26.7,33.5,29.5c3.6,0.6,7.4,1.3,11.3,2c-1.8-6.2-3-12.4-2.9-18.9C1582.5,784.5,1571.7,784.2,1571.7,783.6z"/>
		<path class="st5" d="M1728.4,720.3c-0.3-0.8-81.5,52.1-81.5,52.1s-34.7,0.3-60.3,0.1c-0.1,7.7,1.2,15.3,3.2,22.6
			c25.3,4.8,54.1,9.8,60.7,9.3c12.2-0.9,73.5-31.5,73.5-31.5S1728.6,720.9,1728.4,720.3z"/>
		<path class="st6" d="M1729.4,917.6c-0.2-1.3-17.3-60.2-19.1-112.9c-1.4-40.9,11.3-77.5,17.8-84.2c2.4-2.5,24.7-7.9,24.7-7.9
			l-8.1,13.5c-8.3,15.6-10.5,29.4-14.1,47c-10.4,51,36.3,153,33.9,153.6C1761.8,927.4,1730,922.8,1729.4,917.6z"/>
		<polygon class="st13" points="1551.4,711.9 1537.1,721.2 1579.7,792.9 1593.1,734.6 		"/>
		<polygon class="st13" points="1560.2,700.6 1578.1,760.1 1592.4,734.4 		"/>
		<polygon class="st13" points="1678.5,693.7 1692.3,743.7 1590.7,734.5 		"/>
		<path class="st12" d="M1620.6,905.2c0,0-43.2,52.7-43.3,60.4c-0.2,11-51.2,8-40.1,3.3c2.5-1.1,10.6-5.2,11.2-5.7
			c3.3-2.8,37.3-69.4,37.3-69.4L1620.6,905.2z"/>
		<path class="st16" d="M1514.7,973.9l32.8-10.2c0,0,11.3,5.8,29.8,2c0,0,4.8,7.7,5.6,17.8c0.1,1.7,1,6.9-0.7,7.2
			c-6.3,1-23.6,0.6-43.2,1c0,0-26.4,0.3-42.9-5.1C1479.6,981.2,1514.7,973.9,1514.7,973.9z"/>
		<path class="st9" d="M1829.5,917.8c0,0-38.8-8.9-75.1-34.8c-42-30-89.2-61.3-107.9-58.7c-15,2-102.4,122.2-102.4,122.2l42.3,18.4
			l76.5-78.5c0,0,78.1,80.5,103.8,86C1825.1,984.9,1843.8,941.8,1829.5,917.8z"/>
		<path class="st14" d="M1535.1,721.2l58.9,124.7c0.3,0.6,0.8,1,1.4,1.1l39.3,10.9l-50.2-123.6l-46.8-16
			C1535.9,717.8,1534.3,719.5,1535.1,721.2z"/>
		<path class="st16" d="M1735.5,603.3c0,0,10.9-14.8,23,0c0,0,7.2-5.4,13.7,1.7c0,0,13.5-6,19.6,14.6c0,0,7.1-2.3,9.1,6.2
			c2,8.5-1.6,14.8-1.6,14.8s4.5,2.5,3.6,10.7c-0.7,6.9-6.1,8.6-6.1,8.6s-0.1,11.5-4.5,15.6c-4.5,4-11.4,3.2-11.4,3.2s-1,6.4-6.8,6.5
			c-5.8,0.2-13.6-4.4-19.7-1.1c-6.1,3.3-23.1,2.8-23.1,2.8s-19.8-6-16.6-25.8c0,0-11-7.6-3.7-19.4c0,0-8.4-15.9,2.8-27.3
			C1724.9,603.2,1735.5,603.3,1735.5,603.3z"/>
		<path class="st12" d="M1675.5,1072.8c0,0,2.4,64.9,3.9,75.9c1.5,10.9-27.5,43.9-23.8,32.4c0.9-2.6,3-11.4,3.1-12.2
			c0-4.3-10.8-78.3-10.8-78.3L1675.5,1072.8z"/>
		<path class="st16" d="M1644.6,1201.3l13.8-31.5c0,0,11.8-4.8,21-21.1c0,0,9,1.4,17.1,7.5c1.4,1,5.9,3.8,4.9,5.3
			c-3.4,5.4-15.1,18.2-27.6,33.3c0,0-17.1,20.1-32,29C1627.1,1232.6,1644.6,1201.3,1644.6,1201.3z"/>
		<path class="st8" d="M1647.2,1140.4c3-3.1-30.7-169-14.3-185c16.4-16,125.6-39.6,125.6-39.6l14.3-50.5c0,0,45.7,13.4,64.2,41
			c10.1,15.1-0.2,49.5-2,53.3c-15.6,32.5-54.2,34.1-82.2,33.9c-25.8-0.3-71.6-0.6-71.6-0.6l-0.1,146.7c0,0-11.3,2.7-20.1,2.4
			C1648.7,1141.3,1647.2,1140.4,1647.2,1140.4z"/>
		<path class="st17" d="M1748.5,716.2l29.6-10.6c0,0,0.9,0,1.2,0c3.2-0.4,38.1,113.9,49.5,157.1c11.4,43.2-3.5,35-3.5,35
			s-26.1,16.3-56.5,17.4c-31.6,1.2-25.3-36.9-25.3-36.9s-16.6-79.5-14.7-106.5C1730.7,744.6,1748.5,716.2,1748.5,716.2z"/>
		<path class="st12" d="M1749,692.9l-0.1,14.6l0,2.6c0,0-2,24.9,5.1,28.8c7.1,3.9,24.1-33.3,24.1-33.3l-7.7-42.3L1749,692.9z"/>
		<path class="st8" d="M1772.9,677c-3.6,15.3-15.3,25.9-24,30.5l0.1-14.5l21.4-29.7L1772.9,677z"/>
		<path class="st12" d="M1749.6,620.3c-13.9-2.9-26.9,7.7-27.2,21.7c-0.1,6.1,0,13.7,0.9,21.9c2.1,19.7,14.8,37.6,23.7,36.5
			c8.9-1.1,32-17,29.4-45.1C1774.7,637.9,1764.1,623.3,1749.6,620.3z"/>
		<path class="st12" d="M1770.1,658.3c0.6,4.3,3.9,7.5,7.4,7.1c3.6-0.4,6-4.3,5.4-8.7c-0.6-4.3-3.9-7.5-7.4-7.1
			C1771.9,650,1769.5,653.9,1770.1,658.3z"/>
		<path class="st16" d="M1709.6,615.4c-8.3,8.5-10.1,20-4.1,25.8s17.7,3.5,26-5c8.3-8.5,10.1-20,4.1-25.8
			C1729.5,604.7,1717.9,606.9,1709.6,615.4z"/>
		<path class="st16" d="M1734.5,618.3c0.4,3.2,4.6,5.3,9.3,4.7c4.7-0.6,8.2-3.7,7.8-6.8c-0.4-3.2-4.6-5.3-9.3-4.7
			C1737.6,612.1,1734.1,615.1,1734.5,618.3z"/>
		<path class="st16" d="M1712.1,646c0.5,4.1,4.2,7,8.3,6.5c4-0.5,6.9-4.2,6.4-8.3c-0.5-4.1-4.2-7-8.3-6.5
			C1714.4,638.2,1711.6,641.9,1712.1,646z"/>
		<path class="st6" d="M1778.1,705.5c0,0,29-4.7,38.7-0.6c6.2,2.6,14.1,55.2,14.1,55.2s0.3,53.1,3.9,68.1
			c12.3,50.8,29.4,95.2,27.5,97.8c-12.6,10.4-65.3,20-69.3,15C1748.8,886.5,1778.1,705.5,1778.1,705.5z"/>
		<path class="st12" d="M1826.4,759.4c0,0-29,89.7-41.7,99.1c-12.7,9.4-69.8-78.6-69.8-78.6s-25.3-14.3-27.1-14.5
			c-7.2-0.6,14.9-4.3,14.9-4.3l2.7-22.9c0,0,1.1,0.2,7.7,7.6c8.9,10,16.7,25.6,20.3,28.3l38.2,29l19.5-62.1L1826.4,759.4z"/>
		<polygon class="st4" points="1584.4,734.4 1596.4,733.2 1647.9,861.3 1634.7,857.9 		"/>
		<path class="st14" d="M1698.9,703.2l31,150.8c0.5,2.5-1.3,4.8-3.9,4.9l-78.1,2.4l-51.5-128.1l97.1-33.1
			C1695.9,699.3,1698.4,700.8,1698.9,703.2z"/>
		<path class="st3" d="M1730.3,768.6l-9.9,21.7c0,0,48.6,80.1,63.7,75.6s43.4-91.2,47.8-115c4.4-23.9-4.8-43.7-17.1-46.8
			c-12.3-3.1-21.8,17.8-25.6,26.6c-3.8,8.9-17.4,72.4-17.4,72.4L1730.3,768.6z"/>
		<g>
			<path class="st12" d="M1557.4,769.8c0,0-1.8-3.2-2.4-5.2c-0.6-2,11.4-8.7,16.1-5.7C1575.8,762.1,1563.2,766.8,1557.4,769.8z"/>
		</g>
		<g>
			<path class="st12" d="M1557.9,777.6c0,0-3-3.2-3.6-5.1c-0.6-2,15.4-10,20.1-6.9C1579.1,768.8,1563.7,774.6,1557.9,777.6z"/>
		</g>
		<g>
			<path class="st12" d="M1563.3,783.1c0,0-3-3.2-3.6-5.1c-0.6-2,11.4-8.7,16.1-5.7C1580.6,775.4,1569.1,780.1,1563.3,783.1z"/>
		</g>
		<path class="st12" d="M1708.1,747.1h-2.5c-1.2,0-2.4-0.1-3.5-0.4c-4.6-1-17.2-3.5-18.1-1c-1.2,3.1,18.1,6.7,18.1,6.7
			s-21.2-2.7-21.2,0.9c0,3.6,21.5,5.5,21.5,5.5s-18.8-0.7-19.1,1.4c-0.3,2,23,7.9,23,7.9s-18.9-4.1-20.8-1.7
			c-1.9,2.4,29.7,13.9,29.7,13.9L1708.1,747.1z"/>
		<path class="st12" d="M1563.3,783.1c0,0,10.4-5.8,13.1-4c2.7,1.8-8.9,10.6-8.9,10.6l1.4,3.2
			C1568.9,792.9,1561.5,787.1,1563.3,783.1z"/>
	</g>
</g>
</svg>
