<svg id="Capa_1" enable-background="new 0 0 512 512" height="512" viewBox="0 0 512 512" width="512" xmlns="http://www.w3.org/2000/svg"><g id="XMLID_180_"><path id="XMLID_216_" d="m419.151 103.09v-73.09h11.661c8.284 0 15-6.716 15-15s-6.716-15-15-15h-306.02c-32.314 0-58.604 26.25-58.604 58.517v413.701c0 21.936 17.869 39.782 39.832 39.782h302.453c20.588 0 37.338-16.73 37.338-37.294v-338.658c.001-16.16-11.444-29.695-26.66-32.958zm-322.963-44.573c0-15.725 12.832-28.517 28.604-28.517h264.359v72.335h-264.359c-15.772 0-28.604-12.792-28.604-28.517zm319.624 416.189c0 4.022-3.292 7.294-7.338 7.294h-302.454c-5.421 0-9.832-4.388-9.832-9.782v-347.338c8.465 4.747 18.224 7.456 28.604 7.456h287.27c2.067 0 3.75 1.666 3.75 3.712z"/><path id="XMLID_213_" d="m171.618 233.532c-.809-2.521-5.335-7.87-15.438-7.87-11.433 0-14.63 5.349-15.437 7.87l-28.15 92.32c-.821 3.443 1.336 6.56 4.616 8.475 3.278 1.918 6.683 2.876 10.216 2.876 4.337 0 6.91-1.461 7.719-4.389l5.146-18.918h31.934l5.146 18.918c.807 2.928 3.379 4.389 7.719 4.389 3.53 0 6.936-.958 10.216-2.876 3.277-1.915 5.321-5.514 4.616-8.475zm-26.485 62.202 11.048-40.561 11.048 40.561z"/><path id="XMLID_209_" d="m278.314 277.27c8.575-3.731 12.864-11.653 12.864-23.761 0-17.958-10.09-26.939-30.269-26.939h-31.026c-7.634 0-10.291 4.944-10.291 7.265v96.255c0 1.918 2.907 7.113 10.291 7.113h33.599c9.282 0 16.672-2.597 22.172-7.794 5.499-5.195 8.249-13.444 8.249-24.745v-3.179c0-7.061-1.313-12.384-3.935-15.967-2.625-3.58-6.508-6.33-11.654-8.248zm-35.263-30.117h15.892c8.058 0 8.626 7.771 8.626 10.594 0 2.826-.944 10.442-8.626 10.442h-15.892zm27.242 55.543c0 9.284-4.037 13.924-12.107 13.924h-15.135v-30.269h15.135c8.071 0 12.107 4.642 12.107 13.924z"/><path id="XMLID_208_" d="m352.775 247.153c8.676 0 13.167 4.54 13.469 13.621.303 4.743 4.238 7.113 11.805 7.113 7.076 0 11.805-2.762 11.805-11.2 0-9.383-3.557-16.747-10.669-22.096-7.113-5.347-16.22-8.021-27.318-8.021-10.797 0-19.549 2.875-26.258 8.626-6.711 5.752-10.064 14.782-10.064 27.091v40.106c0 12.312 3.353 21.34 10.064 27.091 6.709 5.751 15.461 8.627 26.258 8.627 11.098 0 20.205-2.823 27.318-8.476 7.113-5.649 10.669-13.368 10.669-23.155 0-5.855-2.479-11.2-11.956-11.2-7.366 0-11.251 2.372-11.654 7.113-.569 5.951-3.744 15.135-13.318 15.135-9.183 0-13.772-5.044-13.772-15.135v-40.106c0-10.088 4.54-15.134 13.621-15.134z"/></g></svg>