<svg id="Layer_1" enable-background="new 0 0 512 512" height="512" viewBox="0 0 512 512" width="512" xmlns="http://www.w3.org/2000/svg"><path d="m512 256c0-37.184-19.608-70.951-50.974-89.497 3.684-14.831 2.284-30.568-4.236-44.847-6.972-15.266-19.055-27.199-34.021-33.934-1.521-21.881-10.502-42.31-25.884-58.443-18.002-18.881-42.288-29.279-68.385-29.279-28.353 0-54.798 12.769-72.5 33.892-17.701-21.123-44.146-33.892-72.5-33.892-26.097 0-50.383 10.398-68.385 29.28-15.382 16.133-24.363 36.561-25.884 58.443-14.967 6.735-27.05 18.668-34.021 33.934-6.521 14.279-7.92 30.017-4.236 44.847-31.366 18.545-50.974 52.312-50.974 89.496s19.608 70.951 50.974 89.497c-3.684 14.831-2.284 30.568 4.236 44.847 6.972 15.266 19.055 27.199 34.021 33.934 1.521 21.881 10.502 42.31 25.884 58.443 18.002 18.881 42.288 29.279 68.385 29.279 28.354 0 54.799-12.769 72.5-33.892 17.702 21.123 44.147 33.892 72.5 33.892 26.097 0 50.383-10.398 68.385-29.28 15.382-16.133 24.363-36.562 25.884-58.443 14.967-6.735 27.05-18.668 34.021-33.934 6.521-14.279 7.92-30.016 4.236-44.847 31.366-18.545 50.974-52.312 50.974-89.496zm-72.548 67h-71.452v-43.118h53c8.284 0 15-6.716 15-15 0-1.187-.001-43.881-.001-43.881 0-8.284-6.716-15-15-15s-15 6.716-15 15v28.881h-37.999v-26c0-16.542-13.458-30-30-30h-30c-8.284 0-15 6.716-15 15s6.716 15 15 15h30v99.118h-67.004v-27c0-8.284-6.716-15-15-15s-15 6.716-15 15v27c0 16.542 13.458 30 30 30h160.968c1.971 8.23 1.158 16.951-2.464 24.882-4.846 10.611-14.074 18.35-25.321 21.234-6.894 1.768-11.597 8.136-11.257 15.245.851 17.835-5.453 34.761-17.751 47.659-12.284 12.884-28.859 19.98-46.671 19.98-24.297 0-46.537-13.745-57.5-35.259v-31.741h27c8.284 0 15-6.716 15-15s-6.716-15-15-15h-27c-16.542 0-30 13.458-30 30v31.74c-10.961 21.515-33.201 35.26-57.5 35.26-17.812 0-34.387-7.096-46.672-19.981-8.847-9.278-14.571-20.646-16.782-32.932h35.954c16.542 0 30-13.458 30-30v-18.543h13c8.284 0 15-6.716 15-15s-6.716-15-15-15h-13v-18.544c0-16.542-13.458-30-30-30h-26c-8.284 0-15 6.716-15 15s6.716 15 15 15h26v67.087s-48.142.038-48.18.028c-11.247-2.884-20.476-10.623-25.321-21.234-4.856-10.634-4.668-22.69.519-33.077 1.853-3.713 2.086-8.027.643-11.918-1.443-3.89-4.434-7.009-8.261-8.614-27.58-11.57-45.4-38.369-45.4-68.272s17.82-56.702 45.399-68.271c.443-.186.872-.397 1.292-.622h23.308v45c0 8.284 6.716 15 15 15s15-6.716 15-15v-45h56.001v73c0 8.284 6.716 15 15 15s15-6.716 15-15v-27h14.617c8.284 0 15-6.716 15-15s-6.716-15-15-15h-14.617v-16c0-16.542-13.458-30-30-30h-8.999v-40.107c0-8.284-6.716-15-15-15s-15 6.716-15 15v40.106h-67.371c-1.426-7.664-.476-15.663 2.869-22.988 4.846-10.611 14.074-18.35 25.321-21.234 6.894-1.768 11.597-8.136 11.257-15.245-.851-17.835 5.453-34.761 17.751-47.659 12.285-12.884 28.86-19.98 46.672-19.98 25.063 0 47.936 14.623 58.5 37.313v50.687c0 16.542 13.458 30 30 30h80c8.284 0 15-6.716 15-15s-6.716-15-15-15h-3v-21c0-8.284-6.716-15-15-15s-15 6.716-15 15v21h-47s-.027-54.004-.076-54.497c11.258-20.504 32.946-33.503 56.576-33.503 17.812 0 34.387 7.096 46.672 19.981 12.298 12.898 18.602 29.823 17.751 47.659-.34 7.109 4.363 13.477 11.257 15.245 11.247 2.884 20.476 10.623 25.321 21.234 4.856 10.634 4.668 22.69-.519 33.078-1.853 3.712-2.086 8.027-.643 11.917s4.435 7.009 8.261 8.614c27.58 11.57 45.4 38.369 45.4 68.272 0 28.859-16.6 54.821-42.548 67z"/></svg>