<svg id="Capa_1" enable-background="new 0 0 512 512" height="512" viewBox="0 0 512 512" width="512" xmlns="http://www.w3.org/2000/svg"><g><path d="m481.644 213.459c-6.463-117.595-104.581-213.459-225.644-213.459-121.093 0-219.182 95.884-225.644 213.459-17.643 6.091-30.356 22.854-30.356 42.541v90c0 24.813 20.187 45 45 45h75c0-8.34 0-158.048 0-165 0-74.991 61.01-136 136-136s136 61.009 136 136v164.99l27.42.01c-6.192 17.459-22.865 30-42.42 30h-61c-41.46 0-75 34.536-75 76v15h30v-15c0-24.935 20.607-46 45-46h61c36.22 0 66.522-25.808 73.491-60h16.509c24.813 0 45-20.187 45-45v-90c0-19.687-12.713-36.45-30.356-42.541zm-391.644 147.541h-45c-8.271 0-15-6.729-15-15v-90c0-8.271 6.729-15 15-15h45zm166-301c-86.559 0-157.748 67.464-165.323 151h-30.109c7.687-101.094 92.404-181 195.432-181s187.745 79.906 195.432 181h-30.108c-7.573-83.5-78.732-151-165.324-151zm226 286c0 8.271-6.729 15-15 15h-45v-120h45c8.271 0 15 6.729 15 15z"/></g></svg>