<?xml version="1.0" encoding="iso-8859-1"?>
<!-- Generator: Adobe Illustrator 16.0.0, SVG Export Plug-In . SVG Version: 6.00 Build 0)  -->
<!DOCTYPE svg PUBLIC "-//W3C//DTD SVG 1.1//EN" "http://www.w3.org/Graphics/SVG/1.1/DTD/svg11.dtd">
<svg version="1.1" id="Capa_1" xmlns="http://www.w3.org/2000/svg" xmlns:xlink="http://www.w3.org/1999/xlink" x="0px" y="0px"
	 width="46.334px" height="46.334px" viewBox="0 0 46.334 46.334" style="enable-background:new 0 0 46.334 46.334;"
	 xml:space="preserve">
<g>
	<g>
		<path fill="white" d="M36.667,20.198c-5.331,0-9.667,4.337-9.667,9.667s4.336,9.666,9.667,9.666s9.667-4.336,9.667-9.666
			c0-1.664-0.423-3.232-1.167-4.602V2.532c0-0.688-0.288-1.342-0.789-1.791c-0.5-0.451-1.181-0.665-1.868-0.592L18.5,2.765
			c-1.308,0.142-2.333,1.283-2.333,2.6v24.032c-1.719-1.566-3.996-2.531-6.5-2.531C4.336,26.865,0,31.201,0,36.531
			s4.336,9.668,9.667,9.668s9.667-4.338,9.667-9.668c0-0.746-0.093-1.469-0.254-2.166h0.087V5.711l23-2.506v18.72
			C40.604,20.84,38.71,20.198,36.667,20.198z M9.667,43.199C5.991,43.199,3,40.207,3,36.531s2.991-6.666,6.667-6.666
			s6.667,2.99,6.667,6.666S13.344,43.199,9.667,43.199z M36.667,36.531c-3.676,0-6.667-2.99-6.667-6.666s2.991-6.668,6.667-6.668
			s6.667,2.992,6.667,6.668S40.344,36.531,36.667,36.531z"/>
	</g>
</g>
<g>
</g>
<g>
</g>
<g>
</g>
<g>
</g>
<g>
</g>
<g>
</g>
<g>
</g>
<g>
</g>
<g>
</g>
<g>
</g>
<g>
</g>
<g>
</g>
<g>
</g>
<g>
</g>
<g>
</g>
</svg>
