<?xml version="1.0" encoding="utf-8"?>
<svg version="1.1" id="Слой_1" xmlns="http://www.w3.org/2000/svg" xmlns:xlink="http://www.w3.org/1999/xlink" x="0px" y="0px"
	 viewBox="0 0 42 43" enable-background="new 0 0 42 43" xml:space="preserve">
<g>
	<path fill="#EBAA87" d="M33,31h-3v-4c0-1.7,1.3-3,3-3h0c1.7,0,3,1.3,3,3v1C36,29.7,34.7,31,33,31z"/>
	<path fill="#EBAA87" d="M9,31h3v-4c0-1.7-1.3-3-3-3h0c-1.7,0-3,1.3-3,3v1C6,29.7,7.3,31,9,31z"/>
	<g>
		<linearGradient id="SVGID_1_" gradientUnits="userSpaceOnUse" x1="8.0528" y1="34.5" x2="32.0528" y2="34.5">
			<stop  offset="0.5102" style="stop-color:#F2B997"/>
			<stop  offset="0.5357" style="stop-color:#EBAA87"/>
		</linearGradient>
		<path fill="url(#SVGID_1_)" d="M29.4,39.8C28.1,41.6,25.2,43,23,43h-4c-2.2,0-5.1-1.4-6.4-3.2l-1.2-1.6C10.1,36.4,9,33.2,9,31v-1
			c0-2.2,1.8-4,4-4h16c2.2,0,4,1.8,4,4v1c0,2.2-1.1,5.4-2.4,7.2L29.4,39.8z"/>
	</g>
	<linearGradient id="SVGID_2_" gradientUnits="userSpaceOnUse" x1="8.0047" y1="19.5" x2="32.0047" y2="19.5">
		<stop  offset="0.5102" style="stop-color:#F2B997"/>
		<stop  offset="0.5357" style="stop-color:#EBAA87"/>
	</linearGradient>
	<path fill="url(#SVGID_2_)" d="M33,30H9V18.1C9,9.5,14.4,9,21,9h0c6.6,0,12,0.5,12,9.1V30z"/>
	<path fill="#987A5D" d="M32,13.6c0,0-2.3,2.4-12.8,2.4C9.1,16,10,7,10,7s4.3,0,14.4,0c2.2,0,3.9,0,3.9,0L32,13.6z"/>
	<path fill="#987A5D" d="M34,24v-5h-2v8C32,28.1,32.9,24,34,24z"/>
	<g>
		<g>
			<path fill="#987A5D" d="M25,7h-3v6h6c2.2,0,4,1.8,4,4v5h2v-6C34,11,30,7,25,7z"/>
		</g>
	</g>
	<path fill="#987A5D" d="M8,24l0-5h2v8C10,28.1,9.1,24,8,24z"/>
	<g>
		<g>
			<path fill="#987A5D" d="M17,7c-5,0-9,4-9,9v6h2v-5c0-2.2,1.8-4,4-4h6v9h0V7H17z"/>
		</g>
	</g>
	<path fill="#CC856F" d="M23,30h-4c0,1.1,0.9,2,2,2C22.1,32,23,31.1,23,30z"/>
	<ellipse fill="#7B4C46" cx="26.5" cy="25.3" rx="1.5" ry="1.3"/>
	<ellipse fill="#7B4C46" cx="15.5" cy="25.3" rx="1.5" ry="1.3"/>
	<path fill="none" stroke="#987A5D" stroke-width="2" stroke-linecap="round" stroke-linejoin="round" stroke-miterlimit="10" d="
		M24,21.8c0,0,1.1-0.8,2.5-0.8c1.5,0,2.5,0.8,2.5,0.8"/>
	<path fill="none" stroke="#987A5D" stroke-width="2" stroke-linecap="round" stroke-linejoin="round" stroke-miterlimit="10" d="
		M13,23c0,0,1.5,0,5,0"/>
	<path fill="none" stroke="#7B4C46" stroke-width="2" stroke-linecap="round" stroke-miterlimit="10" d="M20,37c0,0-2.6,0.4-4-2"/>
</g>
<g>
	<g>
		<linearGradient id="SVGID_3_" gradientUnits="userSpaceOnUse" x1="7.1875" y1="14" x2="33.1875" y2="14">
			<stop  offset="0.5153" style="stop-color:#397DB9"/>
			<stop  offset="0.5357" style="stop-color:#2B66AB"/>
		</linearGradient>
		<path fill="url(#SVGID_3_)" d="M8,8v8.7c0,0,5.6,3.3,13,3.3c7.6,0,13-3.3,13-3.3V8H8z"/>
	</g>
</g>
<g>
	<path fill="#46A8D8" d="M40.1,7.3c1,0.4,1,1,0,1.4l-17.3,6.6c-1,0.4-2.7,0.4-3.7,0L1.9,8.7c-1-0.4-1-1,0-1.4l17.3-6.6
		c1-0.4,2.7-0.4,3.7,0L40.1,7.3z"/>
</g>
<polyline fill="none" stroke="#E4AF34" stroke-width="2" stroke-linecap="round" stroke-linejoin="round" stroke-miterlimit="10" points="
	38,17.8 38,10 19.8,8 "/>
<polygon fill="none" stroke="#E4AF34" stroke-width="2" stroke-linecap="round" stroke-linejoin="round" stroke-miterlimit="10" points="
	39,20 37,20 38.1,15 38,15 "/>
</svg>
