<?xml version="1.0" encoding="utf-8"?>
<svg version="1.1" id="Слой_1" xmlns="http://www.w3.org/2000/svg" xmlns:xlink="http://www.w3.org/1999/xlink" x="0px" y="0px"
	 viewBox="0 0 38 42" enable-background="new 0 0 38 42" xml:space="preserve">
<path fill="#F2B997" d="M0,42h11V17.9l0,0c-5.8,0-11,4.7-11,10.6V42z"/>
<path fill="#C99079" d="M16.2,26.4H9.5c-1.4,0-2.5-1.1-2.5-2.5v-0.3c0-1.4,1.1-2.5,2.5-2.5h6.7c1.4,0,2.5,1.1,2.5,2.5v0.3
	C18.7,25.3,17.6,26.4,16.2,26.4z"/>
<path fill="#C99079" d="M6.2,40H4v-8h9v2.6C13,37.6,9.9,40,6.2,40z"/>
<path fill="#F2B997" d="M2,41.7L2,41.7l0-10h7v4.1C9,39.3,5.9,41.7,2,41.7z"/>
<linearGradient id="SVGID_1_" gradientUnits="userSpaceOnUse" x1="26.1852" y1="21" x2="-2.8148" y2="21">
	<stop  offset="0.5" style="stop-color:#46A8D8"/>
	<stop  offset="0.5" style="stop-color:#4593C9"/>
</linearGradient>
<path fill="url(#SVGID_1_)" d="M38,37H13c-2.2,0-4-1.8-4-4V5h29V37z"/>
<g>
	<g>
		<path fill="#FFFFFF" d="M22.4,26l-1-2.7h-3.8l-1,2.7H15l3.7-9.9h1.8l3.7,9.9H22.4z M21,21.9l-0.9-2.7c-0.1-0.2-0.2-0.5-0.3-0.9
			c-0.1-0.4-0.2-0.7-0.2-0.9c-0.1,0.6-0.3,1.2-0.5,1.8l-0.9,2.6H21z"/>
		<path fill="#FFFFFF" d="M31.1,26l-0.3-1h-0.1c-0.4,0.5-0.7,0.8-1.1,0.9c-0.4,0.2-0.8,0.2-1.4,0.2c-0.7,0-1.3-0.2-1.7-0.6
			c-0.4-0.4-0.6-1-0.6-1.7c0-0.8,0.3-1.4,0.9-1.7c0.6-0.4,1.4-0.6,2.6-0.6l1.3,0V21c0-0.5-0.1-0.8-0.3-1.1c-0.2-0.2-0.6-0.4-1-0.4
			c-0.4,0-0.8,0.1-1.1,0.2c-0.4,0.1-0.7,0.2-1,0.4L26.6,19c0.4-0.2,0.8-0.4,1.3-0.5c0.5-0.1,0.9-0.2,1.4-0.2c1,0,1.7,0.2,2.2,0.6
			c0.5,0.4,0.7,1.1,0.7,2v5H31.1z M28.7,24.9c0.6,0,1-0.2,1.4-0.5c0.3-0.3,0.5-0.8,0.5-1.4v-0.6l-1,0c-0.7,0-1.3,0.2-1.6,0.4
			c-0.3,0.2-0.5,0.6-0.5,1c0,0.3,0.1,0.6,0.3,0.8C28,24.8,28.3,24.9,28.7,24.9z"/>
	</g>
</g>
<path fill="#F2B997" d="M15.6,32h-7c-1.4,0-2.5-1.1-2.5-2.5v0c0-1.4,1.1-2.5,2.5-2.5h7c1.4,0,2.5,1.1,2.5,2.5v0
	C18.1,30.9,17,32,15.6,32z"/>
<path fill="#2B66AB" d="M38,9H13c-2.2,0-4-1.8-4-4V4c0-2.2,1.8-4,4-4l25,0V9z"/>
<path fill="#C7DAE0" d="M13,7h25V2H13c-1.1,0-2,0.9-2,2v1C11,6.1,11.9,7,13,7z"/>
<path opacity="0.4" fill="#FFFFFF" d="M16,31h-1.5c-0.8,0-1.5-0.7-1.5-1.5v0c0-0.8,0.7-1.5,1.5-1.5H16V31z"/>

</svg>
