<svg height="512" viewBox="0 0 128 128" width="512" xmlns="http://www.w3.org/2000/svg"><g><path d="m38.917 90.372a1.767 1.767 0 0 1 -.392-.045c-6.6-1.506-14.46-4.333-14.46-9.245 0-6.436 13.252-9.328 21.152-10.478a1.75 1.75 0 1 1 .5 3.464c-13.226 1.926-18.156 5.324-18.156 7.014 0 1.09 2.454 3.712 11.74 5.833a1.751 1.751 0 0 1 -.388 3.457z" fill="#acf0f0"/><path d="m64 92.832c-4.093 0-8.125-.167-11.984-.5a1.75 1.75 0 1 1 .3-3.487c3.76.321 7.692.484 11.686.484 23.921 0 36.435-5.372 36.435-8.25 0-.978-1.912-3.166-9.077-5.162a1.75 1.75 0 0 1 .94-3.372c7.722 2.151 11.637 5.022 11.637 8.534-.002 7.721-20.092 11.753-39.937 11.753z" fill="#acf0f0"/><g fill="#fce3b3"><path d="m63.861 51.574c-3.7 7.063 1.22 16.934 1.22 16.934s10.919-1.58 14.613-8.643.877-20.94.877-20.94-13.012 5.586-16.71 12.649z"/><path d="m64.139 51.574c3.7 7.063-1.22 16.934-1.22 16.934s-10.914-1.58-14.613-8.643-.877-20.94-.877-20.94 13.012 5.586 16.71 12.649z"/></g><g fill="#fecec1"><path d="m66.97 78.525c-5.854-3.921-6.2-13.662-6.2-13.662s9.141-3.381 14.995.541 9.519 15.886 9.519 15.886-12.461 1.157-18.314-2.765z"/><path d="m61.03 78.525c5.854-3.921 6.2-13.662 6.2-13.662s-9.141-3.381-14.995.541-9.519 15.886-9.519 15.886 12.461 1.157 18.314-2.765z"/></g><path d="m59.488 56.559c6.665 6.665 4.6 19.54 4.6 19.54s-12.875 2.067-19.541-4.6-8.38-23.319-8.38-23.319 16.655 1.713 23.321 8.379z" fill="#fda792"/><path d="m68.512 56.559c-6.665 6.665-4.6 19.54-4.6 19.54s12.875 2.067 19.541-4.6 8.38-23.319 8.38-23.319-16.655 1.713-23.321 8.379z" fill="#fda792"/><path d="m74.566 59.333c0 9.427-10.566 17.067-10.566 17.067s-10.566-7.64-10.566-17.067 10.566-22.415 10.566-22.415 10.566 12.989 10.566 22.415z" fill="#fecec1"/></g></svg>